<?xml version="1.0" encoding="UTF-8"?>
<svg width="114px" height="100px" viewBox="0 0 114 100" version="1.1" xmlns="http://www.w3.org/2000/svg" xmlns:xlink="http://www.w3.org/1999/xlink">
    <title>Group 3</title>
    <defs>
        <linearGradient x1="0%" y1="100%" x2="100%" y2="100%" id="linearGradient-1">
            <stop stop-color="#4E82E7" offset="0%"></stop>
            <stop stop-color="#6039E4" offset="48.2604554%"></stop>
            <stop stop-color="#771EE3" offset="100%"></stop>
        </linearGradient>
        <path d="M56.8184268,0 C54.6997212,0 52.7422265,1.12988261 51.6821707,2.96459451 L51.6821707,2.96459451 L0.795276144,91.1034046 C0.263842351,92.0233381 0.00749818403,93.0266888 0,94.0183237 L0,94.0183237 L0,94.1031469 C0.0140590951,96.1384352 1.07645805,98.1132694 2.96646906,99.2047239 L2.96646906,99.2047239 C3.88733978,99.7366263 4.89115917,99.9929705 5.88373128,100 L5.88373128,100 L5.96761722,100 C8.00290555,99.9854723 9.97680249,98.923542 11.0673196,97.0335309 L11.0673196,97.0335309 L56.8184268,17.7903789 L102.568597,97.0335309 C103.667081,98.9366638 105.660192,100 107.710008,100 L107.710008,100 C108.716639,100 109.735455,99.7436558 110.669916,99.2047239 L110.669916,99.2047239 C112.55899,98.1137381 113.62092,96.1398411 113.635916,94.1050214 L113.635916,94.1050214 L113.635916,94.0164491 C113.627949,93.0252829 113.371605,92.0228695 112.84064,91.1034046 L112.84064,91.1034046 L61.9546829,2.96459451 C60.8946271,1.12988261 58.9371324,0 56.8184268,0 Z" id="path-2"></path>
    </defs>
    <g id="Page-1" stroke="none" stroke-width="1" fill="none" fill-rule="evenodd">
        <g id="AETERNUM" transform="translate(-94.000000, -7881.000000)">
            <g id="Group-3" transform="translate(94.000000, 7881.000000)">
                <mask id="mask-3" fill="white">
                    <use xlink:href="#path-2"></use>
                </mask>
                <use id="Clip-2" fill="url(#linearGradient-1)" xlink:href="#path-2"></use>
            </g>
        </g>
    </g>
</svg>