<?xml version="1.0" encoding="UTF-8"?>
<svg width="49px" height="45px" viewBox="0 0 49 45" version="1.1" xmlns="http://www.w3.org/2000/svg" xmlns:xlink="http://www.w3.org/1999/xlink">
    <title>Recurso 4 Copy</title>
    <defs>
        <radialGradient cx="-17.6727676%" cy="0.766311138%" fx="-17.6727676%" fy="0.766311138%" r="157.472863%" gradientTransform="translate(-0.176728,0.007663),scale(0.922476,1.000000),translate(0.176728,-0.007663)" id="radialGradient-1">
            <stop stop-color="#4E82E7" offset="0%"></stop>
            <stop stop-color="#6039E4" offset="100%"></stop>
        </radialGradient>
    </defs>
    <g id="Page-1" stroke="none" stroke-width="1" fill="none" fill-rule="evenodd">
        <g id="AETERNUM" transform="translate(-277.000000, -6529.000000)" fill="url(#radialGradient-1)" fill-rule="nonzero">
            <g id="Recurso-4-Copy" transform="translate(277.000000, 6529.000000)">
                <path d="M17.179349,2.65006844e-06 C17.8203099,-0.00109839497 18.4128298,0.34096485 18.7323941,0.896582359 L25.7645212,13.0731715 C30.8689542,11.0190594 36.6602017,11.633564 41.2199044,14.7131296 C45.779607,17.7926953 48.512597,22.9353531 48.5135673,28.4375901 C48.5135673,29.4251003 47.7130321,30.2256355 46.7255219,30.2256355 L35.6447491,30.2256355 L41.2643204,40.1186352 C41.7439053,40.9567675 41.4713763,42.024267 40.6487219,42.5299421 C38.0353328,44.1453844 35.023528,45.0007192 31.9511582,45.0000027 C23.5013937,44.9897839 16.4096841,38.6295753 15.4832602,30.2307442 L1.79194121,30.2307442 C1.15085539,30.232141 0.55808328,29.8902155 0.238311579,29.3345726 C-0.0814601227,28.7789297 -0.0792879424,28.0946147 0.244004768,27.541013 L15.6288582,0.896582359 C15.9213756,0.387992625 16.4426355,0.058441398 17.0204811,0.00704806655 L17.179349,2.65006844e-06 Z M31.5169186,30.2307442 L19.0976662,30.2307442 C19.6612044,34.2691585 22.0898573,37.8079632 25.6554323,39.786104 C29.2210072,41.7642448 33.5089373,41.9517248 37.2335552,40.292331 L31.5169186,30.2307442 Z M46.2146518,33.1529212 C47.6324343,33.1529212 48.7817741,34.302261 48.7817741,35.7200435 C48.7817741,37.137826 47.6324343,38.2871658 46.2146518,38.2871658 C44.7968693,38.2871658 43.6475294,37.137826 43.6475294,35.7200435 C43.6475294,34.302261 44.7968693,33.1529212 46.2146518,33.1529212 Z M7.09732731,33.1529212 C8.51510982,33.1529212 9.66444963,34.302261 9.66444963,35.7200435 C9.66444963,37.137826 8.51510982,38.2871658 7.09732731,38.2871658 C5.67954481,38.2871658 4.530205,37.137826 4.530205,35.7200435 C4.530205,34.302261 5.67954481,33.1529212 7.09732731,33.1529212 Z M27.5908818,16.217577 L33.5987144,26.6546534 L44.8046503,26.6546534 C44.264224,22.7891875 42.0138725,19.3717797 38.6763688,17.3481797 C35.3388652,15.3245798 31.2681901,14.9094139 27.5908818,16.217577 Z M24.4030523,17.8804592 C21.5076527,19.9506937 19.5895539,23.1192046 19.0976662,26.644436 L19.0976662,26.6546534 L29.4581121,26.6546534 L24.4030523,17.8804592 Z M17.179349,5.37946759 L4.90058583,26.6546534 L15.4832602,26.6546534 C16.0087116,21.8446993 18.6090552,17.5042623 22.6022352,14.7718146 L17.179349,5.37946759 Z M27.9459366,0.240114265 C29.3637191,0.240114265 30.5130589,1.38945407 30.5130589,2.80723658 C30.5130589,4.22501908 29.3637191,5.37435889 27.9459366,5.37435889 C26.5281541,5.37435889 25.3788143,4.22501908 25.3788143,2.80723658 C25.3788143,1.38945407 26.5281541,0.240114265 27.9459366,0.240114265 Z" id="Combined-Shape"></path>
            </g>
        </g>
    </g>
</svg>