<?xml version="1.0" encoding="UTF-8"?>
<svg width="163px" height="150px" viewBox="0 0 163 150" version="1.1" xmlns="http://www.w3.org/2000/svg" xmlns:xlink="http://www.w3.org/1999/xlink">
    <title>Recurso 4</title>
    <defs>
        <radialGradient cx="-17.6727676%" cy="0.766311138%" fx="-17.6727676%" fy="0.766311138%" r="157.472863%" gradientTransform="translate(-0.176728,0.007663),scale(0.922476,1.000000),translate(0.176728,-0.007663)" id="radialGradient-1">
            <stop stop-color="#4E82E7" offset="0%"></stop>
            <stop stop-color="#6039E4" offset="100%"></stop>
        </radialGradient>
    </defs>
    <g id="Page-1" stroke="none" stroke-width="1" fill="none" fill-rule="evenodd">
        <g id="AETERNUM" transform="translate(-1126.000000, -1438.000000)" fill="url(#radialGradient-1)" fill-rule="nonzero">
            <g id="Recurso-4" transform="translate(1126.000000, 1438.000000)">
                <path d="M57.2644966,8.83356147e-06 C59.4010331,-0.00366131657 61.3760992,1.1365495 62.4413137,2.98860786 L85.8817373,43.5772382 C102.896514,36.7301981 122.200672,38.7785467 137.399681,49.0437655 C152.59869,59.3089843 161.708657,76.4511769 161.711891,94.7919669 C161.711891,98.0836676 159.04344,100.752118 155.75174,100.752118 L118.81583,100.752118 L137.547735,133.728784 C139.146351,136.522558 138.237921,140.08089 135.49574,141.766474 C126.784443,147.151281 116.745093,150.002397 106.503861,149.999998 C78.337979,149.965946 54.6989469,128.765251 51.6108673,100.769147 L5.97313735,100.769147 C3.83618462,100.773803 1.8602776,99.6340518 0.794371929,97.7819088 C-0.271533742,95.9297657 -0.264293141,93.6487156 0.813349226,91.8033768 L52.0961939,2.98860786 C53.1173455,1.21316734 54.9747649,0.0922797555 57.0093043,0.00544945371 L57.2644966,8.83356147e-06 Z M105.056395,100.769147 L63.6588875,100.769147 C65.5373478,114.230528 73.6328577,126.026544 85.5181075,132.620347 C97.4033574,139.214149 111.696458,139.839083 124.111851,134.30777 L105.056395,100.769147 Z M154.048839,110.509737 C158.774781,110.509737 162.605914,114.34087 162.605914,119.066812 C162.605914,123.792753 158.774781,127.623886 154.048839,127.623886 C149.322898,127.623886 145.491765,123.792753 145.491765,119.066812 C145.491765,114.34087 149.322898,110.509737 154.048839,110.509737 Z M23.6577577,110.509737 C28.3836994,110.509737 32.2148321,114.34087 32.2148321,119.066812 C32.2148321,123.792753 28.3836994,127.623886 23.6577577,127.623886 C18.931816,127.623886 15.1006833,123.792753 15.1006833,119.066812 C15.1006833,114.34087 18.931816,110.509737 23.6577577,110.509737 Z M91.9696061,54.05859 L111.995715,88.8488446 L149.348834,88.8488446 C147.547413,75.9639584 140.046242,64.5725988 128.921229,57.8272658 C117.796217,51.0819328 104.2273,49.6980464 91.9696061,54.05859 Z M81.3435078,59.6015307 C71.6921758,66.5023124 65.298513,77.0640153 63.6588875,88.8147866 L63.6588875,88.8488446 L98.193707,88.8488446 L81.3435078,59.6015307 Z M57.2644966,17.9315586 L16.3352861,88.8488446 L51.6108673,88.8488446 C53.3623721,72.8156645 62.0301839,58.3475409 75.340784,49.239382 L57.2644966,17.9315586 Z M93.1531219,0.800380885 C97.8790636,0.800380885 101.710196,4.63151358 101.710196,9.35745525 C101.710196,14.0833969 97.8790636,17.9145296 93.1531219,17.9145296 C88.4271802,17.9145296 84.5960475,14.0833969 84.5960475,9.35745525 C84.5960475,4.63151358 88.4271802,0.800380885 93.1531219,0.800380885 Z" id="Combined-Shape"></path>
            </g>
        </g>
    </g>
</svg>