<?xml version="1.0" encoding="UTF-8"?>
<svg width="200px" height="40px" viewBox="0 0 200 40" version="1.1" xmlns="http://www.w3.org/2000/svg" xmlns:xlink="http://www.w3.org/1999/xlink">
    <title>Recurso 11</title>
    <defs>
        <radialGradient cx="-20.5371317%" cy="0.765348022%" fx="-20.5371317%" fy="0.765348022%" r="306.730385%" gradientTransform="translate(-0.205371,0.007653),scale(0.928752,1.000000),translate(0.205371,-0.007653)" id="radialGradient-1">
            <stop stop-color="#4E82E7" offset="1%"></stop>
            <stop stop-color="#6039E4" offset="52%"></stop>
        </radialGradient>
        <radialGradient cx="-1043.50927%" cy="-638.659058%" fx="-1043.50927%" fy="-638.659058%" r="2690.08559%" gradientTransform="translate(-10.435093,-6.386591),scale(1.000000,0.998877),translate(10.435093,6.386591)" id="radialGradient-2">
            <stop stop-color="#4E82E7" offset="1%"></stop>
            <stop stop-color="#6039E4" offset="52%"></stop>
        </radialGradient>
        <radialGradient cx="-687.803138%" cy="2.06847361%" fx="-687.803138%" fy="2.06847361%" r="2690.08559%" gradientTransform="translate(-6.878031,0.020685),scale(1.000000,0.998877),translate(6.878031,-0.020685)" id="radialGradient-3">
            <stop stop-color="#4E82E7" offset="1%"></stop>
            <stop stop-color="#6039E4" offset="52%"></stop>
        </radialGradient>
        <radialGradient cx="-281.954351%" cy="-638.659058%" fx="-281.954351%" fy="-638.659058%" r="2690.08559%" gradientTransform="translate(-2.819544,-6.386591),scale(1.000000,0.998877),translate(2.819544,6.386591)" id="radialGradient-4">
            <stop stop-color="#4E82E7" offset="1%"></stop>
            <stop stop-color="#6039E4" offset="52%"></stop>
        </radialGradient>
    </defs>
    <g id="Page-1" stroke="none" stroke-width="1" fill="none" fill-rule="evenodd">
        <g id="AETERNUM" transform="translate(-619.000000, -4793.000000)" fill-rule="nonzero">
            <g id="Recurso-11" transform="translate(619.000000, 4793.000000)">
                <path d="M28.3611102,40 C20.859235,39.9904603 14.5634379,34.3369447 13.7415015,26.8718406 L1.5877726,26.8718406 C1.02006886,26.8696066 0.496393965,26.5652697 0.212929552,26.0728421 C-0.0705348601,25.5804145 -0.071005245,24.9742188 0.211694616,24.4813509 L13.8748803,0.797915685 C14.1577685,0.306039385 14.6807655,0.0020622209 15.2477051,0 L15.2477051,0 C15.8169706,0 16.3429856,0.304026776 16.6270362,0.797915685 L22.8698108,11.6202555 C27.4022815,9.79400027 32.544768,10.3403005 36.5934694,13.078157 C40.6421708,15.8160134 43.0685536,20.387975 43.0685536,25.2792664 C43.0685536,25.7022082 42.9005079,26.1077801 42.6014738,26.4065395 C42.3024397,26.7052989 41.8969811,26.8727055 41.4745152,26.8718406 L31.6402747,26.8718406 L36.6305906,35.6651953 C37.0543676,36.4103355 36.8127811,37.3576131 36.0840632,37.8081684 C33.7631165,39.2428359 31.088827,40.0018169 28.3611102,40 Z M16.949097,26.8718406 C17.4461451,30.4644278 19.6019636,33.6138094 22.7692923,35.3744192 C25.9366211,37.1350289 29.7466239,37.3018434 33.0553904,35.8247784 L27.9739866,26.8718406 L16.949097,26.8718406 Z M29.8250229,23.6834354 L39.7731233,23.6834354 C39.2932569,20.246768 37.2935553,17.2089432 34.3283078,15.4120035 C31.3630604,13.6150638 27.7473379,13.2499421 24.483368,14.417845 L29.8250229,23.6834354 Z M16.949097,23.6834354 L26.1489753,23.6834354 L21.6596429,15.8996881 C19.0908507,17.7388676 17.3881232,20.5524695 16.949097,23.6834354 L16.949097,23.6834354 Z M4.34643484,23.6834354 L13.7415015,23.6834354 C14.2104145,19.4115402 16.5190312,15.557536 20.0623515,13.1314098 L15.2477051,4.78097966 L4.34643484,23.6834354 Z" id="Shape" fill="url(#radialGradient-1)"></path>
                <ellipse id="Oval" fill="url(#radialGradient-2)" cx="41.0288351" cy="31.7505241" rx="2.28045075" ry="2.28301541"></ellipse>
                <ellipse id="Oval" fill="url(#radialGradient-3)" cx="24.8054288" cy="2.49470745" rx="2.28045075" ry="2.28301541"></ellipse>
                <ellipse id="Oval" fill="url(#radialGradient-4)" cx="6.29506536" cy="31.7505241" rx="2.28045075" ry="2.28301541"></ellipse>
                <path d="M73.4528759,24.8917074 L62.6849844,24.8917074 L61.0161238,29.1255449 L57.356342,29.1255449 L66.3415131,7.55577158 L69.793094,7.55577158 L78.8107966,29.1222881 L75.1445084,29.1222881 L73.4528759,24.8917074 Z M72.3533148,22.1234291 L68.0689301,11.3759957 L63.7845455,22.1234291 L72.3533148,22.1234291 Z" id="Shape" fill="#606060"></path>
                <path d="M78.5733174,20.6025044 C78.5733174,15.3623164 82.0834548,11.757041 87.1713649,11.757041 C92.5878421,11.757041 95.8605003,15.7498754 95.4440985,21.4688127 L81.9045322,21.4688127 C82.0248983,24.7744627 84.0776293,26.6503784 87.3795658,26.6503784 C89.7608639,26.6503784 91.3061051,25.8459493 92.1389088,24.2077799 L95.2066193,24.6832724 C93.8370476,27.8423664 91.1597139,29.4512247 87.3210093,29.4512247 C82.0248983,29.4512247 78.5733174,25.9338828 78.5733174,20.6025044 Z M92.3178315,18.8470903 C92.0803523,16.1341776 90.2358223,14.4080746 87.2299214,14.4080746 C84.373665,14.4080746 82.3827437,15.8964313 81.9956201,18.8470903 L92.3178315,18.8470903 Z" id="Shape" fill="#606060"></path>
                <path d="M98.0335975,22.3318642 L98.0335975,14.675132 L95.5612115,14.675132 L95.5612115,12.0696936 L98.0335975,12.0696936 L98.0335975,8.95619473 L101.394091,8.24295596 L101.394091,12.0859776 L106.423444,12.0859776 L106.423444,14.691416 L101.394091,14.691416 L101.394091,21.9443052 C101.394091,25.4583903 102.317982,26.6796896 104.904228,26.6796896 C105.363411,26.6582085 105.820817,26.6081745 106.2738,26.5298768 L106.71948,29.1353153 C105.956122,29.2914814 105.179122,29.3711235 104.399991,29.3730615 C100.024519,29.3600343 98.0335975,27.542741 98.0335975,22.3318642 Z" id="Path" fill="#606060"></path>
                <path d="M106.98949,20.6025044 C106.98949,15.3623164 110.499628,11.757041 115.587538,11.757041 C121.013774,11.757041 124.266914,15.7498754 123.860271,21.4688127 L110.320705,21.4688127 C110.441071,24.7744627 112.493802,26.6503784 115.795739,26.6503784 C118.177037,26.6503784 119.722278,25.8459493 120.555082,24.2077799 L123.616286,24.6832724 C122.249967,27.8423664 119.572634,29.4512247 115.733929,29.4512247 C110.441071,29.4512247 106.98949,25.9338828 106.98949,20.6025044 Z M120.734004,18.8470903 C120.496525,16.1341776 118.651995,14.4080746 115.646094,14.4080746 C112.789838,14.4080746 110.795663,15.8964313 110.411793,18.8470903 L120.734004,18.8470903 Z" id="Shape" fill="#606060"></path>
                <path d="M126.329404,12.0859776 L129.660619,12.0859776 L129.660619,14.9454463 C130.311247,13.128153 132.100474,11.4574156 135.643143,11.9654761 L135.285297,15.1831925 C131.475871,14.466697 129.660619,16.5217365 129.660619,20.6936948 L129.660619,29.1222881 L126.329404,29.1222881 L126.329404,12.0859776 Z" id="Path" fill="#606060"></path>
                <path d="M136.980183,12.0859776 L140.314651,12.0859776 L140.314651,15.1831925 C141.085645,13.0662738 143.021263,11.7863522 145.877519,11.7863522 C150.578306,11.7863522 152.751403,14.4960082 152.751403,19.8892657 L152.751403,29.1222881 L149.416935,29.1222881 L149.416935,20.1563231 C149.416935,16.433803 147.988807,14.675132 144.836515,14.675132 C141.622413,14.675132 140.314651,16.7920508 140.314651,20.5373685 L140.314651,29.1222881 L136.980183,29.1222881 L136.980183,12.0859776 Z" id="Path" fill="#606060"></path>
                <path d="M155.070891,21.3483112 L155.070891,12.0859776 L158.405359,12.0859776 L158.405359,21.0812538 C158.405359,24.7744627 159.742399,26.5298768 162.959754,26.5298768 C166.177109,26.5298768 167.481618,24.4162149 167.481618,20.6676404 L167.481618,12.0859776 L170.816086,12.0859776 L170.816086,29.1222881 L167.478365,29.1222881 L167.478365,26.0250732 C166.736649,28.1387351 164.771753,29.4512247 161.948028,29.4512247 C157.243988,29.4512247 155.070891,26.7057439 155.070891,21.3483112 Z" id="Path" fill="#606060"></path>
                <path d="M173.994403,12.0859776 L177.328871,12.0859776 L177.328871,15.3069509 C177.924196,13.1020986 179.856561,11.7928658 182.504616,11.7928658 C185.360873,11.7928658 186.759722,12.8643524 187.683614,15.8443225 C188.48714,13.2388841 190.748071,11.7635546 193.929642,11.7635546 C198.214026,11.7635546 200,14.3233979 200,20.4624621 L200,29.1222881 L196.668785,29.1222881 L196.668785,20.723006 C196.668785,16.3751806 195.536693,14.6458209 192.709715,14.6458209 C189.781889,14.6458209 188.574974,16.433803 188.574974,20.6643836 L188.574974,29.1320585 L185.24376,29.1320585 L185.24376,20.7523172 C185.24376,16.2839903 184.232033,14.675132 181.463611,14.675132 C178.578077,14.675132 177.328871,16.6129269 177.328871,20.9900634 L177.328871,29.1320585 L173.994403,29.1320585 L173.994403,12.0859776 Z" id="Path" fill="#606060"></path>
            </g>
        </g>
    </g>
</svg>