<?xml version="1.0" encoding="UTF-8"?>
<svg width="306px" height="35px" viewBox="0 0 306 35" version="1.1" xmlns="http://www.w3.org/2000/svg" xmlns:xlink="http://www.w3.org/1999/xlink">
    <title>Recurso 5</title>
    <defs>
        <radialGradient cx="-20.5415438%" cy="0.769229887%" fx="-20.5415438%" fy="0.769229887%" r="307.038815%" gradientTransform="translate(-0.205415,0.007692),scale(0.927889,1.000000),translate(0.205415,-0.007692)" id="radialGradient-1">
            <stop stop-color="#4E82E7" offset="1%"></stop>
            <stop stop-color="#6039E4" offset="52%"></stop>
        </radialGradient>
        <radialGradient cx="-1044.38202%" cy="-639.213483%" fx="-1044.38202%" fy="-639.213483%" r="2692.24719%" gradientTransform="translate(-10.443820,-6.392135),scale(1.000000,0.999503),translate(10.443820,6.392135)" id="radialGradient-2">
            <stop stop-color="#4E82E7" offset="1%"></stop>
            <stop stop-color="#6039E4" offset="52%"></stop>
        </radialGradient>
        <radialGradient cx="-688.426966%" cy="2.02247191%" fx="-688.426966%" fy="2.02247191%" r="2692.24719%" gradientTransform="translate(-6.884270,0.020225),scale(1.000000,0.999503),translate(6.884270,-0.020225)" id="radialGradient-3">
            <stop stop-color="#4E82E7" offset="1%"></stop>
            <stop stop-color="#6039E4" offset="52%"></stop>
        </radialGradient>
        <radialGradient cx="-282.247191%" cy="-639.213483%" fx="-282.247191%" fy="-639.213483%" r="2692.24719%" gradientTransform="translate(-2.822472,-6.392135),scale(1.000000,0.999503),translate(2.822472,6.392135)" id="radialGradient-4">
            <stop stop-color="#4E82E7" offset="1%"></stop>
            <stop stop-color="#6039E4" offset="52%"></stop>
        </radialGradient>
    </defs>
    <g id="Page-1" stroke="none" stroke-width="1" fill="none" fill-rule="evenodd">
        <g id="AETERNUM" transform="translate(-567.000000, -48.000000)" fill-rule="nonzero">
            <g id="Recurso-5" transform="translate(567.000000, 48.000000)">
                <path d="M24.8392799,34.9999604 C18.2740031,34.9901932 12.7627314,30.0497907 12.0347839,23.5217412 L1.39202767,23.5217412 C0.894668678,23.5207467 0.43546772,23.2548601 0.186819083,22.8239012 C-0.061829554,22.3929424 -0.0623018411,21.8621214 0.185579529,21.4307204 L12.1469073,0.695511235 C12.3963682,0.265065686 12.8560328,0 13.3533555,0 L13.3533555,0 C13.8517897,0 14.3126828,0.265028188 14.5642885,0.695511235 L20.0314271,10.1724127 C24.0005737,8.57230314 28.504931,9.04958481 32.051026,11.4460093 C35.597121,13.8424338 37.7215824,17.8448584 37.7200208,22.1262316 C37.7200208,22.8969503 37.0955397,23.5217412 36.3252044,23.5217412 L27.7141247,23.5217412 L32.0869386,31.2172365 C32.4569666,31.8698573 32.2449812,32.698399 31.6070503,33.0928733 C29.5721203,34.3455026 27.2285108,35.0058934 24.8392799,34.9999604 Z M14.8468396,23.5217412 C15.2872346,26.6630713 17.1763952,29.4152032 19.9487444,30.9542038 C22.7210937,32.4932045 26.0548552,32.6404476 28.9519674,31.3518516 L24.5073946,23.5217412 L14.8468396,23.5217412 Z M26.121972,20.730722 L34.8362052,20.730722 C34.4141772,17.7223178 32.6617683,15.0634969 30.0641757,13.4904186 C27.466583,11.9173404 24.2994583,11.596937 21.4396974,12.61792 L26.121972,20.730722 Z M14.8468396,20.730722 L22.9197268,20.730722 L18.9729819,13.9102247 C16.719855,15.520403 15.2277725,17.9868096 14.8468396,20.730722 L14.8468396,20.730722 Z M3.80492394,20.730722 L12.0347839,20.730722 C12.4470405,16.9905761 14.469804,13.6165333 17.5736815,11.4916405 L13.3533555,4.18652892 L3.80492394,20.730722 Z" id="Shape" fill="url(#radialGradient-1)"></path>
                <ellipse id="Oval" fill="url(#radialGradient-2)" cx="35.9350148" cy="27.7935264" rx="1.9957971" ry="1.99679032"></ellipse>
                <ellipse id="Oval" fill="url(#radialGradient-3)" cx="21.7267334" cy="2.18525143" rx="1.9957971" ry="1.99679032"></ellipse>
                <ellipse id="Oval" fill="url(#radialGradient-4)" cx="5.51368505" cy="27.7935264" rx="1.9957971" ry="1.99679032"></ellipse>
                <path d="M64.3381228,21.7896939 L54.9197545,21.7896939 L53.4621499,25.4916086 L50.2285101,25.4916086 L58.099575,6.61408749 L61.1224228,6.61408749 L69.0203974,25.4916086 L65.8136672,25.4916086 L64.3381228,21.7896939 Z M63.3738613,19.3666225 L59.6199688,9.94356707 L55.8660763,19.3666225 L63.3738613,19.3666225 Z" id="Shape" fill="#FFFFFF"></path>
                <path d="M68.8185752,18.0339332 C68.8185752,13.4480463 71.8952422,10.2935663 76.3532699,10.2935663 C81.0938486,10.2935663 83.9776633,13.784584 83.5964437,18.7922649 L71.7562091,18.7922649 C71.841423,21.686489 73.6398828,23.3332801 76.5326674,23.3332801 C78.6181632,23.3332801 79.9726143,22.6287946 80.7036591,21.1929004 L83.3946215,21.6102071 C82.1971432,24.3743034 79.851521,25.7832746 76.4923029,25.7832746 C71.841423,25.7787874 68.8185752,22.7005893 68.8185752,18.0339332 Z M80.8606319,16.4948342 C80.6498398,14.1256088 79.0352624,12.6134328 76.4026042,12.6134328 C73.9000092,12.6134328 72.1553686,13.9147119 71.8189983,16.4948342 L80.8606319,16.4948342 Z" id="Shape" fill="#FFFFFF"></path>
                <path d="M85.8658219,19.5461093 L85.8658219,12.8467656 L83.6995972,12.8467656 L83.6995972,10.5807451 L85.8658219,10.5807451 L85.8658219,7.83908469 L88.7989709,7.21536817 L88.7989709,10.5807451 L93.2031794,10.5807451 L93.2031794,12.8467656 L88.7989709,12.8467656 L88.7989709,19.2095716 C88.7989709,22.2877697 89.6062596,23.355716 91.8756379,23.355716 C92.2769676,23.3354314 92.6767922,23.2919831 93.0731162,23.2255881 L93.4633057,25.4916086 C92.7947217,25.628983 92.1141606,25.6996282 91.4316291,25.7025055 C87.6104625,25.7025055 85.8658219,24.1095604 85.8658219,19.5461093 Z" id="Path" fill="#FFFFFF"></path>
                <path d="M93.732402,18.0339332 C93.732402,13.4480463 96.804584,10.2935663 101.262612,10.2935663 C106.007675,10.2935663 108.887005,13.784584 108.505785,18.7922649 L96.6296715,18.7922649 C96.732825,21.686489 98.5312849,23.3332801 101.424069,23.3332801 C103.509565,23.3332801 104.864016,22.6287946 105.590576,21.1929004 L108.281539,21.6102071 C107.08406,24.3743034 104.738438,25.7832746 101.374735,25.7832746 C96.732825,25.7787874 93.732402,22.7005893 93.732402,18.0339332 Z M105.769974,16.4948342 C105.563667,14.1256088 103.944604,12.6134328 101.316431,12.6134328 C98.8138359,12.6134328 97.0647104,13.9147119 96.7283401,16.4948342 L105.769974,16.4948342 Z" id="Shape" fill="#FFFFFF"></path>
                <path d="M110.649586,10.5807451 L113.56928,10.5807451 L113.56928,13.0800984 C114.138867,11.4916405 115.70411,10.0288233 118.803202,10.473053 L118.493741,13.2909953 C115.156948,12.6627916 113.56031,14.4621465 113.56031,18.1147023 L113.56031,25.4916086 L110.640616,25.4916086 L110.649586,10.5807451 Z" id="Path" fill="#FFFFFF"></path>
                <path d="M119.978255,10.5807451 L122.884495,10.5807451 L122.884495,13.2730467 C123.56172,11.4198458 125.257026,10.2980534 127.755136,10.2980534 C131.872309,10.2980534 133.778407,12.671766 133.778407,17.392268 L133.778407,25.4691727 L130.858713,25.4691727 L130.858713,17.6435495 C130.858713,14.3858646 129.607416,12.8467656 126.844694,12.8467656 C124.081973,12.8467656 122.884495,14.6999665 122.884495,17.9845744 L122.884495,25.4916086 L119.9648,25.4916086 L119.978255,10.5807451 Z" id="Path" fill="#FFFFFF"></path>
                <path d="M135.823539,18.68906 L135.823539,10.5807451 L138.743233,10.5807451 L138.743233,18.45124 C138.743233,21.686489 139.913801,23.2255881 142.730342,23.2255881 C145.546883,23.2255881 146.690542,21.3723872 146.690542,18.0877793 L146.690542,10.5807451 L149.610236,10.5807451 L149.610236,25.4916086 L146.690542,25.4916086 L146.690542,22.799307 C146.040226,24.6480207 144.31801,25.7967361 141.842325,25.7967361 C137.725152,25.7787874 135.823539,23.3781518 135.823539,18.68906 Z" id="Path" fill="#FFFFFF"></path>
                <path d="M152.399867,10.5807451 L155.319561,10.5807451 L155.319561,13.3942002 C155.839814,11.4647175 157.530635,10.3160021 159.853833,10.3160021 C162.351943,10.3160021 163.576331,11.2583077 164.388104,13.865353 C165.087755,11.5948454 167.079067,10.2756176 169.859728,10.2756176 C173.61362,10.2756176 175.174379,12.5192022 175.174379,17.9038053 L175.174379,25.4916086 L172.254684,25.4916086 L172.254684,18.1416253 C172.254684,14.3320186 171.267998,12.8198426 168.792313,12.8198426 C166.235899,12.8198426 165.168483,14.3858646 165.168483,18.0877793 L165.168483,25.4916086 L162.248789,25.4916086 L162.248789,18.1640612 C162.248789,14.2557367 161.351802,12.8467656 158.938906,12.8467656 C156.413886,12.8467656 155.319561,14.5429156 155.319561,18.3749581 L155.319561,25.4916086 L152.399867,25.4916086 L152.399867,10.5807451 Z" id="Path" fill="#FFFFFF"></path>
                <path d="M199.227097,20.7486706 L187.705293,20.7486706 L185.570463,25.4916086 L184.39541,25.4916086 L192.997519,6.61408749 L193.934871,6.61408749 L202.536981,25.4916086 L201.370897,25.4916086 L199.227097,20.7486706 Z M198.756179,19.7031602 L193.468438,7.89293072 L188.176212,19.7031602 L198.756179,19.7031602 Z" id="Shape" fill="#FFFFFF"></path>
                <path d="M202.536981,18.0339332 C202.536981,13.546764 205.50601,10.2935663 209.677001,10.2935663 C212.816457,10.2935663 215.099291,11.7788193 216.346103,14.6191974 L215.381842,15.0095812 C214.461836,12.6896893 212.168596,11.2124109 209.677001,11.3345895 C206.089052,11.3345895 203.577487,14.0986858 203.577487,18.0339332 C203.577487,21.9691807 206.106991,24.7377641 209.677001,24.7377641 C212.336569,24.7377641 214.341336,23.4589209 215.381842,21.0582853 L216.346103,21.4531562 C215.148625,24.2396883 212.803003,25.7787874 209.677001,25.7787874 C205.50601,25.7787874 202.536981,22.5480255 202.536981,18.0339332 Z" id="Path" fill="#FFFFFF"></path>
                <path d="M217.781283,18.0339332 C217.781283,12.6493301 221.369233,10.2935663 225.002032,10.2935663 C227.764754,10.2935663 230.18662,11.6397171 231.23161,14.6191974 L231.23161,10.5807451 L232.272116,10.5807451 L232.272116,25.4646855 L231.23161,25.4646855 L231.23161,21.5025151 C230.213529,24.4775083 227.791663,25.8326334 225.051366,25.8326334 C221.351293,25.8326334 217.781283,23.4589209 217.781283,18.0339332 Z M231.236095,18.0339332 C231.236095,13.9416349 228.76041,11.3345895 225.006517,11.3345895 C221.252625,11.3345895 218.826273,13.9102247 218.826273,18.0339332 C218.826273,22.1576418 221.24814,24.787123 225.051366,24.787123 C228.778349,24.787123 231.23161,22.1800776 231.23161,18.0339332 L231.236095,18.0339332 Z" id="Shape" fill="#FFFFFF"></path>
                <path d="M234.850954,18.0339332 C234.850954,12.6493301 238.438904,10.2935663 242.071704,10.2935663 C244.834425,10.2935663 247.283201,11.6397171 248.301281,14.6191974 L248.301281,5.73011514 L249.359727,5.73011514 L249.359727,25.4736599 L248.319221,25.4736599 L248.319221,21.5025151 C247.30114,24.4775083 244.879274,25.8326334 242.143463,25.8326334 C238.420965,25.8326334 234.850954,23.4589209 234.850954,18.0339332 Z M248.305766,18.0339332 C248.305766,13.9416349 245.852506,11.3345895 242.076188,11.3345895 C238.299871,11.3345895 235.904915,13.9102247 235.904915,18.0339332 C235.904915,22.1576418 238.326781,24.787123 242.134493,24.787123 C245.942204,24.787123 248.301281,22.1800776 248.301281,18.0339332 L248.305766,18.0339332 Z" id="Shape" fill="#FFFFFF"></path>
                <path d="M251.925111,18.0339332 C251.925111,13.4480463 254.894139,10.2935663 259.222104,10.2935663 C263.675647,10.2935663 266.492187,13.3403542 266.281395,17.9845744 L252.947677,17.9845744 C252.947677,22.1307188 255.423362,24.7377641 259.356652,24.7377641 C262.047614,24.7377641 263.78777,23.6159718 264.962824,21.632643 L265.927085,22.0499497 C264.581604,24.4236623 262.487138,25.7787874 259.356652,25.7787874 C254.86723,25.7787874 251.925111,22.7005893 251.925111,18.0339332 Z M265.18707,16.9390639 C265.057007,13.5243281 262.765204,11.3345895 259.222104,11.3345895 C255.831491,11.3345895 253.436535,13.5512512 253.04186,16.9390639 L265.18707,16.9390639 Z" id="Shape" fill="#FFFFFF"></path>
                <path d="M268.644957,10.5807451 L269.689948,10.5807451 L269.689948,14.4352235 C270.2102,12.0390751 271.954841,10.3429251 274.560589,10.3429251 C277.534103,10.3429251 278.942373,11.8820242 279.619599,14.7224023 C280.243005,11.8281782 282.068375,10.2935663 285.091222,10.2935663 C289.181485,10.2935663 290.509027,13.1339444 290.509027,18.4288041 L290.509027,25.4916086 L289.468521,25.4916086 L289.468521,18.4288041 C289.468521,13.7083021 288.297952,11.3345895 284.831096,11.3345895 C281.364239,11.3345895 279.982879,13.6544561 279.982879,18.478163 L279.982879,25.4916086 L278.942373,25.4916086 L278.942373,18.478163 C278.942373,13.7576609 278.045386,11.3884356 274.560589,11.3884356 C271.075793,11.3884356 269.689948,13.9685579 269.689948,18.7922649 L269.689948,25.4916086 L268.644957,25.4916086 L268.644957,10.5807451 Z" id="Path" fill="#FFFFFF"></path>
                <polygon id="Path" fill="#FFFFFF" points="297.949538 25.3345576 291.015824 10.5807451 292.186393 10.5807451 298.4967 24.1903295 304.829431 10.5807451 306 10.5807451 296.72515 30.3242898 295.62634 30.3242898"></polygon>
            </g>
        </g>
    </g>
</svg>