<svg xmlns="http://www.w3.org/2000/svg" viewBox="0 0 502.51 186.99"><defs><style>.cls-1{fill:#fff;}</style></defs><g id="Capa_2" data-name="Capa 2"><g id="Capa_1-2" data-name="Capa 1"><path class="cls-1" d="M29.57,160.53a37.83,37.83,0,0,1-3.84,0,1.46,1.46,0,0,0-1.67,1.1c-2.22,5.38-4.5,10.74-6.76,16.1-.32.74-.66,1.47-1.06,2.37-.26-.56-.44-.92-.59-1.28q-3.72-8.69-7.43-17.38a1.16,1.16,0,0,0-1.3-.9c-1.36.06-2.72,0-4.08,0-.66,0-.89.17-.89.87q0,12.1,0,24.2c0,.61.15.88.8.84a17.66,17.66,0,0,1,2.52,0c.83.07,1-.28,1-1,0-5.35,0-10.7,0-16.06v-1.26a1.58,1.58,0,0,1,.57.89q3.14,7.38,6.27,14.75c1.17,2.76,1.18,2.73,4.16,2.72a1.15,1.15,0,0,0,1.24-.82c1.27-3.06,2.57-6.1,3.87-9.15L26,168l.2,0v1.14c0,4.67,0,9.35,0,14,0,1.06-.49,2.51.24,3.08s2.06.13,3.13.2c.7,0,1-.13,1-.91q0-12,0-24.09C30.56,160.65,30.25,160.51,29.57,160.53Z"/><path class="cls-1" d="M220,160.75c-.64-.64-2-.09-3-.22s-1.17.32-1.16,1.21c0,5.2,0,10.39,0,15.58,0,.35.17.76-.23,1.14-.26-.38-.49-.7-.7-1q-4.29-6.63-8.59-13.27c-.76-1.17-1.29-2.72-2.36-3.4s-2.8-.11-4.22-.23c-1.06-.09-1.41.2-1.4,1.34.05,7.19,0,14.38,0,21.57,0,3,0,2.95,3.05,3,1.07,0,1.33-.28,1.32-1.33,0-5.94,0-11.89,0-18.21.45.65.7,1,.94,1.36,3.38,5.13,6.88,10.2,10.08,15.44,1.31,2.15,2.74,3.11,5.24,2.76,1-.14,1.25-.29,1.24-1.28,0-7.15,0-14.3,0-21.45C220.23,162.73,220.68,161.4,220,160.75Z"/><path class="cls-1" d="M334.75,164.25a7.88,7.88,0,0,1,8.15,3.58c.94,1.57.94,1.57,2.76.91,2.51-.92,2.51-.93,1-3.26-3.58-5.63-11.91-7.25-17.85-3.36-5.06,3.33-6.54,8.25-5.67,14,.74,4.82,3.37,8.37,8.05,10s8.88,1.23,12.49-2.7c0,.29,0,.41.06.52.21,2.61.21,2.58,2.8,2.52.81,0,1.09-.24,1.08-1.1,0-3.67-.05-7.34,0-11,0-.95-.33-1.1-1.17-1.09-2.92.05-5.84,0-8.76,0s-2.95,0-2.89,2.94c0,.8.32.91,1,.9,1.83,0,3.67,0,5.51,0,.64,0,1.56-.36,1.88.24s-.25,1.43-.59,2.11a5.58,5.58,0,0,1-.39.6c-2.79,3.81-9.55,3.78-12.63-.09-2.12-2.65-2.49-5.7-1.91-8.94A8.32,8.32,0,0,1,334.75,164.25Z"/><path class="cls-1" d="M241.42,164.26a7.88,7.88,0,0,1,8.16,3.55c.95,1.59.95,1.59,2.75.93,2.54-.92,2.54-.92,1.07-3.24-3.92-6.2-13.54-7.4-19.28-2.33-4.35,3.84-5.27,8.79-4,14.19a11.62,11.62,0,0,0,8.56,9c4.33,1.23,8.39.75,11.71-3,.32,3.18.32,3.15,3,3.05.8,0,1-.32,1-1.07,0-3.72,0-7.43,0-11.14,0-.81-.26-1-1-1-3,0-5.92,0-8.87,0s-3.06,0-2.92,3c0,.65.25.81.85.8,1.92,0,3.84,0,5.76,0,2.14,0,2.34.33,1.26,2.23a6.88,6.88,0,0,1-1,1.34c-3.1,3.23-9.22,2.89-12.08-.68a10.6,10.6,0,0,1-1.92-8.94A8.29,8.29,0,0,1,241.42,164.26Z"/><path class="cls-1" d="M111.48,173.09a1.38,1.38,0,0,1,.16-2.18c2.38-2.47,4.68-5,7-7.55.81-.88,1.6-1.78,2.54-2.82-1.9,0-3.54,0-5.18,0a1.47,1.47,0,0,0-1.22.59c-1.57,1.76-3.13,3.52-4.71,5.27l-5.9,6.51c0-4,0-7.64,0-11.28,0-.8-.16-1.18-1-1.09a10.4,10.4,0,0,1-2.16,0c-.95-.11-1.19.25-1.18,1.19,0,7.22,0,14.45,0,21.68,0,3,0,3,3,3,1,0,1.5-.16,1.35-1.29-.11-.74.08-1.53,0-2.27a6.84,6.84,0,0,1,2.61-6.71c.73-.64,1-.8,1.63.09,2.19,3.14,4.46,6.23,6.71,9.33.23.32.38.79.83.8,1.72,0,3.45,0,5.33,0-.27-.41-.39-.61-.53-.8C117.66,181.43,114.61,177.23,111.48,173.09Z"/><path class="cls-1" d="M144.54,182.3c-3.2.06-6.4,0-9.6,0-.75,0-1.07-.17-1-1,.06-1.68.06-3.36,0-5,0-.77.27-.94,1-.93,2.2,0,4.4,0,6.6,0,3.09,0,3.05,0,3-3.05,0-.81-.26-1-1-1-2.84,0-5.67,0-8.51,0-.75,0-1.08-.16-1-1,.06-1.59.06-3.19,0-4.79,0-.8.25-1,1-1,2.59,0,5.19,0,7.79,0,2.94,0,2.9,0,2.94-2.89,0-.91-.19-1.22-1.17-1.21-4.55.06-9.11,0-13.67,0-1,0-1.29.19-1.27,1.23.06,3.91,0,7.82,0,11.74s.07,7.67,0,11.5c0,1.28.38,1.49,1.53,1.46,3.87-.07,7.75,0,11.63,0,3,0,2.94,0,3-3C145.67,182.55,145.45,182.29,144.54,182.3Z"/><path class="cls-1" d="M173.46,160.52c-5.71,0-11.42,0-17.13,0-3.13,0-3.1,0-3.06,3.14,0,.81.28,1,1,1,2.07,0,4.15,0,6.23,0,.94,0,1.21.23,1.2,1.19-.05,5.78,0,11.57,0,17.35,0,1-.34,2.4.18,3s2,.12,3.08.26,1.11-.31,1.1-1.16c0-3.23,0-6.46,0-9.69s0-6.63,0-9.94c0-.78.22-1.05,1-1,1.56.06,3.11,0,4.67,0,2.92,0,2.88,0,2.93-2.93C174.67,160.78,174.41,160.52,173.46,160.52Z"/><path class="cls-1" d="M390.78,160.52c-5.71,0-11.42,0-17.13,0-3.13,0-3.1,0-3.06,3.14,0,.82.3,1,1,1,2.08,0,4.16,0,6.23,0,.95,0,1.21.24,1.2,1.19,0,5.79,0,11.57,0,17.36,0,1-.33,2.39.19,3s2,.12,3.08.26,1.1-.33,1.09-1.16c0-3.23,0-6.47,0-9.7s0-6.62,0-9.93c0-.79.23-1,1-1,1.55.06,3.11,0,4.67,0,2.92,0,2.88,0,2.92-2.93C392,160.77,391.73,160.52,390.78,160.52Z"/><path class="cls-1" d="M444,182.26c-3.16,0-6.32,0-9.47.05-1.27,0-1.51-.38-1.5-1.56.06-5.67,0-11.34,0-17,0-1,.45-2.35-.21-3s-2-.09-3-.22-1.15.35-1.15,1.22c0,3.91,0,7.83,0,11.74s0,7.91,0,11.86c0,.9.23,1.14,1.13,1.13,4,0,8.08,0,12.11,0,3.17,0,3.14,0,3.11-3.21C445,182.44,444.73,182.25,444,182.26Z"/><path class="cls-1" d="M313.57,160.78c-.68-.69-2.05-.11-3.1-.25s-1.26.23-1.26,1.23c.05,7.1,0,14.2,0,21.3,0,1.07-.35,2.49.19,3.12s2.11.13,3.2.26c.89.1,1.16-.2,1.15-1.11,0-4,0-7.9,0-11.85,0-3.23,0-6.46,0-9.69C313.74,162.76,314.19,161.42,313.57,160.78Z"/><path class="cls-1" d="M362,160.78c-.68-.69-2-.11-3.1-.25s-1.26.24-1.25,1.24c0,7.1,0,14.2,0,21.3,0,1.07-.45,2.47.18,3.12s2.11.12,3.21.25c.89.1,1.16-.21,1.14-1.12-.05-3.94,0-7.89,0-11.84,0-3.23,0-6.47,0-9.7C362.2,162.76,362.65,161.42,362,160.78Z"/><path class="cls-1" d="M186.53,160.53a9.19,9.19,0,0,1-2,0c-1.12-.14-1.49.19-1.47,1.39.08,4.59,0,9.18,0,13.76,0,3.27,0,6.55,0,9.82,0,.72.18,1,.94.94a17.76,17.76,0,0,1,2.63,0c.83.07,1-.28,1-1,0-3.95,0-7.9,0-11.85s0-8,0-12C187.61,160.76,187.37,160.45,186.53,160.53Z"/><path class="cls-1" d="M289.56,160.75c-3.6-.51-7.25-.1-10.88-.21-.81,0-.62.55-.62,1q0,6,0,12c0,3.95,0,7.9,0,11.85,0,.8.15,1.12,1,1.1,2.95-.06,5.91.05,8.86,0a12,12,0,0,0,8.51-3.55c2.94-3,3.62-6.71,3.43-10.7A11.71,11.71,0,0,0,289.56,160.75Zm5.12,16.51a7.49,7.49,0,0,1-6.86,5.08c-1.51.06-3,0-4.55,0-.68,0-.89-.22-.88-.89,0-2.67,0-5.34,0-8s0-5.19,0-7.78c0-.8.16-1.13,1-1.09,1.67.08,3.37-.12,5,.11,4.06.58,6.54,3.52,6.83,7.84A11.6,11.6,0,0,1,294.68,177.26Z"/><path class="cls-1" d="M85.52,175.45a7.37,7.37,0,0,0,4.8-8.48,7.52,7.52,0,0,0-7.64-6.42c-3.12,0-6.24,0-9.35,0-.94,0-1.11.3-1.1,1.15,0,7.15,0,14.3,0,21.45,0,1.06-.46,2.45.21,3.1s2.06.11,3.12.22c.84.08,1.09-.24,1.08-1.07,0-2.72,0-5.43,0-8.15,0-.34-.1-.74.25-1,.77-.53,3.07.1,3.52,1q2.27,4.22,4.52,8.43c.23.42.38.85,1,.83,1.43,0,2.87,0,4.5,0-1.87-3.4-3.59-6.59-5.38-9.74C84.65,176,84.75,175.75,85.52,175.45Zm-2.81-3.34a16.35,16.35,0,0,1-3,.18c-3.09,0-3.09,0-3.09-3,0-1.36,0-2.71.06-4.07,0-.4,0-.84.61-.82a33.22,33.22,0,0,1,5.37.19,3.8,3.8,0,0,1,3.23,3.76A3.75,3.75,0,0,1,82.71,172.11Z"/><path class="cls-1" d="M55.5,164.32c-.5-1.25-.59-3-1.65-3.59s-2.73-.12-4.12-.2a1.06,1.06,0,0,0-1.21.84c-.7,1.87-1.43,3.72-2.16,5.57q-3.6,9.24-7.23,18.47c-.29.74-.31,1.1.65,1a25.16,25.16,0,0,1,2.88,0,1,1,0,0,0,1.11-.79c.58-1.66,1.25-3.28,1.83-4.93a1,1,0,0,1,1.12-.78c3.12,0,6.23,0,9.35,0a.94.94,0,0,1,1,.73c.62,1.68,1.29,3.34,1.9,5,.17.46.35.75.91.74,1.35,0,2.71,0,4.15,0a8.82,8.82,0,0,0-.27-1Q59.65,174.88,55.5,164.32Zm-8,11.51c1.27-3.4,2.51-6.7,3.74-10l.28,0c1.25,3.32,2.49,6.63,3.76,10Z"/><path class="cls-1" d="M411.72,164.34c-.5-1.25-.6-3-1.64-3.6s-2.64-.11-4-.22c-.87-.06-1.16.34-1.43,1-1.44,3.76-2.92,7.5-4.39,11.24-1.64,4.19-3.25,8.39-4.93,12.57-.34.87-.18,1.12.74,1.06a21,21,0,0,1,2.63,0,1.1,1.1,0,0,0,1.31-.87c.53-1.59,1.19-3.13,1.74-4.71a1.12,1.12,0,0,1,1.26-.92c3,.05,6.07,0,9.1,0,.65,0,1,.15,1.23.81.36,1.14.83,2.24,1.25,3.36.85,2.32.85,2.32,3.28,2.32a9.59,9.59,0,0,1,1.2,0c1,.12,1.28-.11.85-1.19C417.15,178.3,414.46,171.31,411.72,164.34Zm-7.37,11.54c-.33,0-.69,0-.5-.5,1.19-3.19,2.38-6.38,3.86-9.57,1.23,3.29,2.47,6.58,3.77,10.07Z"/><rect class="cls-1" x="431.65" y="0.26" width="15.68" height="133.5"/><path class="cls-1" d="M40.2,53.37a40,40,0,0,0-24.52,8.35V0H0V93.89H0A40.19,40.19,0,1,0,40.2,53.37Zm0,64.39A24.2,24.2,0,1,1,64.39,93.57,24.22,24.22,0,0,1,40.2,117.76Z"/><path class="cls-1" d="M168.72,93.57a40.2,40.2,0,1,0-40.19,40.19A40.19,40.19,0,0,0,168.72,93.57Zm-40.19,24.19a24.2,24.2,0,1,1,24.19-24.19A24.22,24.22,0,0,1,128.53,117.76Z"/><path class="cls-1" d="M402.69,125.88v7.88h15.68V93.89a40.55,40.55,0,1,0-15.68,32Zm-49.22-32a24.39,24.39,0,1,1,24.39,24.39A24.42,24.42,0,0,1,353.47,93.89Z"/><path class="cls-1" d="M216.5,69.32a18.75,18.75,0,0,1,13.3,5.51,18.37,18.37,0,0,1,2.34,2.86l12.6-10.37a36.81,36.81,0,0,0-2.51-2.78,36.37,36.37,0,0,0-44.65-5.35V53.37H181.91V79h0v54.74h15.67V88.12A18.91,18.91,0,0,1,216.5,69.32Z"/><path class="cls-1" d="M305.27,110.24a24.17,24.17,0,0,1-41.12-11.41h63.47a41.49,41.49,0,0,0,.34-5.26,40.16,40.16,0,1,0-3.61,16.67ZM287.76,69.37a24.22,24.22,0,0,1,21.8,13.7H266A24.24,24.24,0,0,1,287.76,69.37Z"/><path class="cls-1" d="M485.11.65l-1.45,4.52c-.45,1.52-.91,3.32-1.3,4.89h-.06c-.3-1.59-.72-3.29-1.15-4.86L479.82.65h-4.1l-.87,13.61h2.85l.24-5.17c.1-1.69.16-3.79.25-5.63h0c.32,1.78.78,3.71,1.23,5.31L480.91,14h2.4L485,8.73c.52-1.6,1.09-3.53,1.51-5.27h.06c0,2,.06,4,.12,5.59l.21,5.21h3L489.13.65Z"/><path class="cls-1" d="M501.4,10.42a3.43,3.43,0,0,0-1.81-2.54V7.82A3.61,3.61,0,0,0,502,4.47a3.49,3.49,0,0,0-1.25-2.85c-1-.77-2.39-1.07-4.4-1.07a27.27,27.27,0,0,0-4.1.28V14.26h3.05V8.91h.92c1.26,0,1.84.48,2.21,2.18a16.94,16.94,0,0,0,.94,3.17h3.15C502.25,13.73,501.83,12,501.4,10.42Zm-4.9-3.73h-1.21V2.93a7.66,7.66,0,0,1,1.39-.1c1.41,0,2.26.65,2.26,1.9S498,6.69,496.5,6.69Z"/></g></g></svg>