<?xml version="1.0" encoding="UTF-8"?>
<svg width="100px" height="100px" viewBox="0 0 100 100" version="1.1" xmlns="http://www.w3.org/2000/svg" xmlns:xlink="http://www.w3.org/1999/xlink">
    <title>Combined Shape 2 Copy 4</title>
    <defs>
        <linearGradient x1="0%" y1="100%" x2="100%" y2="100%" id="linearGradient-1">
            <stop stop-color="#4E82E7" offset="0%"></stop>
            <stop stop-color="#6039E4" offset="48.2604554%"></stop>
            <stop stop-color="#771EE3" offset="100%"></stop>
        </linearGradient>
    </defs>
    <g id="Page-1" stroke="none" stroke-width="1" fill="none" fill-rule="evenodd">
        <g id="Combined-Shape-2-Copy-4" fill="url(#linearGradient-1)" fill-rule="nonzero">
            <path d="M53.9095276,0 C54.101056,0.0877577852 54.3025105,0.15198966 54.5094885,0.191291872 C59.9912562,0.605722355 65.3534445,2.00481023 70.3388909,4.3214573 C85.9755523,11.6586599 95.5705787,23.7730873 99.1239702,40.6647393 C99.4956851,42.453753 99.7065409,44.2775471 99.9913049,46.083951 L99.9913049,46.083951 L99.9913049,53.6964981 C99.8282721,54.9029411 99.6913245,56.1137317 99.5022064,57.3158272 C98.1044714,66.1196009 94.7568637,74.0973415 89.1594026,81.0534096 C81.3925179,90.7158229 71.4192553,96.7893398 59.2200509,99.1304915 C57.3853879,99.4848162 55.5333348,99.7130622 53.6899767,100 L53.6899767,100 L46.0817773,100 C45.8145102,99.9117643 45.5423272,99.8391822 45.266613,99.7826229 C43.5189009,99.5239441 41.7494511,99.3696063 40.0234767,99.0131078 C31.2023129,97.1958351 23.3854314,93.3243484 16.6815208,87.3008282 C8.28061938,79.7419009 3.00994863,70.4185959 0.86950851,59.3309132 C0.523878877,57.5353781 0.286937808,55.7181053 0,53.9095276 L0,53.9095276 L0,46.083951 C0.165206617,44.9122883 0.313023064,43.7384518 0.499967393,42.5689629 C2.0889942,32.6500446 6.13655631,23.8788775 12.9100276,16.4380584 C20.4356238,8.16903245 29.6821222,2.97951583 40.6495229,0.86950851 C42.4559268,0.526052649 44.2753733,0.28911158 46.083951,0 L46.083951,0 Z M49.9728279,2.65852227 C23.7614938,2.66286981 2.84764037,23.5658544 2.60852553,49.9967393 C2.82590266,76.1689455 23.398474,97.0762776 49.5163359,97.3262613 C76.2015521,97.5827663 97.3045236,76.3667587 97.3328111,50.0706476 C97.3610417,23.7745364 76.3428472,2.65852227 49.9728279,2.65852227 Z M50.1858574,13.8856332 C69.8780514,13.9773493 86.4204508,30.3110667 86.1009065,50.6184379 C85.7944047,70.1475991 69.6019825,86.4161033 49.4119949,86.105254 C29.8371845,85.8052736 13.7991001,69.7041497 13.9114382,49.9967393 C13.7882312,30.1328174 30.1784666,13.790405 50.1858574,13.8856332 Z M51.3075234,16.6402191 L51.3075234,23.7419299 C51.3140447,24.65274 50.9336348,25.2396583 49.9815229,25.2157468 C49.0294111,25.1918353 48.6772602,24.5636154 48.6924766,23.6941069 C48.707693,22.8245984 48.6924766,21.9550899 48.6924766,21.0855814 L48.6924766,21.0855814 L48.6924766,16.6967372 C40.4538834,17.1727931 33.4086907,20.0617351 27.3156099,25.5852879 C29.0502793,27.2916984 30.7306045,28.939417 32.4000609,30.5980045 C33.0217595,31.2153555 33.1978349,31.904441 32.5326609,32.6043954 C31.8674869,33.3043497 31.1653588,33.1282742 30.5349651,32.5217921 C29.8545747,31.8696607 29.1980958,31.1936178 28.530748,30.5284438 L28.530748,30.5284438 L25.4461666,27.4438624 C19.9834793,33.5804187 17.0293242,40.5408343 16.6554355,48.7011717 C19.1726627,48.7011717 21.5203356,48.6903028 23.8680086,48.7011717 C24.7462122,48.7055192 25.2266157,49.1815751 25.2048779,50.0510836 C25.1831402,50.8662479 24.6962155,51.3010021 23.8788775,51.3010021 L23.8788775,51.3010021 L16.6967372,51.3010021 C17.1727931,59.561333 20.0639089,66.5956568 25.5983305,72.6909115 C26.2200291,72.0322588 26.7482555,71.4388192 27.3069148,70.8714649 C28.4003217,69.7628416 29.4980762,68.6585657 30.6153946,67.5716801 C31.2153555,66.9869356 31.9109623,66.8891159 32.5543986,67.4760342 C33.1978349,68.0629524 33.130448,68.7563855 32.5674413,69.397648 C32.3522379,69.6411104 32.1152968,69.8671826 31.8848771,70.0954286 C30.4241028,71.5409865 28.9611547,72.9843706 27.5112493,74.4168859 C31.3023064,79.0752777 42.4081038,83.6858466 48.6924766,83.2206595 L48.6924766,83.2206595 L48.6924766,76.525444 C48.6946503,75.3255222 49.0815816,74.8016434 49.9663065,74.786427 C50.9010282,74.7690368 51.3010021,75.3016108 51.3010021,76.5863096 L51.3010021,76.5863096 L51.3010021,83.3663022 C59.5678543,82.9445906 66.593483,80.0121731 72.7126492,74.4668826 C72.3191966,74.1190792 72.001826,73.8756168 71.7214095,73.5973741 C70.3330942,72.2206523 68.9505757,70.8366846 67.5738539,69.4454709 C66.973893,68.836815 66.9043323,68.1281656 67.4977719,67.5195096 C68.0912114,66.9108536 68.7933396,66.9717192 69.4237332,67.5521162 C69.6889333,67.7977523 69.9432646,68.0564311 70.1975958,68.3151099 C71.6040258,69.7563202 73.0082821,71.1997044 74.4777515,72.7083016 C80.0121731,66.5347912 82.9641545,59.5287264 83.3423907,51.3010021 L83.3423907,51.3010021 L82.1489903,51.3010021 C80.155642,51.3010021 78.1644675,51.3227398 76.1711193,51.3010021 C75.1733583,51.2836119 74.5603548,50.5575723 74.814686,49.6706737 C75.0124992,48.9381127 75.5428994,48.6837815 76.2928505,48.6837815 C78.6013956,48.6989979 80.9121144,48.6837815 83.3554333,48.6837815 C82.9576332,40.4343195 80.0186944,33.3999957 74.5081842,27.3134361 C72.771341,29.0763646 71.1714453,30.7458209 69.4867726,32.3370215 C69.0627803,32.6885542 68.5108416,32.846251 67.9651327,32.7717758 C67.610808,32.7022151 67.1695324,32.1196444 67.126057,31.7001065 C67.0825816,31.2805687 67.4129948,30.7436472 67.734713,30.4110601 C69.3367824,28.758994 70.9888486,27.1590983 72.6778688,25.4831207 C66.5543552,19.9791318 59.5569854,17.0488881 51.3075234,16.6402191 L51.3075234,16.6402191 Z M49.9793492,36.5212948 C50.8858118,36.5084886 51.3031759,37.0345412 51.3031759,38.2192466 C51.3075234,41.6603265 51.2792644,45.0992327 51.3336087,48.5403126 C51.3612831,49.0908801 51.5804132,49.6144857 51.9531335,50.0206508 C55.4311675,53.5617242 58.9439819,57.0571484 62.450275,60.5677891 C62.6546095,60.7721236 62.8632915,60.9721105 63.0632785,61.1894876 C63.6393279,61.8242289 63.6958459,62.5111406 63.0763211,63.1111014 C62.4567963,63.7110623 61.7677108,63.6132426 61.1525335,63.0263244 C60.8895072,62.7763407 60.6373497,62.5176619 60.3808447,62.2611569 C56.7441254,58.6266113 53.1182749,54.9790231 49.4619916,51.3640415 C48.9254184,50.878375 48.6376824,50.1758195 48.6794339,49.4532965 C48.7316045,47.6077647 48.6968241,45.7600591 48.6968241,43.9123535 L48.6968241,43.9123535 L48.6968241,38.2605482 C48.6989979,37.0562789 49.0728866,36.5345738 49.9793492,36.5212948 Z" id="Combined-Shape"></path>
        </g>
    </g>
</svg>