<?xml version="1.0" encoding="UTF-8"?>
<svg width="54px" height="68px" viewBox="0 0 54 68" version="1.1" xmlns="http://www.w3.org/2000/svg" xmlns:xlink="http://www.w3.org/1999/xlink">
    <title>coin-3</title>
    <defs>
        <linearGradient x1="65.7553909%" y1="135.561353%" x2="33.9903505%" y2="-38.0847427%" id="linearGradient-1">
            <stop stop-color="#BD6517" offset="0%"></stop>
            <stop stop-color="#CD7D29" offset="29%"></stop>
            <stop stop-color="#F7BB57" offset="91%"></stop>
            <stop stop-color="#FEC55E" offset="100%"></stop>
        </linearGradient>
        <linearGradient x1="30.1949741%" y1="61.2692787%" x2="57.7354921%" y2="45.6748897%" id="linearGradient-2">
            <stop stop-color="#F28F3B" offset="0%"></stop>
            <stop stop-color="#F7A74B" offset="49%"></stop>
            <stop stop-color="#FEC55E" offset="100%"></stop>
        </linearGradient>
        <linearGradient x1="30.1959425%" y1="61.281903%" x2="57.730508%" y2="45.6869257%" id="linearGradient-3">
            <stop stop-color="#FEC55E" offset="0%"></stop>
            <stop stop-color="#F7A74B" offset="51%"></stop>
            <stop stop-color="#F28F3B" offset="100%"></stop>
        </linearGradient>
        <linearGradient x1="31.4075001%" y1="67.1821285%" x2="70.6246799%" y2="31.0645124%" id="linearGradient-4">
            <stop stop-color="#F28F3B" offset="0%"></stop>
            <stop stop-color="#F49640" offset="25%"></stop>
            <stop stop-color="#F8AA4C" offset="62%"></stop>
            <stop stop-color="#FEC55E" offset="100%"></stop>
        </linearGradient>
    </defs>
    <g id="Page-1" stroke="none" stroke-width="1" fill="none" fill-rule="evenodd">
        <g id="AETERNUM" transform="translate(-817.000000, -1144.000000)" fill-rule="nonzero">
            <g id="coin-3" transform="translate(817.000000, 1144.028950)">
                <path d="M34.1344937,64.6711761 L34.0943658,64.6711761 C33.8306683,64.6883738 33.5641046,64.69124 33.3004071,64.6883738 L33.1685583,64.6883738 C32.9105934,64.6883738 32.6526285,64.6654435 32.3917972,64.6425133 L32.2484834,64.6281819 C31.9876522,64.5995192 31.7239547,64.5651238 31.4602572,64.5192634 L31.3513387,64.4963332 C31.0819086,64.4476065 30.8096123,64.3902809 30.537316,64.3214903 L30.5143858,64.3214903 C30.3854033,64.287095 30.2535545,64.2412345 30.1217058,64.2039729 C29.989857,64.1667113 29.7777525,64.1093858 29.6029096,64.049194 C29.4280667,63.9890021 29.3363459,63.9488743 29.2044971,63.9001476 C29.0726484,63.8514208 28.8634102,63.7768976 28.6942998,63.708107 C28.5251895,63.6393163 28.4076721,63.5819908 28.2815559,63.5189327 C28.1554397,63.4558746 27.951934,63.3727526 27.7885563,63.2924968 C27.6251785,63.2122411 27.5019285,63.1405841 27.3672135,63.0660609 C27.2324985,62.9915377 27.0433242,62.8969506 26.8828127,62.8023634 C26.7996907,62.756503 26.7194349,62.6991775 26.6363129,62.6504508 C26.409877,62.5128695 26.1834411,62.363823 25.9570052,62.2233755 C25.8394878,62.145986 25.7248368,62.0571314 25.6101857,61.9768756 C25.4181451,61.8421606 25.2261045,61.7074456 25.0369303,61.5641317 L24.6356515,61.2603064 C24.4579423,61.1169925 24.2802331,60.9736787 24.1025239,60.8246323 C23.9706752,60.7128474 23.8416927,60.5924638 23.7127103,60.4749465 C23.5407336,60.3230338 23.3716233,60.1711211 23.2025129,60.0106096 C22.9588794,59.7784411 22.7152458,59.5405401 22.4744786,59.291174 L22.3970891,59.208052 C22.1677869,58.9672847 21.9384847,58.7179186 21.7091826,58.4599537 L21.5142757,58.2363841 C21.2649096,57.9497563 21.0155435,57.6631286 20.7690437,57.3421056 C20.5225439,57.0210826 20.2387824,56.6627979 19.9808175,56.3102459 C19.8948292,56.1927285 19.8145734,56.0723449 19.7285851,55.9519612 C19.5594748,55.7140602 19.3903644,55.4790255 19.2269866,55.235392 C19.1295332,55.0892118 19.0378123,54.9487642 18.9403589,54.791119 C18.7941788,54.5675494 18.6537312,54.3439798 18.5075511,54.1146776 L18.2209234,53.6274105 C18.0862084,53.4009746 17.9514933,53.1745387 17.8196446,52.9452366 L17.6018075,52.5496903 C17.4642262,52.3003242 17.3151798,52.0480918 17.1947962,51.7929932 C17.120273,51.6525456 17.0457498,51.5063655 16.9740928,51.3659179 C16.8422441,51.107953 16.7103954,50.8442555 16.5842792,50.5776917 C16.5183548,50.445843 16.4552967,50.3111279 16.3922386,50.1764129 C16.2374596,49.8467911 16.085547,49.5114366 15.9365005,49.1732159 C15.9078378,49.1044253 15.8763087,49.0385009 15.847646,48.9697103 C15.6699368,48.5626989 15.499871,48.1518659 15.3374486,47.7372111 C15.2887219,47.6168275 15.2457278,47.4993101 15.1998673,47.3789265 C15.08235,47.0779674 14.9676989,46.7770083 14.8559141,46.4731829 C14.8014548,46.3212702 14.7469956,46.1664913 14.6954026,46.0145786 C14.5950829,45.7279509 14.5004957,45.4413232 14.4087749,45.1690269 L14.2539959,44.6989574 C14.162275,44.4104189 14.0734204,44.1237912 13.9874321,43.8390743 C13.9387054,43.6842953 13.892845,43.5295164 13.8469846,43.3718711 C13.7437986,43.0221853 13.6492114,42.6724995 13.5603568,42.3199474 L13.4829674,42.0333197 C13.36545,41.5833142 13.2536652,41.1333087 13.1504792,40.680437 C13.1218165,40.557187 13.09602,40.4339371 13.0673572,40.3106872 C12.992834,39.9781991 12.9211771,39.6457109 12.8523864,39.3103565 C12.8179911,39.1441124 12.786462,38.9750021 12.754933,38.8058918 C12.6976074,38.519264 12.6431482,38.2326363 12.5915552,37.9259447 C12.5600261,37.7453692 12.5284971,37.5676601 12.4998343,37.3870846 C12.4501522,37.098546 12.4042918,36.8119183 12.362253,36.5272015 C12.3364565,36.3494923 12.3077938,36.1717831 12.2848635,35.9940739 C12.2418694,35.6873823 12.2046078,35.3806906 12.1673462,35.0768653 C12.1472822,34.9163538 12.124352,34.7558422 12.1071544,34.5953307 C12.0842242,34.3860925 12.0670265,34.1797206 12.0440963,33.9704823 C12.0125672,33.646593 11.9810382,33.3227037 11.9552417,32.9988144 C11.9351777,32.7838436 11.9237126,32.5660066 11.906515,32.3510358 C11.886451,32.0414779 11.8663871,31.7319199 11.8491894,31.4252283 C11.8491894,31.2016587 11.8291255,30.9780891 11.8205267,30.7545194 C11.8205267,30.4535604 11.8004627,30.1526013 11.7947302,29.8487759 C11.7947302,29.6252063 11.7947302,29.3987704 11.7947302,29.1752008 C11.7947302,28.8885731 11.7947302,28.5761489 11.7947302,28.2780561 C11.7947302,28.0458876 11.7947302,27.8165854 11.7947302,27.5872833 L11.8205267,26.8449175 C11.8205267,26.6022394 11.8319918,26.3586058 11.854922,26.1140169 C11.854922,25.8703833 11.8835848,25.6238835 11.9007824,25.3802499 C11.9179801,25.1366164 11.9351777,24.8958491 11.9552417,24.6579481 C11.9753056,24.4200471 12.0011021,24.170681 12.0240323,23.9299137 L12.1014218,23.2133445 C12.1300846,22.9725772 12.1616136,22.7346762 12.196009,22.4967752 C12.2304043,22.2588742 12.2590671,22.0353046 12.2934624,21.8088687 C12.3364565,21.522241 12.382317,21.2356133 12.4310437,20.9661832 C12.465439,20.756945 12.5027006,20.5477068 12.5399622,20.3384686 C12.5944215,20.0518408 12.6546133,19.7652131 12.7148051,19.4785854 C12.754933,19.2808123 12.7950609,19.0801729 12.8409213,18.8852661 C12.9068457,18.5986384 12.9813689,18.2976793 13.0558921,18.005319 C13.1017525,17.8276098 13.1418804,17.6499007 13.1906071,17.4721915 C13.2794617,17.1368371 13.3797814,16.8043489 13.4772348,16.4718608 C13.5144964,16.3457446 13.5488917,16.2167621 13.5890196,16.0935122 C13.6807405,15.8068845 13.7810602,15.5059254 13.8756473,15.2164314 C13.924374,15.0759838 13.9702345,14.9298037 14.0189612,14.7922224 C14.1737401,14.3622808 14.3361625,13.9399827 14.5062283,13.5253279 C17.1976625,6.97588482 21.4254211,3.28698622 26.0831214,2.63347505 L14.2941238,4.32457852 C9.63355725,4.99242108 5.40866484,8.68131968 2.71723067,15.2307628 C2.54525404,15.646373 2.38474253,16.0677157 2.22996357,16.494791 C2.17837058,16.6381048 2.13251014,16.7814187 2.08091716,16.9304651 C1.98346374,17.2170928 1.88314404,17.5037205 1.79428945,17.7903482 C1.79428945,17.7903482 1.79428945,17.8132784 1.79428945,17.8247436 C1.75989412,17.9365284 1.72836508,18.0540457 1.69396975,18.1686968 C1.59365005,18.5011849 1.49619663,18.8336731 1.40734204,19.1690275 C1.36148161,19.3467367 1.31848746,19.5244459 1.27262702,19.702155 C1.19810382,19.9887827 1.12644689,20.2754105 1.05765624,20.5821021 C1.01179581,20.7770089 0.974534206,20.9776483 0.93154005,21.1754215 C0.871348231,21.4620492 0.811156413,21.7486769 0.759563425,22.0353046 C0.719435546,22.2445428 0.685040221,22.453781 0.647778619,22.6630193 C0.599051909,22.949647 0.553191476,23.2219433 0.51019732,23.5057047 C0.495865934,23.5945593 0.478668272,23.6805476 0.467203163,23.7694022 C0.447139224,23.9098498 0.429941561,24.0560299 0.412743899,24.1936112 C0.381214851,24.4315122 0.349685803,24.6694132 0.321023033,24.9101805 C0.292360262,25.1509478 0.266563768,25.3888488 0.243633551,25.6267498 C0.220703335,25.8646508 0.194906841,26.1111506 0.171976625,26.3519179 C0.149046408,26.5926851 0.120383637,26.8219873 0.103185975,27.057022 C0.0859883123,27.2920567 0.0687906498,27.5442891 0.0573255415,27.7879227 C0.0458604332,28.0315562 0.0343953249,28.2751898 0.0229302166,28.5216896 C0.0114651083,28.7681894 0.00573255415,29.011823 -2.27373675e-13,29.2583228 C-2.27373675e-13,29.3615088 -2.27373675e-13,29.4618285 -2.27373675e-13,29.5621482 C-2.27373675e-13,29.6624679 -2.27373675e-13,29.8229794 -2.27373675e-13,29.9519619 C-2.27373675e-13,30.2385896 -2.27373675e-13,30.5481475 -2.27373675e-13,30.8491066 C-2.27373675e-13,31.0726762 -2.27373675e-13,31.2991121 -2.27373675e-13,31.525548 C-2.27373675e-13,31.8255516 0.00859883123,32.1265107 0.0257964937,32.4284253 C0.0257964937,32.6519949 0.0458604332,32.8755645 0.0573255415,33.0991341 C0.0573255415,33.4058257 0.0917208664,33.7153837 0.114651083,34.0220753 C0.114651083,34.2399124 0.143313854,34.4577494 0.160511516,34.6755865 C0.18630801,34.9966095 0.217837058,35.3204988 0.252232383,35.6415219 C0.252232383,35.8020334 0.278028876,35.9596786 0.295226539,36.1201901 C0.295226539,36.1717831 0.309557924,36.2205098 0.312424201,36.2692365 L0.37261602,36.7479048 C0.409877622,37.0545965 0.447139224,37.3612881 0.49013338,37.6679798 L0.55892403,38.2011073 C0.602873612,38.4896458 0.648734045,38.7762736 0.69650533,39.0609904 C0.7251681,39.2415659 0.756697148,39.419275 0.788226196,39.5998505 C0.839819183,39.8864782 0.894278448,40.1874373 0.951603989,40.4826638 C0.985999314,40.6489079 1.01752836,40.8180183 1.04905741,40.9842623 C1.11784806,41.3196167 1.19237126,41.6521049 1.26689447,41.984593 C1.29269096,42.1078429 1.31848746,42.2310929 1.34715023,42.3543428 C1.45320248,42.8072146 1.56212101,43.2572201 1.67963837,43.7072256 L1.75702785,43.9938533 C1.85161499,44.3464053 1.94906841,44.6960911 2.04365556,45.0457769 C2.08951599,45.2034222 2.1382427,45.3582011 2.18410313,45.5129801 C2.22996357,45.6677591 2.29875422,45.9056601 2.35894603,46.1005669 C2.3876088,46.1922878 2.42200413,46.2868749 2.4506669,46.3871946 L2.60544586,46.8601303 C2.70003301,47.146758 2.79462015,47.4333858 2.89207357,47.6999495 C2.94653283,47.8547285 2.99812582,48.0095074 3.05545136,48.1614201 C3.16436989,48.4652455 3.27902098,48.7662046 3.39653834,49.0671637 C3.44239877,49.184681 3.48539292,49.3050647 3.53411964,49.4254483 C3.69845285,49.8401031 3.86851863,50.2509361 4.04431695,50.6579475 C4.07297973,50.7267381 4.10450877,50.7955288 4.13603782,50.8643194 C4.28221795,51.2025401 4.42266553,51.5350282 4.5889096,51.8646501 C4.65196769,51.9993651 4.71789207,52.1340802 4.78095016,52.2659289 C4.90993263,52.5324927 5.0389151,52.7961902 5.17076385,53.0541551 C5.24242077,53.197469 5.31694398,53.3407828 5.39146718,53.4812304 C5.52331593,53.736329 5.66089723,53.9885614 5.79847853,54.2379275 L6.03351325,54.6248749 L6.13096667,54.8025841 C6.22842009,54.9716945 6.33160606,55.1379385 6.41759437,55.3070489 C6.50358269,55.4761592 6.61250122,55.6338045 6.70422208,55.7971823 C6.84466966,56.0236182 6.99084979,56.2471878 7.13416364,56.4707574 C7.23161706,56.6198038 7.32333793,56.7573851 7.42079135,56.9150303 C7.58416914,57.1586639 7.75327949,57.3936986 7.92238984,57.6315996 L8.17175594,57.9898842 C8.42972088,58.3433917 8.69246295,58.687345 8.95998214,59.021744 C9.20648197,59.3313019 9.45584807,59.6265284 9.70521418,59.9160224 L9.9029873,60.139592 C10.1294232,60.3946907 10.3587254,60.6469231 10.5880275,60.8876903 L10.665417,60.9708124 C10.8689227,61.1800506 11.0724283,61.3864226 11.2788003,61.5841957 C11.3160619,61.6214573 11.3561898,61.6529863 11.3934514,61.6873817 C11.5625617,61.8507594 11.7316721,62.0026721 11.9036487,62.1545848 C12.0326312,62.2721022 12.1644799,62.3924858 12.2934624,62.5042706 C12.4711716,62.6561833 12.6488807,62.7908983 12.8265899,62.9399447 L13.2049385,63.2409038 C13.3969791,63.3842177 13.5861533,63.5275315 13.7781939,63.6536477 C13.8957113,63.7339035 14.0103623,63.8198918 14.1250134,63.9001476 C14.3514493,64.049194 14.5778852,64.1867753 14.8043211,64.3272228 C14.8817106,64.3730833 14.9591001,64.4275425 15.0364895,64.4705367 L15.0364895,64.4705367 C15.1998673,64.5651238 15.3603789,64.6482459 15.5237566,64.7342342 C15.6871344,64.8202225 15.8103844,64.8890131 15.9422331,64.9606701 C16.0740818,65.032327 16.271855,65.1125828 16.4352328,65.187106 C16.5986105,65.2616292 16.7218605,65.3189547 16.8508429,65.3762803 C16.9798254,65.4336058 17.1833311,65.5023964 17.3495751,65.5654545 C17.5158192,65.6285126 17.6362029,65.6715068 17.7594528,65.7173672 C17.8827027,65.7632277 18.0976735,65.8205532 18.2667838,65.8692799 C18.4358942,65.9180066 18.5304813,65.9524019 18.6594638,65.9867973 L18.6909928,65.9867973 C18.9632891,66.0584542 19.2355855,66.1157797 19.5078818,66.1645064 L19.613934,66.1874367 C19.8776315,66.2332971 20.141329,66.2676924 20.4021602,66.2963552 L20.5454741,66.3106866 C20.8063053,66.3336168 21.0642702,66.3479482 21.3222352,66.356547 L21.4827467,66.356547 C21.7493105,66.356547 22.0130079,66.356547 22.2767054,66.3393493 L22.3426298,66.3393493 L22.7611063,66.304954 C22.9015538,66.2906226 23.047734,66.273425 23.1795827,66.253361 L34.9714466,64.5622576 C34.696284,64.6253157 34.4153889,64.6568447 34.1344937,64.6711761 Z" id="Path" fill="url(#linearGradient-1)"></path>
                <ellipse id="Oval" fill="url(#linearGradient-2)" transform="translate(30.529557, 33.598781) rotate(-8.160000) translate(-30.529557, -33.598781) " cx="30.5295569" cy="33.5987813" rx="18.4100977" ry="31.302612"></ellipse>
                <ellipse id="Oval" fill="url(#linearGradient-3)" transform="translate(30.291934, 33.673479) rotate(-8.049062) translate(-30.291934, -33.673479) " cx="30.291934" cy="33.6734787" rx="15.9111831" ry="27.0564625"></ellipse>
                <ellipse id="Oval" fill="url(#linearGradient-4)" transform="translate(30.529557, 33.598781) rotate(-8.160000) translate(-30.529557, -33.598781) " cx="30.5295569" cy="33.5987813" rx="15.2600592" ry="25.9484064"></ellipse>
                <path d="M35.8370623,48.6974139 L35.4157196,48.1241585 C36.0074974,47.5797845 36.4429267,46.887056 36.6768815,46.1177646 C37.083069,44.9124107 37.1815963,43.6246582 36.9635092,42.3715404 C36.7515798,41.0751191 36.2733727,39.8366603 35.5590334,38.7342348 C35.8456611,38.8460196 36.0233703,38.9205428 36.1322888,38.9549382 C36.3367713,39.0045036 36.5467693,39.0276226 36.7571372,39.0237288 C37.6485494,39.0695892 38.3249908,38.4074792 38.792194,37.0631953 C39.1822275,35.8171398 39.2473459,34.4920794 38.9813682,33.2137852 C38.7903466,32.2960665 38.4587264,31.4133573 37.9982352,30.5968742 C37.579214,29.8310049 37.0928967,29.103927 36.5450327,28.4242362 L37.5138344,25.91911 L37.7803981,24.1993438 L36.0835621,24.273867 L35.088964,26.7417315 L33.8707962,25.3487209 L34.8911909,22.898054 L35.1262256,21.1324273 L33.4293895,21.2098168 L32.3745996,23.6232221 L30.9987866,22.0553685 L30.0299849,18.9339928 L28.3331489,19.0113823 L26.9286731,21.9493163 L28.8060846,24.0588962 C29.2854925,24.609697 29.43612,25.3737496 29.2016309,26.0652901 L25.3407556,34.6354586 C25.0541279,35.2975686 24.371954,35.3864232 23.844559,34.8246329 L23.4662104,32.5545414 L21.7693744,32.6290647 L20.0295442,36.2377075 L23.1595188,39.4966645 L24.7703665,41.1533727 L23.2713036,44.5929052 L25.0741919,46.4330551 L26.7710279,46.3585318 L26.5187955,42.9619935 L27.951934,44.4438588 L26.544592,47.9292517 L28.293021,49.7522039 L29.9927233,49.6776807 L29.6487701,46.2381482 L29.6717003,46.2610784 C31.3914665,48.0525016 32.8246051,48.8865882 33.9711159,48.7834023 L33.9711159,48.7834023 L35.8370623,48.6974139 Z M31.1191702,31.949757 L32.6239657,28.3382479 L34.0198426,29.9061014 C34.8797257,30.8605717 35.4243184,31.6516642 35.6880159,32.2879777 C35.949218,32.9560304 35.9389318,33.6997229 35.6593531,34.360296 C35.3727254,35.1169932 34.9886443,35.3978883 34.5128423,35.1915164 C34.0370403,34.9851444 33.3663314,34.4290867 32.5494425,33.5176105 L31.1191702,31.949757 Z M32.4376577,43.3116793 C31.8777782,43.1435244 31.1468776,42.5798232 30.2449557,41.6205758 L28.0579863,39.2988914 L29.8322118,35.0367374 L31.6465652,37.008736 C32.6640936,38.1122527 33.3462675,39.0409265 33.7016859,39.8090887 C34.0568664,40.5805315 34.0765826,41.4646474 33.7561451,42.2511568 C33.4322558,43.1253713 32.9937154,43.4836559 32.4376577,43.3116793 Z" id="Shape" fill="#BF7200"></path>
                <path d="M38.6632115,42.2998835 C38.4543763,41.0026236 37.9759298,39.7635448 37.2587357,38.6625779 C37.5453634,38.7743627 37.7259389,38.8460196 37.8319911,38.8832812 C38.0364889,38.9325208 38.2465686,38.9546852 38.4568395,38.9492056 C39.3482517,38.995066 40.0275594,38.3358223 40.4947625,36.9886721 C40.8877289,35.7392834 40.953847,34.4100146 40.6868031,33.1277969 C40.4957202,32.2110028 40.1640951,31.3292476 39.7036701,30.5137522 C39.2864165,29.746574 38.8010162,29.0184735 38.2533339,28.3382479 L39.2221355,25.8331217 L37.788997,24.1792798 L36.7943988,26.6442781 L35.5762311,25.2541337 L36.5966257,22.8034668 L35.1348244,21.1123634 L34.0800344,23.5458326 L32.7042214,21.9751128 L30.0357175,18.9311265 L28.6255092,21.8547291 L30.5029206,23.9643091 C30.9811577,24.5156096 31.1326471,25.2785059 30.9013332,25.970703 L27.0404579,34.5609354 C26.7538302,35.2230454 26.0716563,35.3090337 25.541395,34.7472434 L23.4662104,32.5545414 L21.7263802,36.160318 L24.8563548,39.419275 L26.4672025,41.0989134 L24.9710059,44.5384459 L26.7710279,46.3814621 L28.2041664,42.9104005 L29.637305,44.3922658 L28.2328292,47.8776587 L29.989857,49.6748144 L31.3456061,46.1693576 L31.36567,46.1922878 C33.3434012,48.253141 34.9399176,49.0585649 36.1523528,48.6085594 C37.1756137,48.2388096 37.9122469,47.3760602 38.3708512,46.02891 C38.7758388,44.8293389 38.8763042,43.5479129 38.6632115,42.2998835 L38.6632115,42.2998835 Z M37.3561891,34.2743077 C37.0714723,35.0386482 36.689302,35.3166771 36.2096783,35.1083943 C35.7300546,34.9001115 35.0746326,34.3421429 34.2434122,33.4344885 L32.8102737,31.8637687 L34.3150692,28.2522596 L35.7138124,29.8229794 C36.3899023,30.5240218 36.9518351,31.326783 37.3791194,32.2019894 C37.6452358,32.8687239 37.6369935,33.6136249 37.3561891,34.2743077 L37.3561891,34.2743077 Z M34.1344937,43.2285573 C33.5765251,43.0565807 32.8456244,42.4928795 31.9417917,41.5374538 L29.7548223,39.2129031 L31.5290478,34.9536154 L33.3462675,36.925614 C34.3609296,38.0262644 35.0450144,38.9587599 35.3985219,39.7231004 C35.7550771,40.4942253 35.7748061,41.3789155 35.4529812,42.1651685 C35.120493,43.0479818 34.6809972,43.405311 34.1344937,43.2371561 L34.1344937,43.2285573 Z" id="Shape" fill="#FEC55E"></path>
                <path d="M38.8896474,25.7872613 L37.9208457,28.2923874 C38.4684717,28.9716379 38.9538738,29.6987818 39.3711819,30.4650255 C39.8321333,31.2812939 40.163781,32.1640763 40.354315,33.0819364 C40.6210926,34.3599975 40.5569625,35.6850224 40.1680069,36.9313465 C39.7008038,38.2756305 39.0214961,38.9377405 38.1300839,38.8918801 C38.0182991,38.8918801 37.9265783,38.8918801 37.8434562,38.8746824 C38.0460206,38.9238486 38.2541965,38.9460155 38.4625721,38.9406068 C39.3539843,38.9864672 40.0332919,38.3272235 40.5004951,36.9800733 C40.8900712,35.732876 40.9542059,34.4067677 40.6868031,33.1277969 C40.4957202,32.2110028 40.1640951,31.3292476 39.7036701,30.5137522 C39.2864165,29.746574 38.8010162,29.0184735 38.2533339,28.3382479 L39.2221355,25.8331217 L37.788997,24.1792798 L37.6972761,24.4028494 L38.8896474,25.7872613 Z" id="Path" fill="#FEDC9E"></path>
                <polygon id="Path" fill="#FEDC9E" points="36.2641376 22.7547401 35.2437429 25.205407 36.4619107 26.5955514 36.5536316 26.3748481 35.5733648 25.257 36.5937594 22.8063331 35.1319581 21.1152296 35.037371 21.335933"></polygon>
                <path d="M32.4863844,31.8207745 L33.9195229,33.3914944 C34.7450107,34.3029705 35.4004327,34.8609391 35.885789,35.0654002 C35.9979484,35.1162874 36.1214428,35.1370345 36.2440736,35.125592 L36.2154109,35.125592 C35.7319655,34.91922 35.0765434,34.3612514 34.2491448,33.4516862 L32.8160062,31.8809663 L34.2319471,28.4872943 L33.9911798,28.2178642 L32.4863844,31.8207745 Z" id="Path" fill="#FEDC9E"></path>
                <path d="M26.0028656,35.0654002 C25.8264026,34.9966603 25.6683967,34.8877245 25.541395,34.7472434 L23.4662104,32.5545414 L23.3716233,32.7523146 L25.2089069,34.6985167 C25.4048193,34.9341177 25.6964716,35.0688884 26.0028656,35.0654002 Z" id="Path" fill="#FEDC9E"></path>
                <path d="M33.8077381,43.1855631 C33.900591,43.21343 33.9975561,43.2250658 34.0943658,43.2199585 C33.5411743,43.0336504 32.8246051,42.480459 31.944658,41.5460526 L29.7576886,39.2215019 L31.4459258,35.1743187 L31.2022923,34.9106212 L29.4280667,39.1699089 L31.6150362,41.4944597 C32.516958,42.4517962 33.2478587,43.0154974 33.8077381,43.1855631 Z" id="Path" fill="#FEDC9E"></path>
                <polygon id="Path" fill="#FEDC9E" points="31.0389145 46.1435611 31.0188505 46.1206309 29.7404909 49.422582 29.9927233 49.6776807 31.2682166 46.3757295"></polygon>
                <path d="M38.3737175,46.0260437 C38.7796656,44.8206412 38.8781884,43.532949 38.6603452,42.2798196 C38.4569404,41.0231507 38.0005891,39.8208407 37.3189275,38.7456999 L36.9262476,38.590921 C37.6434417,39.6918879 38.1218882,40.9309666 38.3307233,42.2282266 C38.5486885,43.4813502 38.4501634,44.7690725 38.0440956,45.9744507 C37.5854913,47.3187347 36.8488581,48.1814841 35.8255972,48.5541001 C35.5377704,48.654028 35.23145,48.6892597 34.9284525,48.6572861 C35.334136,48.7571507 35.7599803,48.7382464 36.155219,48.6028268 C37.17848,48.2416759 37.9151132,47.3789265 38.3737175,46.0260437 Z" id="Path" fill="#FEDC9E"></path>
                <polygon id="Path" fill="#FEDC9E" points="27.888876 42.8616738 26.5245281 46.132096 26.7710279 46.3843283 28.1325095 43.1167725"></polygon>
                <polygon id="Path" fill="#FEDC9E" points="32.3717333 21.9263861 33.7475463 23.4971059 33.8421334 23.2792688 32.7013552 21.977979 30.0328512 18.9339928 29.9325315 19.143231"></polygon>
            </g>
        </g>
    </g>
</svg>