<?xml version="1.0" encoding="UTF-8"?>
<svg width="63px" height="64px" viewBox="0 0 63 64" version="1.1" xmlns="http://www.w3.org/2000/svg" xmlns:xlink="http://www.w3.org/1999/xlink">
    <title>coin-4</title>
    <defs>
        <linearGradient x1="62.8446247%" y1="97.3995766%" x2="29.4209046%" y2="17.7027968%" id="linearGradient-1">
            <stop stop-color="#BD6517" offset="0%"></stop>
            <stop stop-color="#C0691A" offset="20%"></stop>
            <stop stop-color="#C87523" offset="41%"></stop>
            <stop stop-color="#D68A32" offset="61%"></stop>
            <stop stop-color="#E9A647" offset="82%"></stop>
            <stop stop-color="#FEC55E" offset="100%"></stop>
        </linearGradient>
        <linearGradient x1="0.00181628818%" y1="49.9979605%" x2="100.000872%" y2="49.9979605%" id="linearGradient-2">
            <stop stop-color="#F28F3B" offset="0%"></stop>
            <stop stop-color="#F7A74B" offset="49%"></stop>
            <stop stop-color="#FEC55E" offset="100%"></stop>
        </linearGradient>
        <linearGradient x1="34.1343973%" y1="98.4127935%" x2="61.4034386%" y2="15.1874969%" id="linearGradient-3">
            <stop stop-color="#FEC55E" offset="0%"></stop>
            <stop stop-color="#F7A74B" offset="51%"></stop>
            <stop stop-color="#F28F3B" offset="100%"></stop>
        </linearGradient>
        <linearGradient x1="38.2723332%" y1="95.3478125%" x2="64.7123236%" y2="-6.87440859%" id="linearGradient-4">
            <stop stop-color="#F28F3B" offset="12%"></stop>
            <stop stop-color="#F49941" offset="36%"></stop>
            <stop stop-color="#FAB352" offset="76%"></stop>
            <stop stop-color="#FEC55E" offset="100%"></stop>
        </linearGradient>
    </defs>
    <g id="Page-1" stroke="none" stroke-width="1" fill="none" fill-rule="evenodd">
        <g id="AETERNUM" transform="translate(-1025.000000, -1040.000000)" fill-rule="nonzero">
            <g id="coin-4" transform="translate(1025.012768, 1040.369970)">
                <path d="M44.3684414,55.7558007 C30.4182709,57.5787529 15.2069385,46.6209757 10.391593,31.2806608 C6.95206047,20.3257498 9.74381434,10.0960069 16.6974025,4.48097009 L7.77754827,11.6839244 C0.818227527,17.3018275 -1.96779379,27.5287041 1.4717387,38.4864813 C6.28995047,53.8267962 21.5012829,64.7845735 35.4514534,62.958755 C39.1914443,62.5088556 42.7324739,61.0271411 45.67833,58.6794033 L54.6010506,51.4735828 C51.6547612,53.8247724 48.1111599,55.3077249 44.3684414,55.7558007 Z" id="Path" fill="url(#linearGradient-1)"></path>
                <path d="M60.9068602,24.6710258 C56.1029798,9.3307109 40.8773159,-1.62706636 26.9271454,0.198752138 C12.9769749,2.02457064 5.5733812,15.9403458 10.391593,31.2806608 C15.2098047,46.6209757 30.4182709,57.5787529 44.3684414,55.7558007 C58.318612,53.9328485 65.7222056,40.0113407 60.9068602,24.6710258 Z" id="Path" fill="url(#linearGradient-2)"></path>
                <path d="M60.9068602,24.6710258 C56.1029798,9.3307109 40.8773159,-1.62706636 26.9271454,0.198752138 C24.4848914,0.506333518 22.1157018,1.24076289 19.9276968,2.36852388 C21.9563078,1.40390407 24.1254952,0.768241197 26.35389,0.485379846 C40.3040605,-1.34043865 55.5297244,9.61733861 60.3336047,24.9576535 C64.2632706,37.4775518 60.046977,49.034381 50.7946346,53.8697904 C60.4539884,49.2292878 64.9167818,37.4460227 60.9068602,24.6710258 Z" id="Path" fill="#FEDC9E"></path>
                <path d="M41.4992981,51.6340948 C36.1250286,51.6340948 30.4326023,49.4643225 25.4682104,45.5289241 C20.3599272,41.4798877 16.5690808,36.0051073 14.5763575,29.7987955 C12.4438473,23.0057188 13.0085039,16.3100956 16.1241471,11.4288257 C18.6235407,7.51349124 22.4930148,5.12301616 27.3026289,4.48097009 C28.1314516,4.37389045 28.966309,4.32045811 29.8020213,4.32045811 C35.1734246,4.32045811 40.8687171,6.48736404 45.8302427,10.4227625 C50.9385259,14.4717989 54.7293724,19.9465792 56.7220956,26.1528911 C58.857472,32.9459677 58.2928155,39.6444573 55.174306,44.5257271 C52.6749124,48.4410616 48.8083046,50.8315367 43.9958254,51.4735828 C43.168923,51.5806698 42.335972,51.6340948 41.5021643,51.6340948 L41.4992981,51.6340948 Z" id="Path" fill="url(#linearGradient-3)"></path>
                <path d="M41.4992981,50.7426821 C36.3399993,50.7426821 30.8310148,48.641701 26.0214019,44.8295525 C21.0492188,40.8934005 17.3580865,35.5691915 15.4161767,29.5322317 C13.361056,22.9913874 13.888451,16.5680605 16.8636466,11.907494 C19.2168601,8.22146167 22.8656308,5.95996906 27.4172788,5.36378343 C28.2071874,5.26242304 29.0027697,5.21187022 29.799155,5.21187022 C34.9584538,5.21187022 40.4674383,7.30998556 45.2770513,11.1221341 C50.24898,15.0585247 53.9400539,20.3826495 55.8822764,26.4194548 C57.9345308,32.9602991 57.4071358,39.3864923 54.4319402,44.0470589 C52.0901919,47.7302249 48.429956,50.0089152 43.8811743,50.5821706 C43.0924275,50.6859217 42.2977052,50.7376266 41.5021643,50.7369495 L41.4992981,50.7426821 Z" id="Path" fill="url(#linearGradient-4)"></path>
                <path d="M49.4274205,35.006821 L48.8856941,35.089943 C48.9878673,32.993594 48.1691304,30.9572217 46.6442654,29.5150341 C45.663107,28.6302782 44.4408262,28.0575523 43.133076,27.869791 C43.4455002,27.6748842 43.660471,27.5373029 43.7808546,27.4513146 C43.998356,27.2691293 44.1979881,27.0666179 44.3770403,26.8465301 C44.736141,26.4398071 44.9813671,25.9453996 45.087877,25.4133916 L45.087877,25.4133916 L45.7958474,24.2009564 L45.1624002,24.4388574 C45.1472877,23.929851 45.0751808,23.4241413 44.9474294,22.9311956 C44.5673012,21.4895423 43.7599606,20.1965983 42.6314775,19.2222331 C41.8675511,18.5915124 40.9725636,18.1391226 40.0117003,17.8980131 C39.1067975,17.6521461 38.1747354,17.5202324 37.2371441,17.5053331 L36.4116563,14.0027425 L35.1075002,11.7756452 L33.9609894,14.0686669 L34.7864772,17.5540598 L32.7342228,17.6314493 L31.9173338,14.1231262 L30.5472534,11.8874301 L29.4007425,14.1804517 L30.2061664,17.7174376 L27.8730169,17.8034259 L24.4764785,15.6823809 L23.3299677,17.9754026 L24.2557752,22.2748182 L27.3828835,22.1200392 C28.2244052,22.1153986 28.9572043,22.6935485 29.1485102,23.5130499 L31.7281595,35.0268849 C31.9173338,35.886768 31.4186016,36.6291338 30.6074452,36.7065233 L28.5666559,34.7001293 L27.4201451,36.993151 L28.4147432,41.6307873 L33.0896411,41.1234562 L35.4915813,40.862625 L36.4288539,44.9929303 L39.0428986,44.6747735 L40.1894094,42.3817519 L38.0912946,40.5817299 L40.1980083,40.3524277 L41.1610774,44.4168086 L43.6977326,44.1101169 L44.8442434,41.8170953 L42.7260647,40.0801314 L42.7575937,40.0801314 C45.6754638,39.7648409 47.5070148,38.8275683 48.2923747,37.2769124 C48.3124387,37.2367845 48.3267701,37.1966566 48.3439677,37.1565288 L48.3439677,37.1565288 L49.4274205,35.006821 Z M34.8409364,26.6946174 L33.6944256,21.8219464 L35.9874473,21.7072953 C37.3833242,21.6356384 38.4037188,21.7445569 39.0600963,22.0311846 C39.7164737,22.3178123 40.1578804,22.945527 40.3986477,23.9257938 C40.6394149,24.9060605 40.4817697,25.5710368 39.9228457,25.9092575 C39.3639217,26.2474782 38.426649,26.462449 37.1052953,26.5484373 L34.8409364,26.6946174 Z M43.287855,34.9666931 C42.7012236,35.3928129 41.7247785,35.6708418 40.3585198,35.8007797 L37.0336384,36.1160702 L35.7810753,30.7332018 L38.6186896,30.5182311 C40.2066071,30.3949811 41.3903795,30.4752369 42.1843383,30.7532658 C42.978297,31.0312946 43.5028257,31.6962709 43.7607907,32.7596597 C44.0187556,33.8230485 43.8725755,34.531019 43.287855,34.9666931 L43.287855,34.9666931 Z" id="Shape" fill="#BF7200"></path>
                <path d="M47.7907763,27.2220124 C46.8096178,26.3372565 45.5873371,25.7645307 44.2795868,25.5767694 C44.592011,25.3818625 44.8069818,25.2442812 44.9273655,25.1582929 C45.1448668,24.9761077 45.3444989,24.7735962 45.5235511,24.5535085 C46.3433063,23.6420323 46.5343915,22.3330991 46.0968065,20.6267089 C45.7166783,19.1850556 44.9093377,17.8921116 43.7808546,16.9177463 C43.0169282,16.2870256 42.1219407,15.8346359 41.1610774,15.5935263 C40.2561747,15.3476594 39.3241125,15.2157456 38.3865212,15.2008464 L37.5581671,11.7097209 L35.1075002,11.7756452 L35.932988,15.2610382 L33.8807336,15.3384277 L33.0638446,11.8301045 L30.5472534,11.8960289 L31.3526772,15.4330148 L29.0195277,15.5190031 L24.4764785,15.6909797 L25.402286,19.9903954 L28.5293943,19.8356164 C29.370916,19.8309758 30.1037151,20.4091257 30.295021,21.228627 L32.8746703,32.7424621 C33.0638446,33.6023452 32.5651124,34.3447109 31.753956,34.4221004 L28.5666559,34.7087281 L29.561254,39.3463644 L34.236152,38.8390334 L36.6380922,38.5782022 L37.5753648,42.7085075 L40.1894094,42.3903507 L39.2378055,38.297307 L41.3445191,38.0680049 L42.3075882,42.1323858 L44.8442434,41.8256941 L43.8725755,37.7957085 L43.9041045,37.7957085 C46.8219746,37.4804181 48.6535257,36.5431455 49.4388856,34.9924896 C50.1085735,33.6472073 50.2487156,32.0995063 49.8315655,30.6558124 C49.5123002,29.331945 48.8010458,28.1351994 47.7907763,27.2220124 L47.7907763,27.2220124 Z M41.5652224,21.6327721 C41.8059897,22.6168606 41.6473891,23.2780152 41.0894205,23.6162359 C40.5314518,23.9544565 39.5922684,24.1675165 38.2718701,24.2554156 L35.9788484,24.404462 L34.8323376,19.531791 L37.1253593,19.4171399 C38.5212362,19.345483 39.5416308,19.4544015 40.1980083,19.7410292 C40.8543857,20.027657 41.3244552,20.6496391 41.5652224,21.6327721 Z M44.4314995,32.6765377 C43.8448681,33.1026575 42.8684231,33.3806864 41.5021643,33.5106243 L38.1772829,33.8259148 L36.9247199,28.4430464 L39.7652004,28.2252094 C41.3531179,28.1019595 42.5368904,28.1822152 43.3308491,28.4602441 C44.1248079,28.738273 44.6493366,29.4032493 44.9073015,30.4666381 C45.1652665,31.5300269 45.0190863,32.2379973 44.4343658,32.6736714 L44.4314995,32.6765377 Z" id="Shape" fill="#FEC55E"></path>
                <path d="M32.3730719,34.1870657 C32.1888952,34.3240196 31.9709053,34.408243 31.7424909,34.4306993 L28.5551908,34.717327 L28.6096501,34.9724256 L31.4558632,34.7058619 C31.8236009,34.6781437 32.1598465,34.4879549 32.3730719,34.1870657 L32.3730719,34.1870657 Z" id="Path" fill="#FEDC9E"></path>
                <path d="M35.7008195,24.6882235 L37.9938412,24.5391771 C39.3142395,24.4531888 40.253423,24.2401288 40.8113916,23.8999973 C40.9543149,23.8150773 41.0766696,23.6995745 41.1696762,23.5617766 C41.1469864,23.580577 41.1230456,23.5978144 41.0980193,23.6133696 C40.5381398,23.9535011 39.5989564,24.1665611 38.2804689,24.2525494 L35.9874473,24.4015958 L34.9183259,19.7954885 L34.5686401,19.8126862 L35.7008195,24.6882235 Z" id="Path" fill="#FEDC9E"></path>
                <path d="M44.4343658,32.6736714 L44.4343658,32.6736714 C43.8477344,33.0997913 42.8712894,33.3778201 41.5050306,33.507758 L38.1801492,33.8230485 L36.987778,28.7010114 L36.6409584,28.7268079 L37.8935215,34.1096762 L41.2184029,33.7943858 C42.5846617,33.6644479 43.5611067,33.386419 44.1477381,32.9602991 C44.2570762,32.8796272 44.3536939,32.7830095 44.4343658,32.6736714 L44.4343658,32.6736714 Z" id="Path" fill="#FEDC9E"></path>
                <path d="M37.2715394,11.9963486 L38.1142248,15.4874741 C39.0518162,15.5023733 39.9838783,15.6342871 40.8887811,15.880154 C41.8496443,16.1212636 42.7446319,16.5736534 43.5085583,17.204374 C44.6370414,18.1787393 45.444382,19.4716833 45.8245102,20.9133366 C46.2563626,22.617816 46.0652775,23.9267492 45.2512548,24.8401362 C45.170999,24.931857 45.0964758,25.0149791 45.0276852,25.086636 C45.2089908,24.9200345 45.3794074,24.7419587 45.5378825,24.5535085 C46.3576377,23.6420323 46.5487229,22.3330991 46.1111379,20.6267089 C45.7310097,19.1850556 44.9236691,17.8921116 43.795186,16.9177463 C43.0312596,16.2870256 42.1362721,15.8346359 41.1754088,15.5935263 C40.270506,15.3476594 39.3384439,15.2157456 38.4008526,15.2008464 L37.5581671,11.7097209 L35.1075002,11.7756452 L35.1734246,12.062273 L37.2715394,11.9963486 Z" id="Path" fill="#FEDC9E"></path>
                <polygon id="Path" fill="#FEDC9E" points="43.6060117 38.0966676 43.5744827 38.0966676 44.4859588 41.8830197 44.8327783 41.8400255 43.9184359 38.0536735"></polygon>
                <polygon id="Path" fill="#FEDC9E" points="38.9397126 38.6039987 39.8339911 42.4505425 40.1779443 42.4104146 39.2836659 38.5667371"></polygon>
                <polygon id="Path" fill="#FEDC9E" points="32.7772169 12.1167322 33.5941059 15.6250554 35.6463603 15.5476659 35.5804359 15.2753696 33.8807336 15.3384277 33.0638446 11.8301045 30.5472534 11.8960289 30.6103115 12.1740578"></polygon>
                <path d="M49.8201004,30.6701437 C49.5074272,29.3466366 48.8032501,28.1480373 47.7993751,27.2306112 C46.8518634,26.3757352 45.6772208,25.8133004 44.4171681,25.6111647 L44.001558,25.8719959 C45.3053106,26.0589536 46.5242796,26.6285373 47.5041485,27.5086401 C48.5080236,28.4260662 49.2122007,29.6246655 49.5248739,30.9481726 C49.942024,32.3918666 49.8018819,33.9395675 49.1321939,35.2848498 C48.9836539,35.5771441 48.7976941,35.8488573 48.5790025,36.09314 C48.923407,35.7824691 49.208037,35.4113816 49.4188216,34.9982221 C50.0891757,33.6564907 50.2323504,32.112249 49.8201004,30.6701437 L49.8201004,30.6701437 Z" id="Path" fill="#FEDC9E"></path>
                <polygon id="Path" fill="#FEDC9E" points="28.7329 15.8853639 31.0660495 15.7803915 31.0029914 15.4444799 29.0195277 15.535456 24.4764785 15.7454007 24.5366703 16.0778132"></polygon>
            </g>
        </g>
    </g>
</svg>