<?xml version="1.0" encoding="UTF-8"?>
<svg width="60px" height="60px" viewBox="0 0 60 60" version="1.1" xmlns="http://www.w3.org/2000/svg" xmlns:xlink="http://www.w3.org/1999/xlink">
    <title>conocimiento</title>
    <defs>
        <linearGradient x1="-57.7014148%" y1="49.9810199%" x2="152.831697%" y2="49.9810199%" id="linearGradient-1">
            <stop stop-color="#4E82E7" offset="0%"></stop>
            <stop stop-color="#6039E4" offset="48%"></stop>
            <stop stop-color="#771EE3" offset="100%"></stop>
        </linearGradient>
    </defs>
    <g id="Page-1" stroke="none" stroke-width="1" fill="none" fill-rule="evenodd">
        <g id="AETERNUM" transform="translate(-291.000000, -3948.000000)" fill-rule="nonzero">
            <g id="conocimiento" transform="translate(291.000000, 3948.000000)">
                <rect id="Rectangle" x="0" y="0" width="60" height="60"></rect>
                <path d="M31.245,0.375 L31.86,0.51 C32.3175,0.6 32.775,0.6975 33.195,0.855 C38.1561165,2.26416797 41.6255418,6.73430133 41.759588,11.8899257 C41.8936343,17.0455501 38.6611864,21.6899322 33.78,23.355 C33.134167,23.549445 32.5936316,23.9953867 32.28,24.5925 C32.15625,24.834375 32.015625,25.0635938 31.8612891,25.3054688 L31.7025,25.5525 L31.3725,26.07 L31.02,26.64 L32.775,26.64 C33.7619082,26.6213347 34.6672217,27.185686 35.085,28.08 C35.2395052,28.3531437 35.468377,28.576814 35.745,28.725 C36.5589705,29.1115715 37.0951634,29.9060809 37.1566009,30.7958654 L37.1625,30.975 L37.1625,35.955 L37.5,35.955 C38.2908546,35.95519 39.027743,36.3561025 39.4575,37.02 C39.7350809,37.520801 39.8845161,38.0824713 39.8925,38.655 C39.8710227,39.8004545 39.0431715,40.6110589 37.6633455,40.8715522 L37.4625,40.905 L37.1475,40.95 L37.1475,41.265 C37.1080776,43.1619042 36.3391554,44.966513 35.0074258,46.3072189 L34.7925,46.515 L34.215,47.0625 L35.01,47.16 L35.82,47.25 C36.3539983,47.2894501 36.8850244,47.3620905 37.41,47.4675 C40.9463137,48.2725018 43.5003192,51.3329417 43.6788095,54.934359 L43.6875,55.1925 L43.695,56.625 L43.695,58.6725 C43.7446918,58.989587 43.6515873,59.3098982 43.4452679,59.5498347 L43.35,59.6475 L16.665,59.6475 C16.42595,59.4356901 16.2963863,59.1296696 16.3068523,58.8150928 L16.32,58.68 L16.32,57 C16.2926161,56.0512226 16.3276919,55.1016714 16.425,54.1575 C16.9498917,50.2953266 20.1713489,47.3834682 24.04108,47.2263721 L24.3,47.22 L25.95,47.22 L25.275,46.575 C23.8479118,45.2747468 22.9863716,43.4727931 22.865418,41.553899 L22.8525,41.25 L22.8525,40.92 L22.53,40.92 C21.09,40.7475 20.2725,39.9525 20.1,38.7675 C19.9365789,37.6448684 20.4395568,36.7578324 21.5834254,36.1765392 L21.78,36.0825 L22.215,35.8875 L21.9225,35.5125 C20.7395375,33.7935055 20.701127,31.5331957 21.825,29.775 C23.0732418,27.5532967 25.5191152,26.2955695 28.0379182,26.5563407 L28.29,26.5875 L29.04,26.685 L28.6125,26.01 C28.4775,25.815 28.3575,25.6125 28.2375,25.4175 C27.915,24.9075 27.615,24.42 27.27,23.955 C27.0177679,23.6900858 26.6951098,23.5027359 26.34,23.415 C21.4323502,21.7836078 18.1383958,17.1714655 18.1875,12 C18.362225,6.18449737 22.6835096,1.33214053 28.44,0.4875 L28.6219847,0.450438819 L28.6219847,0.450438819 L28.8,0.3975 L31.245,0.375 Z M24.165,48.42 C22.5971539,48.4437333 21.0892326,49.0261579 19.9125,50.0625 C17.4349219,52.1404688 17.3152661,54.8167163 17.4874912,57.852591 L17.505,58.1475 L17.505,58.5 L20.0775,58.5 L20.0775,55.695 C20.0700022,55.5676102 20.0700022,55.4398898 20.0775,55.3125 C20.1075,54.9675 20.3175,54.72 20.655,54.7575 C20.8071549,54.7609646 20.9510015,54.8276068 21.0520255,54.9414367 C21.1328447,55.0325007 21.1804223,55.1471897 21.1887282,55.2669853 L21.1875,55.3575 L21.1875,58.4925 L38.8125,58.4925 L38.8125,55.6275 C38.7779757,55.3593721 38.85376,55.0887139 39.0225,54.8775 C39.1189422,54.7863854 39.2506775,54.7424737 39.3825,54.7575 C39.5090625,54.7575 39.8861133,54.7640918 39.9327502,55.4261554 L39.9375,55.5675 L39.9375,58.5 L42.555,58.5 L42.5552344,57.8429297 C42.5557031,57.6791016 42.5571094,57.5232422 42.5613281,57.3725391 L42.57,57.15 L42.57,55.0875 C42.4564762,51.4474145 39.5278314,48.5253436 35.8875,48.42 C32.0025,48.3675 28.125,48.42 24.165,48.42 Z M33.2925,34.9425 L32.9625,35.235 C30.6959483,37.2553448 28.009896,37.2201367 25.1676158,37.1072969 L24.8625,37.095 L24,37.0575 L24,38.76 C24,39.7125 23.955,40.7025 24,41.6775 C24.1866698,44.6289459 26.5070985,46.9834614 29.4304818,47.2345728 L29.6625,47.25 L30,47.25 C32.9099351,47.2705906 35.39724,45.1595703 35.85,42.285 C35.9467476,41.3985062 35.9933648,40.5074355 35.9896892,39.6160405 L35.9775,38.9475 L35.9775,37.635 C35.9697369,37.3440288 35.7943196,37.0838264 35.5275,36.9675 C34.7547627,36.6979253 34.0950793,36.1808789 33.6488355,35.4997638 L33.5325,35.31 L33.2925,34.9425 Z M32.8125,38.82 L32.8976875,38.8261402 C33.0097087,38.8433295 33.1141476,38.8959794 33.195,38.9775 C33.3552024,39.1334928 33.4061467,39.3703886 33.3242335,39.5784482 C33.2423202,39.7865078 33.0435497,39.9250907 32.82,39.93 C32.6771233,39.9279885 32.5403672,39.8716772 32.4375,39.7725 C32.2772976,39.6165072 32.2263533,39.3796114 32.3082665,39.1715518 C32.3901798,38.9634922 32.5889503,38.8249093 32.8125,38.82 Z M27.195,38.805 C27.4997869,38.8131305 27.7426084,39.0626046 27.7425,39.3675 C27.7425,39.674018 27.494018,39.9225 27.1875,39.9225 C26.880982,39.9225 26.6324992,39.674018 26.6324992,39.3675 C26.6322346,39.2189499 26.6949137,39.0772407 26.805,38.9775 C26.8855745,38.8919016 26.9928935,38.8379495 27.1077472,38.8234015 L27.195,38.82 L27.195,38.805 Z M37.1475,37.095 L37.1475,39.78 L37.59,39.705 C38.4,39.57 38.865,39.0525 38.7975,38.3625 C38.7790596,37.737435 38.3070629,37.2278672 37.6996229,37.1499699 L37.5675,37.14 L37.1475,37.095 Z M22.8525,37.11 L22.41,37.185 C21.5925,37.32 21.135,37.8225 21.2025,38.52 C21.2174841,39.1532671 21.6982572,39.6697747 22.3149474,39.7416504 L22.44,39.75 L22.8525,39.75 L22.8525,37.11 Z M32.814389,27.7438099 L32.6775,27.75 L27.045,27.75 C24.5657287,27.8121074 22.5098313,29.6604683 22.1664618,32.094632 L22.14,32.3175 L22.14,32.34 C22.0707836,33.2535191 22.3614766,34.1578973 22.95,34.86 C23.4602786,35.4711567 24.1960963,35.8498864 24.99,35.91 C26.2180787,36.0072257 27.4519213,36.0072257 28.68,35.91 C30.430998,35.7125696 32.0405745,34.8541289 33.18,33.51 C33.51,33.135 33.705,33.105 33.93,33.195 C34.155,33.285 34.3275,33.4275 34.3275,33.8925 C34.3694212,34.5666971 34.7238113,35.1789799 35.2794594,35.5518681 L35.4225,35.64 L36,36 L36,30.9675 C36.0162495,30.625494 35.8942608,30.2913244 35.6614964,30.040221 C35.428732,29.7891176 35.1047549,29.6421845 34.7625,29.6325 C34.5980948,29.6406325 34.437291,29.5825195 34.3160679,29.4711634 C34.1948448,29.3598073 34.1233212,29.2045033 34.1175,29.04 C34.1129414,28.672568 33.9545619,28.3238735 33.6808644,28.0786862 C33.4755914,27.8947958 33.2195527,27.78176 32.950075,27.7518065 L32.814389,27.7438099 Z M15.4625298,6.4282476 L15.8025,6.5325 L16.005,6.6 C16.1925,6.7125 16.575,6.945 16.4775,7.35 C16.388125,7.72125 16.0214583,7.76479167 15.7125608,7.7174783 L15.63,7.7025 L14.7825,7.53 C13.9496086,7.31935925 13.0980002,7.19124116 12.24,7.1475 C6.59594423,7.17860219 1.92205231,11.5391606 1.5,17.1675 C1.19233193,22.7786333 5.27675839,27.6720841 10.8525,28.3725 C11.9896611,28.4791722 13.0761717,28.8940688 13.995,29.5725 C14.428125,29.8875 14.8696875,30.185625 15.3291797,30.4858594 L15.795,30.7875 L16.665,31.3575 L17.25,31.7475 L17.25,28.7925 C17.2032186,27.8516511 17.6529168,26.9551009 18.435,26.43 C19.2601671,25.7310402 20.0392913,24.9794733 20.7675,24.18 C21.33,23.5725 21.63,23.8125 21.7275,23.8875 C21.8510141,23.9783408 21.9300894,24.1174043 21.9450882,24.27 C21.9481627,24.4668805 21.8661396,24.6555335 21.72,24.7875 C20.9025,25.665 20.0325,26.5275 19.125,27.3375 C18.6905675,27.6550287 18.4201444,28.1457536 18.3800516,28.6770324 L18.375,28.8375 L18.375,32.5875 C18.3825,33.0375 18.255,33.195 18.0675,33.3 C17.89875,33.3945 17.736075,33.4161 17.426385,33.2281125 L17.3175,33.1575 L16.62,32.6925 C15.3,31.7975 13.9725,30.915 12.6375,30.045 C12.2795278,29.8099455 11.8707779,29.6634125 11.445,29.6175 C5.70323531,29.2566749 1.06157506,24.8020761 0.465,19.08 C0.455821823,19.0137444 0.439239532,18.9488366 0.415632258,18.8864774 L0.375,18.795 L0.375,16.8 L0.51,16.0875 C0.6075,15.6 0.7125,15.0825 0.8475,14.5875 C1.70192946,11.5018008 3.7912109,8.90512245 6.6225,7.41 C9.32639107,5.92079387 12.5071101,5.57117136 15.4625298,6.4282476 Z M48.6975,6 C53.7868934,6.36418276 58.0484309,9.96561124 59.2715717,14.895961 L59.34,15.1875 L59.446875,15.673125 L59.5425,16.155 L59.6475,16.56 L59.6475,19.065 C59.61,19.2525 59.5725,19.44 59.5275,19.635 C59.445,20.055 59.3625,20.475 59.25,20.88 C57.9140314,25.7575889 53.6315312,29.251049 48.585,29.58 C48.1793635,29.6173565 47.7885181,29.7510668 47.445,29.97 C46.475,30.6 45.5116667,31.2366667 44.5483333,31.8777778 L43.1025,32.8425 L42.7575,33.075 C42.3525,33.345 42.195,33.405 41.9475,33.27 C41.72475,33.1485 41.6478,32.984475 41.6346375,32.59203 L41.6325,32.4525 L41.6325,28.77 C41.6343128,28.2123639 41.3764986,27.6856468 40.935,27.345 C39.9525,26.4525 39.1275,25.635 38.3775,24.84 C38.2064636,24.6834967 38.1063127,24.4642474 38.1,24.2325 C38.1216687,24.0824946 38.2062319,23.9488303 38.3325,23.865 C38.4097088,23.8043745 38.5043705,23.7701912 38.6025,23.7675 C38.76,23.7675 38.985,23.8575 39.3,24.195 C40.0110626,24.9955611 40.7752959,25.7472661 41.5875,26.445 C42.2911849,26.933341 42.7192819,27.7233478 42.7496295,28.5722739 L42.75,31.755 L44.505,30.5775 C44.775,30.42 45.0225,30.2625 45.255,30.09 C46.5227589,29.1313097 48.0153956,28.5141122 49.59,28.2975 C54.5613812,27.5003342 58.2855731,23.3153206 58.5,18.285 C58.6400881,13.2548685 55.3016537,8.78913013 50.4375,7.5 C48.6793595,7.01408695 46.8257798,7.00662757 45.0677001,7.47487991 L44.6925,7.5825 L44.55,7.6275 L44.37,7.68 C44.0625,7.7625 43.6875,7.83 43.53,7.35 C43.3725,6.87 43.86,6.66 44.01,6.6 C45.5141484,6.07779459 47.1103154,5.87348521 48.6975,6 Z M29.4924198,1.50342289 C23.9447418,1.76368433 19.5223851,6.2324092 19.32,11.7825 C19.1556093,16.5532914 22.1684682,20.8569386 26.7075,22.335 C27.4867281,22.5652927 28.1457395,23.0898121 28.545,23.7975 C28.705,24.0675 28.8683333,24.3308333 29.0394444,24.6030556 L29.3025,25.02 L30,26.115 L30.6675,25.035 C30.945,24.6 31.1925,24.24 31.4175,23.85 C31.8323905,23.106627 32.5214149,22.5548691 33.3375,22.3125 C38.2540868,20.7685273 41.3235192,15.8847616 40.5825,10.785 C39.8613981,5.27823328 35.0400979,1.24316145 29.4924198,1.50342289 Z M47.8125,24.75 L47.9020046,24.7582908 C48.1641353,24.8038514 48.3638658,25.0306532 48.3675,25.305 C48.3696939,25.4523999 48.3098153,25.5939309 48.2025,25.695 C48.0994166,25.7993829 47.959198,25.8587062 47.8125,25.86 C47.6631269,25.8734257 47.5168822,25.8115529 47.4225,25.695 C47.3174166,25.5923932 47.257964,25.4518689 47.2575,25.305 C47.2575,24.998482 47.505982,24.75 47.8125,24.75 L47.8125,24.75 Z M12.1875,24.75 C12.494018,24.75 12.7425,24.998482 12.7425,25.305 C12.740772,25.4538106 12.681663,25.5962096 12.5775,25.7025 C12.4681016,25.8008516 12.3270726,25.856731 12.18,25.86 C12.033302,25.8587062 11.8930834,25.7993829 11.79,25.695 C11.6850459,25.5898131 11.6280737,25.4460263 11.6325,25.2975 C11.6337938,25.150802 11.6931171,25.0105834 11.7975,24.9075 C11.9013445,24.8051678 12.041715,24.7484797 12.1875,24.75 Z M12.5175,9.7125 L12.8325,9.75 C13.2946722,9.78633378 13.7519931,9.86925459 14.1975,9.9975 C15.8205776,10.5468165 16.7660831,12.2338314 16.3875,13.905 C16.2254116,14.3400418 15.9841945,14.7405621 15.6767069,15.0866086 L15.5175,15.255 L15.135,15.6525 C14.3139565,16.3689138 13.6805601,17.2752371 13.29,18.2925 C13.0369389,19.2604051 12.8737468,20.2496001 12.8025,21.2475 C12.7125,22.095 12.375,22.0875 12.2325,22.095 C12.09,22.1025 11.6625,22.1025 11.6625,21.255 C11.5721339,18.9854657 12.4334319,16.7860823 14.030088,15.1831521 L14.2425,14.9775 L14.385,14.8275 C14.451268,14.7562339 14.521372,14.6886335 14.595,14.625 C15.3010615,14.1541512 15.5823288,13.2540958 15.27,12.465 C14.9809695,11.583151 14.1922753,10.9598757 13.2675,10.8825 C12.9237626,10.8455408 12.578213,10.8280129 12.2325,10.83 C11.8743333,10.8289713 11.5163538,10.8464947 11.16,10.8825 C10.0515115,11.0013249 9.18377375,11.8739541 9.05820618,12.9669626 L9.045,13.1325 L9.045,14.0175 C9.05314674,14.1699697 8.99978146,14.3193337 8.89686258,14.4321215 C8.7939437,14.5449093 8.65007666,14.6116904 8.4975,14.6175 C8.175,14.64 7.92,14.385 7.92,14.0025 C7.78366042,12.8785102 8.12051771,11.7484083 8.85,10.8825 C9.59632848,10.1570576 10.5926064,9.75138249 11.6276814,9.74518462 L11.85,9.75 L12.5175,9.75 L12.5175,9.7125 Z M48.0675,9.6675 L48.555,9.75 C49.0660517,9.8101478 49.5690231,9.92583122 50.055,10.095 C51.5516864,10.7026209 52.382493,12.3101201 52.0125,13.8825 C51.8578567,14.3200658 51.621158,14.7233106 51.3158243,15.0709265 L51.1575,15.24 L50.7375,15.675 C49.9279753,16.3787117 49.30673,17.2732018 48.93,18.2775 C48.7538336,18.8860764 48.6284044,19.5082054 48.555,20.1375 C48.495,20.55 48.435,20.97 48.3525,21.3825 C48.2945956,21.6438271 48.1554481,21.8801153 47.955,22.0575 C47.7869961,22.0836247 47.6151011,22.0518902 47.4675,21.9675 C47.3342626,21.8333965 47.2565809,21.653925 47.25,21.465 C47.1071679,19.2307394 47.8997979,17.04259 49.4293725,15.420182 L49.6425,15.2025 L49.8075,15.0375 C49.9174553,14.915036 50.0352,14.7997965 50.16,14.6925 C50.8695684,14.224627 51.1594266,13.3270016 50.8575,12.5325 C50.5749033,11.652951 49.7969136,11.0252548 48.8775,10.935 C48.5337626,10.8980408 48.188213,10.8805129 47.8425,10.8825 C47.4975,10.8825 47.1375,10.8975 46.7625,10.9275 C45.6470195,11.0393414 44.7694196,11.9125427 44.6389097,13.0110942 L44.625,13.1775 L44.625,13.995 C44.6025,14.385 44.385,14.6175 44.055,14.6175 C43.725,14.6175 43.5,14.3775 43.5,13.9725 C43.3735032,12.8456335 43.7181924,11.7165729 44.4525,10.8525 C45.2199096,10.1317475 46.2330876,9.73623656 47.2801809,9.74248401 L47.505,9.75 L47.85,9.75 L48.0675,9.6675 Z M30,19.1325 L30.0888006,19.1416073 C30.2053869,19.1627727 30.3134297,19.2194687 30.3975,19.305 C30.4998322,19.4088445 30.5565203,19.549215 30.555,19.695 C30.553272,19.8438106 30.494163,19.9862096 30.39,20.0925 C30.3069244,20.1743657 30.2004721,20.2270193 30.0865723,20.2440277 L30,20.25 L29.9128075,20.2399894 C29.7983963,20.2179397 29.6925853,20.1616202 29.61,20.0775 C29.3956071,19.8587755 29.3956071,19.5087245 29.61,19.29 C29.7138445,19.1876678 29.854215,19.1309797 30,19.1325 Z M30.645,4.0875 C31.107336,4.12698274 31.5645917,4.21240414 32.01,4.3425 C33.6354557,4.88895058 34.5822689,6.57829877 34.2,8.25 C34.0354614,8.67814768 33.7940137,9.07186125 33.488208,9.4119898 L33.33,9.5775 L32.9475,9.9675 C32.127495,10.6878524 31.4944046,11.5963113 31.1025,12.615 C30.8333749,13.5962264 30.6575932,14.600693 30.5775,15.615 C30.4875,16.4625 30.135,16.455 30.0075,16.4625 C29.88,16.47 29.4375,16.4775 29.4375,15.63 C29.3460668,13.3596267 30.2044507,11.1585607 31.7979949,9.55124021 L32.01,9.345 L32.16,9.195 L32.37,8.9925 C33.0760615,8.52165118 33.3573288,7.62159581 33.045,6.8325 C32.7553391,5.95418014 31.9711934,5.33216988 31.05,5.25 C30.3484808,5.1915485 29.6431161,5.19656889 28.9425,5.265 C27.8340115,5.38382487 26.9662737,6.25645406 26.8407062,7.34946256 L26.8275,7.515 L26.8275,8.3925 C26.8335821,8.55021872 26.775675,8.70370294 26.6669285,8.81809865 C26.5581819,8.93249436 26.4078244,8.99809369 26.25,9 C26.0986453,8.98852545 25.9581185,8.91715592 25.8595676,8.80171057 C25.7610167,8.68626522 25.7125823,8.53628024 25.725,8.385 C25.5818267,7.25813898 25.9193632,6.12303619 26.655,5.2575 C27.4003985,4.53059556 28.3972321,4.1245898 29.4326189,4.11984558 L29.655,4.125 L30.33,4.125 L30.33,4.0875 L30.645,4.0875 Z" id="Combined-Shape" fill="url(#linearGradient-1)"></path>
            </g>
        </g>
    </g>
</svg>