<?xml version="1.0" encoding="UTF-8"?>
<svg width="62px" height="61px" viewBox="0 0 62 61" version="1.1" xmlns="http://www.w3.org/2000/svg" xmlns:xlink="http://www.w3.org/1999/xlink">
    <title>coon-5</title>
    <defs>
        <linearGradient x1="88.2018582%" y1="59.9023025%" x2="11.605794%" y2="38.6057852%" id="linearGradient-1">
            <stop stop-color="#BD6517" offset="0%"></stop>
            <stop stop-color="#C0691A" offset="20%"></stop>
            <stop stop-color="#C87523" offset="41%"></stop>
            <stop stop-color="#D68A32" offset="61%"></stop>
            <stop stop-color="#E9A647" offset="82%"></stop>
            <stop stop-color="#FEC55E" offset="100%"></stop>
        </linearGradient>
        <linearGradient x1="17.2111547%" y1="74.4681017%" x2="82.6158399%" y2="25.6780551%" id="linearGradient-2">
            <stop stop-color="#F28F3B" offset="0%"></stop>
            <stop stop-color="#F7A74B" offset="49%"></stop>
            <stop stop-color="#FEC55E" offset="100%"></stop>
        </linearGradient>
        <linearGradient x1="68.6624247%" y1="83.2573986%" x2="36.4670591%" y2="26.2254419%" id="linearGradient-3">
            <stop stop-color="#FEC55E" offset="0%"></stop>
            <stop stop-color="#F7A74B" offset="51%"></stop>
            <stop stop-color="#F28F3B" offset="100%"></stop>
        </linearGradient>
        <linearGradient x1="69.6158846%" y1="79.1598527%" x2="25.2246667%" y2="13.6066876%" id="linearGradient-4">
            <stop stop-color="#F28F3B" offset="12%"></stop>
            <stop stop-color="#F49941" offset="36%"></stop>
            <stop stop-color="#FAB352" offset="76%"></stop>
            <stop stop-color="#FEC55E" offset="100%"></stop>
        </linearGradient>
    </defs>
    <g id="Page-1" stroke="none" stroke-width="1" fill="none" fill-rule="evenodd">
        <g id="AETERNUM" transform="translate(-1135.000000, -1149.000000)" fill-rule="nonzero">
            <g id="coon-5" transform="translate(1135.178625, 1149.874190)">
                <path d="M56.979783,38.8795134 C47.9538765,49.6710466 29.3402732,51.9153415 15.404434,43.892632 C5.45558629,38.1600778 0.580048983,28.7472239 1.89280388,19.9018928 L0.21029924,31.2466175 C-1.10245566,40.0919486 3.77021537,49.5076688 13.7219294,55.2373566 C27.6549022,63.2629325 46.2685056,61.0157712 55.282947,50.224238 C57.7312559,47.3613823 59.3323689,43.8722861 59.9062519,40.1492741 L61.5916228,28.8045494 C61.0197221,32.5259667 59.4227914,36.0146003 56.979783,38.8795134 L56.979783,38.8795134 Z" id="Path" fill="url(#linearGradient-1)"></path>
                <path d="M48.0914578,4.81094404 C34.1556187,-3.21463178 15.5448816,-0.96747055 6.53044019,9.82406264 C-2.48400121,20.6155958 1.48292626,35.8670562 15.4158991,43.892632 C29.348872,51.9182078 47.9653416,49.6710466 56.9912481,38.8795134 C66.0171546,28.0879802 62.0244307,12.8336536 48.0914578,4.81094404 Z" id="Path" fill="url(#linearGradient-2)"></path>
                <path d="M48.0914578,4.81094404 C34.1556187,-3.21463178 15.5448816,-0.96747055 6.53044019,9.82406264 C4.93343076,11.703197 3.68074792,13.8495444 2.83007649,16.1642675 C3.66442493,14.0826563 4.82552771,12.147485 6.26960898,10.4317134 C15.2955155,-0.35981981 33.9091188,-2.60411476 47.8306266,5.41859478 C59.2011477,11.9651716 63.9448363,23.3270939 60.3992516,33.1498255 C64.3919755,23.1837801 59.6941474,11.4922359 48.0914578,4.81094404 Z" id="Path" fill="#FEDC9E"></path>
                <path d="M52.0784492,37.7903281 C48.1229868,41.4305 42.4678222,43.6919926 36.1505475,44.1591957 C29.6478802,44.6455196 23.1473217,43.1889795 17.4738861,39.9744312 C11.3027915,36.4202476 7.18108509,31.1119025 6.16928928,25.4108774 C5.35526659,20.8248341 6.57343435,16.4508952 9.69194381,12.7218688 C10.2249553,12.0819682 10.799449,11.4777924 11.4117101,10.9132479 C15.3643061,7.27307604 21.0223371,5.01158343 27.3396118,4.54438027 C33.8413488,4.05828431 40.3409258,5.51482806 46.0134069,8.7291448 C52.1845015,12.2804621 56.3062079,17.5916735 57.32087,23.2955649 C58.1348927,27.8816082 56.9138586,32.255547 53.7953492,35.9817072 C53.2624057,36.6216684 52.6879079,37.2258485 52.0755829,37.7903281 L52.0784492,37.7903281 Z" id="Path" fill="url(#linearGradient-3)"></path>
                <path d="M51.4736648,37.1368169 C47.6672488,40.6394075 42.2012584,42.8177781 36.0846231,43.2706498 C29.7600996,43.742116 23.4378712,42.326647 17.918159,39.2034027 C11.9763666,35.7810678 8.01230544,30.6962923 7.04637007,25.2532321 C6.28107409,20.9538165 7.43331747,16.8149124 10.376984,13.2922579 C10.8891429,12.6844658 11.4396354,12.1100388 12.0250933,11.5724917 C15.8315093,8.06990107 21.2946334,5.89153049 27.414135,5.43865872 C33.7385215,4.96620282 40.0606557,6.38386933 45.5777328,9.51163844 C51.5195252,12.9339733 55.4835864,18.0187488 56.452388,23.461809 C57.217684,27.7612246 56.0654406,31.902995 53.1217741,35.4227832 C52.6104115,36.0312906 52.0598712,36.6057674 51.4736648,37.1425495 L51.4736648,37.1368169 Z" id="Path" fill="url(#linearGradient-4)"></path>
                <path d="M46.6468542,20.1913868 L46.3029009,20.6184621 C44.9614167,19.0075654 42.9817976,18.0648896 40.8856372,18.0388127 C39.5642669,18.0522529 38.2769186,18.4594142 37.1881398,19.2082538 C37.2884595,18.8528354 37.3515176,18.6034693 37.3830466,18.4601555 C37.4195678,18.1750471 37.4282075,17.8870573 37.4088431,17.6002724 C37.3977852,17.055114 37.2414498,16.5227818 36.9559714,16.0582153 L36.9559714,16.0582153 L36.6693437,14.6852686 L36.3655183,15.290053 C36.0087632,14.9262878 35.6126985,14.6032835 35.1846121,14.3269839 C33.9279198,13.5261933 32.4574833,13.1263465 30.9683185,13.1804731 C29.9803001,13.2333283 29.0166242,13.5065657 28.1479019,13.9801644 C27.3138083,14.4108514 26.5375691,14.9453586 25.8376826,15.5709482 L22.8538881,13.5645542 L20.3860236,12.8078571 L21.0968603,15.2699891 L24.0634571,17.276383 L22.6073883,18.723853 L19.6207276,16.6773311 L17.1041363,15.9693607 L17.814973,18.434359 L20.8016338,20.4894796 L19.1449256,22.1318564 L15.2095272,22.8713559 L15.9174976,25.3334879 L19.5175416,27.8816082 L21.7131099,25.6459121 C22.3302978,25.0732153 23.2613663,25.0030582 23.9574048,25.4768018 L33.6425551,32.2039541 C34.3591243,32.7026863 34.5024382,33.5940984 33.9549793,34.210348 L31.1058998,34.127226 L31.8138703,36.589358 L35.6862106,39.3295189 L38.7817899,35.7868004 L40.3725736,33.9695807 L43.8608328,36.3715209 L45.5662677,34.365127 L44.8582973,31.902995 L42.0952062,32.0004484 L43.4910831,30.4039321 L46.9506795,32.7428141 L48.610254,30.796612 L47.8994172,28.33448 L45.1621226,28.489259 L45.1850528,28.4663287 C47.1169236,26.2564291 47.8306266,24.3245584 47.3576909,22.6535188 L47.3146967,22.5302689 L47.3146967,22.5302689 L46.6468542,20.1913868 Z M30.2861446,23.9548086 L26.1501068,21.1372583 L27.7638208,19.4948815 C28.7412213,18.4974171 29.5667091,17.8869001 30.2431504,17.6518653 C30.9195918,17.4168306 31.676289,17.5802084 32.5132419,18.1391324 C33.3501948,18.6980565 33.6884155,19.2856433 33.50784,19.9190905 C33.3272646,20.5525377 32.7798057,21.352229 31.8654633,22.3009668 L30.2861446,23.9548086 Z M42.103805,24.3188258 C41.9604911,25.0325288 41.4330962,25.8952782 40.5130212,26.9185391 L38.2801914,29.4007351 L33.714212,26.2908244 L35.6575478,24.1984422 C36.7410006,23.0347337 37.6687189,22.2875908 38.4407029,21.9570135 C39.2126868,21.6264362 40.0505952,21.7601958 40.9544279,22.3582923 C41.8601714,22.9602105 42.2471188,23.6137217 42.0980724,24.3188258 L42.103805,24.3188258 Z" id="Shape" fill="#BF7200"></path>
                <path d="M40.1748005,15.5680819 C38.8543766,15.5791541 37.5675354,15.9854724 36.4801694,16.7346567 C36.5776228,16.3792383 36.6406809,16.1298722 36.6722099,15.9894246 C36.7101865,15.7044509 36.7197879,15.4164116 36.7008727,15.1295415 C36.6855859,13.9027749 35.9403538,12.8097679 34.4651766,11.8505205 C33.2103945,11.0464211 31.7412959,10.6416694 30.2517493,10.6896783 C29.2628803,10.7428784 28.298346,11.0160815 27.4284664,11.4893696 C26.5960222,11.922804 25.8201118,12.4570848 25.118247,13.0801534 L22.1344526,11.0737594 L20.3774247,12.7935257 L23.3468878,14.7999196 L21.8879528,16.2330582 L18.9098909,14.203734 L17.1041363,15.9578956 L20.090797,18.0130162 L18.4340889,19.6582593 L15.2095272,22.8598908 L18.8067049,25.4051448 L21.0022732,23.1694487 C21.6199111,22.5977835 22.5502393,22.5276821 23.2465681,23.0003384 L32.9259858,29.7504209 C33.6425551,30.2462868 33.7858689,31.1405653 33.2412763,31.7568148 L31.1001673,34.1358248 L34.9696413,36.8731194 L38.0852845,33.3218021 L39.673202,31.5045824 L43.1614612,33.9065226 L44.8812275,31.9001287 L41.4072997,29.5325838 L42.8031766,27.9360675 L46.2656393,30.2749496 L47.9223475,28.3316137 L44.482815,26.0242607 L44.5028789,26.0013305 C46.4347497,23.7914308 47.1484526,21.8595601 46.6755169,20.1885206 C46.2557649,18.7465886 45.3121491,17.5136519 44.0299432,16.7317904 C42.8929922,15.9611775 41.5482404,15.5552524 40.1748005,15.5680819 Z M31.8024052,15.6770004 C32.6450906,16.234969 32.9766234,16.8282884 32.7970033,17.4569585 C32.6173833,18.0856286 32.0699244,18.8786319 31.1546266,19.8359685 L29.5781742,21.4898103 L25.4421363,18.6837251 L27.0529841,17.0413483 C28.0332508,16.0467502 28.8558723,15.4333669 29.5323137,15.2011984 C30.2087551,14.96903 30.962586,15.1180764 31.8024052,15.6770004 Z M41.3929683,21.8566938 C41.2515653,22.5675305 40.7222594,23.4331462 39.8050508,24.4535408 L37.5693547,26.9386031 L33.0033753,23.8258262 L34.9467111,21.7363102 C36.0330301,20.5697354 36.9531051,19.8273696 37.7327324,19.4948815 C38.5123598,19.1623934 39.3378476,19.2971084 40.2435912,19.893294 C41.1493347,20.4894796 41.524817,21.1487234 41.3929683,21.8566938 Z" id="Shape" fill="#FEC55E"></path>
                <path d="M33.5451016,31.1405653 C33.5068845,31.3646483 33.4077194,31.5738867 33.2584739,31.7453497 L31.117365,34.1243597 L31.3294695,34.2734061 L33.2412763,32.1494948 C33.4877303,31.8752023 33.5991099,31.5053379 33.5451016,31.1405653 L33.5451016,31.1405653 Z" id="Path" fill="#FEDC9E"></path>
                <path d="M29.5609765,21.8968217 L31.1374289,20.2401135 C32.0527267,19.2846878 32.6001856,18.4916845 32.7798057,17.8611036 C32.8269731,17.7012247 32.8387108,17.5329835 32.814201,17.3681039 C32.814201,17.3967667 32.814201,17.4254294 32.7970033,17.4569585 C32.6173833,18.0837178 32.0699244,18.8767211 31.1546266,19.8359685 L29.5781742,21.4898103 L25.6685722,18.8270389 L25.4249387,19.0792713 L29.5609765,21.8968217 Z" id="Path" fill="#FEDC9E"></path>
                <path d="M41.3929683,21.8538275 L41.3929683,21.8538275 C41.2515653,22.5646642 40.7222594,23.4302799 39.8050508,24.4506746 L37.5693547,26.9357368 L33.2126135,23.9777388 L32.9747125,24.2299712 L37.5435582,27.3427481 L39.776388,24.8605522 C40.6964629,23.8372913 41.2095265,22.9716756 41.3671718,22.2608389 C41.395733,22.1271744 41.4044253,21.9900284 41.3929683,21.8538275 Z" id="Path" fill="#FEDC9E"></path>
                <path d="M22.1172549,11.4979685 L25.1039156,13.5043624 C25.7998363,12.8817041 26.5700088,12.3473969 27.3969373,11.9135786 C28.2673259,11.4415401 29.2315731,11.1684183 30.2202202,11.1138873 C31.7098099,11.0655166 33.1790138,11.4702973 34.4336475,12.2747295 C35.9107357,13.2301552 36.6559677,14.3231622 36.6693437,15.5537505 C36.6693437,15.6798667 36.6693437,15.7887852 36.6693437,15.8891049 C36.684051,15.6428245 36.684051,15.3958859 36.6693437,15.1496055 C36.6540568,13.9228389 35.9088248,12.8298319 34.4336475,11.8705845 C33.1788654,11.066485 31.7097669,10.6617334 30.2202202,10.7097423 C29.2313512,10.7629423 28.2668169,11.0361454 27.3969373,11.5094336 C26.5644931,11.942868 25.7885827,12.4771487 25.086718,13.1002173 L22.1029235,11.0938234 L20.3458957,12.8135896 L20.5809304,12.9741011 L22.1172549,11.4979685 Z" id="Path" fill="#FEDC9E"></path>
                <path d="M44.4570185,26.4226732 L44.4369545,26.4456034 L47.6729813,28.6125089 L47.8994172,28.3488114 L44.6605241,26.1819059 C44.5945998,26.2478303 44.5286754,26.328086 44.4570185,26.4226732 Z" id="Path" fill="#FEDC9E"></path>
                <polygon id="Path" fill="#FEDC9E" points="41.3671718 29.9424614 44.6318614 32.1666925 44.8582973 31.902995 41.5964739 29.6816302"></polygon>
                <polygon id="Path" fill="#FEDC9E" points="18.8955595 14.627943 21.8707551 16.6572672 23.3296901 15.2097973 23.0946554 15.052152 21.8879528 16.2502558 18.9098909 14.223798 17.1041363 15.9779595 17.339171 16.138471"></polygon>
                <path d="M44.0012804,16.7346567 C42.8727249,15.9685872 41.538788,15.5619113 40.1748005,15.5680819 C38.8986207,15.5800015 37.6532078,15.961291 36.5890879,16.665866 C36.5575588,16.7948485 36.5145647,16.9524937 36.4629717,17.1388017 C37.5518439,16.3905032 38.8393153,15.984301 40.1604691,15.972227 C41.5232965,15.9678846 42.8557896,16.3744249 43.9840828,17.1388017 C45.2662887,17.9206632 46.2099045,19.1535999 46.6296565,20.5955319 C46.7195894,20.9117097 46.7668242,21.2384969 46.7701041,21.5671998 C46.8121863,21.1049154 46.7704329,20.6388308 46.6468542,20.1913868 C46.2271021,18.7494549 45.2834864,17.5165182 44.0012804,16.7346567 L44.0012804,16.7346567 Z" id="Path" fill="#FEDC9E"></path>
                <polygon id="Path" fill="#FEDC9E" points="18.4168912 20.0824683 20.0735994 18.4400915 19.8442972 18.27958 18.4340889 19.6783232 15.2095272 22.8799547 15.4359631 23.0404662"></polygon>
            </g>
        </g>
    </g>
</svg>