<?xml version="1.0" encoding="UTF-8"?>
<svg width="60px" height="60px" viewBox="0 0 60 60" version="1.1" xmlns="http://www.w3.org/2000/svg" xmlns:xlink="http://www.w3.org/1999/xlink">
    <title>crypto</title>
    <defs>
        <linearGradient x1="-0.480951778%" y1="50.0189897%" x2="100.215163%" y2="50.0189897%" id="linearGradient-1">
            <stop stop-color="#4E82E7" offset="0%"></stop>
            <stop stop-color="#6039E4" offset="48%"></stop>
            <stop stop-color="#771EE3" offset="100%"></stop>
        </linearGradient>
    </defs>
    <g id="Page-1" stroke="none" stroke-width="1" fill="none" fill-rule="evenodd">
        <g id="AETERNUM" transform="translate(-735.000000, -4058.000000)" fill-rule="nonzero">
            <g id="crypto" transform="translate(735.000000, 4058.000000)">
                <rect id="Rectangle" x="0" y="0" width="60" height="60"></rect>
                <path d="M39.54,0.3675 L40.29,0.48 C40.8075,0.5625 41.3175,0.6375 41.8275,0.75 C50.2767011,2.25192996 57.0291825,8.62436331 59.0175,16.9725 C59.19,17.745 59.3175,18.585 59.445,19.335 C59.505,19.7025 59.565,20.07 59.625,20.3775 L59.625,20.3775 L59.58,23.685 C59.5425,23.8875 59.49,24.09 59.49,24.2925 C59.43,24.72 59.37,25.1475 59.2875,25.5675 C57.51,34.32 52.275,40.125 43.74,42.8175 C43.2465562,42.9525562 42.8666256,43.3468781 42.75,43.845 C40.3125,51.78 35.0025,56.88 27,59.01 C26.2362858,59.1965843 25.4625213,59.3393176 24.6825,59.4375 C24.3075,59.4975 23.9325,59.55 23.625,59.61 L23.625,59.61 L20.4375,59.61 L19.74,59.4975 L18.1725,59.25 C9.74703611,57.7032387 3.01416493,51.3550191 0.975,43.035 C0.8025,42.255 0.675,41.4225 0.5475,40.6725 C0.4875,40.2975 0.4275,39.93 0.3675,39.6225 L0.3675,39.6225 L0.3675,36.435 L0.4425,35.925 C0.495,35.5875 0.5475,35.2425 0.6075,34.905 C2.25,25.9875 7.4025,20.0475 16.0425,17.25 C16.642817,17.106715 17.1104349,16.6361927 17.25,16.035 C19.725,8.1675 25.0275,3.105 33,0.99 C33.7640631,0.799413488 34.5376348,0.649205398 35.3175,0.54 C35.6925,0.4875 36.0675,0.4275 36.375,0.3675 L36.375,0.3675 L39.54,0.3675 Z M56.655,40.4625 C56.8691249,40.3761644 57.1083751,40.3761644 57.3225,40.4625 C57.4985829,40.6035055 57.6118058,40.8083849 57.6375,41.0325 C57.675,41.25 57.705,41.3925 57.75,41.5725 L57.75,41.5725 L58.5525,46.5 L57.3375,46.7325 L56.685,43.0425 L56.1675,43.95 C52.2506847,51.2295083 45.4918685,56.5599848 37.5,58.6725 L37.5,58.6725 L37.2225,57.465 C45.0190682,55.390363 51.5791267,50.1237988 55.29,42.96 L55.29,42.96 L55.74,42.1275 L51.555,43.5 L51.165,42.2925 L51.87,42.06 C53.46,41.495 55.055,40.9625 56.655,40.4625 Z M21.96,17.625 L21.6102244,17.6346581 C10.6741254,18.0289166 1.97341839,27.0137996 1.97341839,37.99875 C1.97341839,49.1005615 10.8602315,58.1595248 21.96,58.3725 L21.96,58.3725 L22.3097756,58.3628419 C33.2458746,57.9685834 41.9465816,48.9837004 41.9465816,37.99875 C41.9465816,26.8969385 33.0597685,17.8379752 21.96,17.625 L21.96,17.625 Z M25.65,53.9925 L25.9575,55.2 L22.89,55.635 L22.89,54.3825 L25.65,53.9925 Z M15.7575,53.175 L18.4725,54.0225 L18.24,55.245 L15.2475,54.315 L15.7575,53.175 Z M32.13,50.9025 L32.925,51.8625 L30.3075,53.58 L29.7375,52.47 L32.13,50.9025 Z M9.8775,49.05 L11.97,50.985 L11.2425,51.99 L8.9325,49.875 L9.8775,49.05 Z M24.6,26.4075 L24.6,29.355 L24.9525,29.355 C26.4044693,29.3734429 27.7697774,30.0492014 28.665,31.1925 C29.3918622,32.1655669 29.7337346,33.3728039 29.625,34.5825 L29.625,34.5825 L28.3575,34.5825 L28.3575,34.5825 L28.3575,33.9825 C28.3492418,32.1326838 26.8473346,30.6374816 24.9975,30.6375 L24.9975,30.6375 L18.9975,30.6375 C17.133539,30.6375 15.6225,32.148539 15.6225,34.0125 C15.6225,35.876461 17.133539,37.3875 18.9975,37.3875 L18.9975,37.3875 L25.125,37.3875 C27.4432627,37.4320568 29.3642394,39.198583 29.6025,41.505 C29.8280025,43.7578181 28.400762,45.8464626 26.22,46.455 C25.965,46.5225 25.695,46.56 25.41,46.6125 L25.41,46.6125 L24.9525,46.6875 L24.645,46.74 L24.645,49.545 L23.3925,49.545 L23.3925,46.635 L20.6325,46.635 L20.6325,49.56 L19.395,49.56 L19.395,46.6425 L19.05,46.6425 C17.7115989,46.6314409 16.4404687,46.0541613 15.5514306,45.053636 C14.6623924,44.0531107 14.2385948,42.7229154 14.385,41.3925 L14.385,41.3925 L15.63,41.3925 L15.63,41.3925 L15.63,42 C15.6259894,42.89434 15.9794906,43.753209 16.6118908,44.3856092 C17.244291,45.0180094 18.10316,45.3715106 18.9975,45.3675 L18.9975,45.3675 L24.9975,45.3675 C26.861461,45.3675 28.3725,43.856461 28.3725,41.9925 C28.3725,40.128539 26.861461,38.6175 24.9975,38.6175 L24.9975,38.6175 L18.9375,38.6175 C16.6416505,38.5968626 14.7105183,36.8908251 14.4069546,34.6150396 C14.1033908,32.3392541 15.5198295,30.186689 17.73,29.565 C18.0063118,29.49081 18.2868123,29.4332072 18.57,29.3925 L18.57,29.3925 L19.065,29.31 L19.3725,29.25 L19.3725,26.415 L20.61,26.415 L20.61,29.325 L23.37,29.325 L23.37,26.4075 L24.6,26.4075 Z M36.675,45.345 L37.8075,45.8775 L36.1575,48.54 L35.175,47.775 L36.675,45.345 Z M6.315,42.8175 L7.3875,45.465 L6.3,46.0575 L5.115,43.17 L6.315,42.8175 Z M38.94,1.6425 C29.6201292,1.18270934 21.1926548,7.15100897 18.5325,16.095 L18.5325,16.095 L18.39,16.6125 L18.9225,16.5675 L19.3875,16.5225 C19.725,16.485 20.055,16.4475 20.385,16.4475 C20.9380773,16.4780397 21.4376602,16.1189646 21.585,15.585 C21.81,15.03 22.065,14.4975 22.335,13.9275 C22.3875,13.815 22.44,13.695 22.5,13.5825 L22.5,13.5825 L23.5875,14.2725 L22.56,16.44 L23.115,16.44 C26.133317,16.6042442 29.0850883,17.3907023 31.785,18.75 L31.785,18.75 L32.3325,18.9825 L32.3325,14.61 L30.4125,14.61 L30.4125,13.35 L32.3925,13.35 L32.3925,10.4175 L33.6525,10.4175 L33.6525,13.3425 L36.39,13.3425 L36.39,10.425 L37.65,10.425 L37.65,13.38 L42.06,13.38 C43.9220886,13.3981076 45.5906363,14.5341401 46.29,16.26 C47.01263,18.0022208 46.5860937,20.0096254 45.2175,21.3075 C45.1421307,21.3704872 45.0556431,21.4188186 44.9625,21.45 C44.8878439,21.4803458 44.8151967,21.5154168 44.745,21.555 L44.745,21.555 L44.25,21.81 L44.6625,22.17 C46.1682278,23.3567587 46.8618395,25.3006199 46.4475,27.1725 C46.01838,28.9038223 44.6323886,30.2343741 42.885,30.5925 L42.885,30.5925 L42.5325,30.675 L43.8075,37.2525 L44.7,36.945 L45.2175,38.0325 C43.9125,38.34 43.3125,39.285 43.44,40.785 C43.4428153,40.829956 43.4428153,40.875044 43.44,40.92 L43.44,40.92 L43.365,41.625 L43.8975,41.4675 C53.3439346,38.639944 59.3946378,29.4357902 58.245,19.6425 C57.0200878,9.75816237 48.8857704,2.17371721 38.94,1.6425 Z M39.54,36.4875 C39.7042745,38.161536 39.6132356,39.8508149 39.27,41.4975 L39.27,41.4975 L38.1525,41.25 L38.4075,36.615 Z M4.5225,35.46 L5.76,35.6625 L5.595,38.505 L4.35,38.5875 L4.5225,35.46 Z M50.4825,32.6925 L51.435,33.465 L49.245,35.7225 L48.5175,34.7925 L50.4825,32.6925 Z M37.245,29.1 L38.5875,31.9275 L37.4025,32.3325 L36.18,29.7525 L37.245,29.1 Z M7.29,28.2375 L8.31,28.95 L6.9525,31.455 L5.7825,30.99 L7.29,28.2375 Z M53.8275,26.325 L55.035,26.6325 L53.955,29.565 L52.8375,29.01 L53.8275,26.325 Z M42.2025,22.62 L37.23,22.62 L37.8075,23.25 C39.3635929,24.943097 40.657891,26.8592648 41.6475,28.935 C41.8312344,29.1816871 42.1282287,29.3174559 42.435,29.295 L42.435,29.295 L42.54,29.295 C44.2330073,29.0220177 45.4504759,27.5203654 45.3675,25.8075 C45.299321,24.084748 43.9247258,22.7003808 42.2025,22.62 L42.2025,22.62 Z M31.9875,23.4375 L34.3425,25.3875 L33.48,26.28 L31.305,24.4875 L31.9875,23.4375 Z M12.855,22.8975 L13.485,23.97 L11.1825,25.6725 L10.335,24.75 L12.855,22.8975 Z M24.81,20.58 L27.8475,21.3375 L27.4125,22.5075 L24.645,21.81 L24.81,20.58 Z M20.175,20.4675 L20.175,20.5725 C20.205,21 20.25,21.375 20.25,21.75 L20.25,21.75 L19.79934,21.82296 C19.1967,21.9216 18.5835,22.026 17.9175,22.14 L17.9175,22.14 L17.475,22.245 L17.1075,21.0675 L20.175,20.4675 Z M55.38,18.915 L55.65,21.9975 L54.4125,21.9975 L54.165,19.17 L55.38,18.915 Z M42.18,14.625 L33.645,14.625 L33.645,15.9 C33.6760303,16.4924824 33.6660063,17.0864022 33.615,17.6775 C33.42,19.2525 33.945,20.3025 35.22,20.88 C35.3122753,20.9240965 35.4001676,20.9768319 35.4825,21.0375 C35.6974431,21.2092769 35.9583848,21.3136535 36.2325,21.3375 C37.4475,21.375 38.625,21.375 39.555,21.375 L42.18,21.375 C44.043961,21.375 45.555,19.863961 45.555,18 C45.555,16.136039 44.043961,14.625 42.18,14.625 L42.18,14.625 Z M22.5,1.3275 L22.7775,2.535 C14.9692007,4.60885356 8.40453854,9.89273899 4.71,17.0775 L4.71,17.0775 L4.2525,17.9025 L8.445,16.545 L8.835,17.715 L8.7075,17.7675 C6.975,18.345 5.2425,18.93 3.5025,19.5 C3.24789822,19.6257934 2.95360091,19.6446932 2.685,19.5525 C2.5275,19.4625 2.415,19.2 2.34,18.765 C2.1075,17.46 1.89,16.1475 1.6725,14.835 L1.6725,14.835 L1.5,13.8 C1.455,13.7025 1.455,13.605 1.455,13.5 L1.455,13.5 L2.67,13.275 L3.315,16.9575 L3.8325,16.05 C7.74931534,8.77049174 14.5081315,3.44001521 22.5,1.3275 L22.5,1.3275 Z M52.395,11.7975 L53.985,14.4975 L52.845,15.0075 L51.405,12.5475 L52.395,11.7975 Z M27.57,7.755 L28.29,8.775 L26.145,10.665 L25.2225,9.8325 L27.57,7.755 Z M46.6725,6.615 L49.2525,8.4 L48.435,9.3375 L46.08,7.7175 L46.6725,6.615 Z M34.6425,4.6575 L34.86,5.9025 L32.115,6.6825 L31.635,5.535 L34.6425,4.6575 Z M39.285,4.395 L42.36,4.89 L42.03,6.09 L39.285,5.6475 L39.285,4.395 Z" id="Combined-Shape" fill="url(#linearGradient-1)"></path>
            </g>
        </g>
    </g>
</svg>