<?xml version="1.0" encoding="UTF-8"?>
<svg width="80px" height="80px" viewBox="0 0 80 80" version="1.1" xmlns="http://www.w3.org/2000/svg" xmlns:xlink="http://www.w3.org/1999/xlink">
    <title>earn</title>
    <defs>
        <linearGradient x1="0%" y1="100%" x2="100%" y2="100%" id="linearGradient-1">
            <stop stop-color="#4E82E7" offset="0%"></stop>
            <stop stop-color="#6039E4" offset="48.2604554%"></stop>
            <stop stop-color="#771EE3" offset="100%"></stop>
        </linearGradient>
    </defs>
    <g id="Page-1" stroke="none" stroke-width="1" fill="none" fill-rule="evenodd">
        <g id="AETERNUM" transform="translate(-680.000000, -5098.000000)" fill-rule="nonzero">
            <g id="earn" transform="translate(680.000000, 5098.000000)">
                <rect id="Rectangle" x="0" y="0" width="80" height="80"></rect>
                <path d="M66.5216,0.7984 C66.6128,0.8912 66.704,0.9808 66.7952,1.0688 C67.1088,1.3728 67.4048,1.6624 67.5488,1.9616 C68.1424,3.1872 68.6704,4.4416 69.2288,5.7696 C69.4544,6.304 69.6816,6.8464 69.92,7.3984 L69.92,7.3984 L70.3408,8.3792 L72.16,6.5472 L74.3568,4.328 C74.8608,3.8208 75.5776,3.3296 76.1312,3.8752 C76.2847302,4.01352992 76.3739619,4.20937604 76.3776,4.416 C76.3776,4.7728 76.136,5.2096 75.696,5.6448 C74.9616,6.3712 74.2256,7.096 73.456,7.8528 L73.456,7.8528 L71.6384,9.64 L72.6064,10.0688 L73.6912,10.5488 C74.4704,10.8976 75.2,11.2176 75.9312,11.5376 C76.7408,11.8896 77.5632,12.2352 78.3632,12.568 L78.3632,12.568 L78.3744,12.5792 C78.8368,12.7728 79.1216,13.0368 79.1824,13.336 C79.2432,13.6352 79.0784,14 78.7184,14.3664 C76.9872,16.1264 75.208,17.9008 73.488,19.6176 C72.8138667,20.2885333 72.1408,20.9605333 71.4688,21.6336 L71.4688,21.6336 L70.8208,22.2736 C70.4336,22.6512 70.0288,23.0528 69.6432,23.4512 C69.2576,23.8496 68.8992,23.9392 68.4448,23.7568 C67.0848,23.2064 65.7088,22.6208 64.3776,22.056 L64.3776,22.056 L63.664,21.752 C63.4,21.64 63.1376,21.5216 62.8752,21.4048 C62.4576,21.2176 62.024,21.0224 61.5824,20.8512 C61.1299532,20.6926377 60.6271048,20.7918599 60.2688,21.1104 C58.7312,22.6144 57.1808,24.1616 55.6816,25.6544 L55.6816,25.6544 L54.1504,27.1776 L54.592,27.6848 C58.0208,31.6288 60.2816,35.8016 61.504,40.4416 C62.464,44.0464 62.784,47.5936 62.464,50.984 C62,55.9312 60.4944,60.4752 57.984,64.4896 C54.4752,70.0992 49.7152,74.2048 43.8368,76.6944 C38.12,79.1136 32.2624,79.7904 26.4224,78.704 C23.776985,78.2290408 21.2005758,77.4282795 18.752,76.32 C14.9223166,74.5507614 11.4985173,72.0109625 8.6944,68.8592 C5.4208,65.2336 3.1008,60.9072 1.7968,56.0032 C1.5198385,54.8603426 1.31463782,53.7012793 1.1824,52.5328 C1.1008,51.9792 1.032,51.4176 0.9408,50.8592 C0.9104,50.6656 0.8752,50.472 0.84,50.2784 L0.84,50.2784 L0.8048,50.08 L0.8048,46.448 L0.8048,46.448 L0.8656,45.9296 C0.912,45.5376 0.9584,45.1312 1.0144,44.7376 C1.7472,39.472 3.4592,34.9504 6.2272,30.9136 C8.2832,27.9168 10.6816,25.44 13.3472,23.5392 C15.2672,22.1728 17.4064,21.0592 19.4272,20.0576 C22.2576,18.6512 25.5536,17.832 29.5072,17.5312 C34.0721463,17.1885761 38.6550091,17.8940108 42.9056,19.5936 C46.3596925,20.9622775 49.5398035,22.9403629 52.2944,25.4336 L52.2944,25.4336 L52.8016,25.8848 L54.4016,24.2848 C55.8656,22.8256 57.3808,21.3104 58.8496,19.8048 C59.248,19.3968 59.2112,18.6784 59.0512,18.3008 C58.4976,16.9584 57.9232,15.6016 57.368,14.2896 C57.0042667,13.4277333 56.6421333,12.5701333 56.2816,11.7168 C56.0544,11.1744 56.1488,10.784 56.616,10.3248 C57.6352,9.3232 58.6736,8.2768 59.6448,7.2992 C60.616,6.3216 61.6192,5.3104 62.616,4.3296 C63.5008,3.4592 64.4256,2.5952 65.3184,1.7584 C65.6586667,1.4384 65.9984,1.1184 66.3376,0.7984 L66.3376,0.7984 Z M37.7504,20.0096 C25.1300974,17.3046983 12.242584,23.2751147 6.1456,34.6512 C2.9312,40.6128 1.952,47.3344 3.312,54.0896 C4.57966587,60.3197538 7.84985075,65.964475 12.624,70.1632 C17.64,74.5616 23.8864,77.0192 30.6896,77.2816 C31.056,77.3024 31.424,77.3024 31.7904,77.3024 C37.9837476,77.299377 44.012462,75.3077532 48.9888,71.6208 C54.5312,67.4992 58.3216,61.6432 59.9472,54.6864 C61.4592,48.2224 60.7424,41.8816 57.8176,35.84 L57.8176,35.84 L57.545414,35.290691 C56.3498612,32.9339918 54.9462857,30.8858286 53.3744,29.1936 L53.3744,29.1936 L52.8704,28.6528 L47.2,34.2256 L47.6064,34.7344 C51.352,39.3344 53.0736,44.9632 52.4528,50.584 C51.3118943,61.1921502 42.3493112,69.2289979 31.68,69.2112 L31.68,69.2112 L31.6576,69.2112 C26.352,69.2112 21.4304,67.256 17.4304,63.5584 C13.8421097,60.2178658 11.5517142,55.7152916 10.9648,50.848 C10.3136,45.568 11.6704,40.4256 14.888,35.9792 C18.176,31.432 22.6624,28.6592 28.2208,27.736 C34.4432,26.7008 40.2032,28.2992 45.3232,32.4832 L45.3232,32.4832 L45.832,32.8992 L46.2912,32.4304 C46.5392,32.1792 46.7808,31.9312 47.0192,31.688 C47.5568,31.1392 48.0576,30.6352 48.5808,30.104 C49.104,29.5728 49.6512,29.04 50.1808,28.5232 L50.1808,28.5232 L50.88,27.84 L51.3888,27.3216 L50.8704,26.808 C47.6208,23.584 42.8368,21.1072 37.7504,20.0096 Z M32.2976,29.3344 C27.4141809,29.1564071 22.655221,30.8977981 19.04,34.1856 C14.9824,37.8432 12.7184,42.8176 12.6656,48.1904 C12.6128,53.5232 14.7472,58.4832 18.6752,62.1632 C22.2784,65.5424 26.864,67.3696 31.6848,67.3696 C32.0208,67.3696 32.36,67.3616 32.6976,67.344 C37.8816,67.0688 42.6288,64.7216 46.0688,60.7328 C50.2288,55.9072 50.8768,50.7776 50.6864,47.3248 C50.4544,43.1088 48.7792,38.9776 46.2192,36.2576 L46.2192,36.2576 L45.7296,35.7392 L45.2064,36.2192 C44.9856,36.4224 44.768,36.632 44.5504,36.84 C44.0512,37.3184 43.5808,37.7696 43.072,38.1792 C42.816,38.384 42.5184,38.5152 42.0384,38.08 L42.0384,38.08 L41.9405574,37.9837481 C41.7590531,37.7921959 41.6628571,37.6068571 41.656,37.4368 C41.6448,37.152 41.864,36.856 42.048,36.6576 C42.4408169,36.2536039 42.8547285,35.870669 43.288,35.5104 C43.4912,35.3344 43.696,35.1568 43.8976,34.976 L43.8976,34.976 L44.4832,34.4464 L43.904,33.912 C40.9232,31.1632 36.6928,29.4944 32.2976,29.3344 Z M31.5728,34.08 C32.0528,34.0496 32.4272,34.3776 32.5328,34.8976 L32.5328,34.8976 L32.544,34.952 L32.544,34.9728 C32.104,36.9376 33.4784,37.6816 34.5984,38.2816 C36.512,39.312 37.496,41.0176 37.5233075,43.3488 C37.5312,43.9264 37.0912,44.1792 36.6768,44.2224 C36.0368,44.2896 35.8016,43.8496 35.7168,43.4704 C35.6864,43.3296 35.664,43.1792 35.64,43.0192 C35.6095696,42.7390004 35.5560544,42.4617919 35.48,42.1904 C34.9021752,40.1967357 32.9090255,38.9640663 30.8672,39.3376 C28.9728,39.68 27.4576,41.5888 27.5584,43.5088 C27.6874631,45.5737534 29.3334466,47.2197369 31.3984,47.3488 C32.4832,47.4224 33.6272,47.5776 34.6352,48.2016 C36.392,49.2912 37.4224,50.9168 37.52,52.7856 C37.5248,55.7024 36.0544,57.96 33.5872,58.8304 C32.832,59.0976 32.4768,59.6288 32.5344,60.4096 C32.5623109,60.7888205 32.5623109,61.1695795 32.5344,61.5488 C32.4864,62.1808 32.1184,62.5648 31.5744,62.5488 C31.3215249,62.5408868 31.0823669,62.431969 30.9104,62.2464 C30.7404283,62.059423 30.6558131,61.8102141 30.6768,61.5584 C30.7584,60.2304 30.4864,59.1936 28.8976,58.4704 C26.9184,57.5664 25.808,55.8368 25.6976,53.4656 C25.6634167,53.1720569 25.7494024,52.8771666 25.936,52.648 C26.1066963,52.4806058 26.3369352,52.3879346 26.576,52.3904 L26.576,52.3904 L26.6368,52.3904 C27.0384,52.3904 27.4784,52.5168 27.5344,53.3312 C27.6592,55.1424 28.552,56.4192 30.1168,57.0256 C31.8176,57.6832 33.4576,57.3008 34.6144,55.9776 C35.688,54.7504 35.9408,53.3152 35.3472,51.8256 C34.704,50.2176 33.448,49.3344 31.7136,49.2736 C30.0096,49.2144 28.6048,48.6336 27.424,47.5008 C26.2469204,46.3506192 25.6165386,44.7528371 25.6912,43.1088 C25.7321801,41.5122841 26.4528594,40.0092194 27.672,38.9776 C28.0467337,38.6909191 28.4455522,38.4371742 28.864,38.2192 C29.1872,38.0384 29.5216,37.8512 29.8416,37.6336 C30.2415702,37.3517548 30.5217667,36.930604 30.6272,36.4528 C30.6790534,36.130219 30.694617,35.8028454 30.6736,35.4768 L30.6736,35.4768 L30.6736,35.0304 C30.6728659,34.5248703 31.0680038,34.1072334 31.5728,34.08 Z M71.2976,11.5952 C70.792,11.368 70.1216,11.2 69.416,11.9264 C68.1296,13.2544 66.7312,14.6528 65.1424,16.2048 C64.68,16.6576 64.1872,17.0928 63.6656,17.5536 C63.4144,17.776 63.1568,18.0032 62.8912,18.2432 L62.8912,18.2432 L62.056,18.9952 L68.544,21.7776 L76.4896,13.7904 L75.504,13.376 C75.1024,13.2064 74.7008,13.0352 74.3024,12.8752 C73.264,12.4464 72.2832,12.0384 71.2976,11.5952 Z M66.192,3.5872 L58.24,11.4816 L60.9376,17.7872 L61.6896,17.0384 C62.2592,16.4656 62.816,15.8896 63.3536,15.3312 C64.632,14.0096 65.8384,12.7568 67.1504,11.6096 C68.5744,10.3584 68.8208,9.0976 67.9344,7.52 C67.5858891,6.86194389 67.2775903,6.18336601 67.0112,5.488 C66.8832,5.1776 66.752,4.8576 66.6144,4.5472 L66.6144,4.5472 L66.192,3.5872 Z" id="Combined-Shape" fill="url(#linearGradient-1)"></path>
            </g>
        </g>
    </g>
</svg>