<?xml version="1.0" encoding="UTF-8"?>
<svg width="54px" height="15px" viewBox="0 0 54 15" version="1.1" xmlns="http://www.w3.org/2000/svg" xmlns:xlink="http://www.w3.org/1999/xlink">
    <title>goplek-footer</title>
    <g id="Page-1" stroke="none" stroke-width="1" fill="none" fill-rule="evenodd">
        <g id="AETERNUM" transform="translate(-1316.000000, -8640.000000)" fill="#FFFFFF" fill-rule="nonzero">
            <g id="goplek-footer" transform="translate(1316.000000, 8640.000000)">
                <path d="M26.6351945,3.10284718 C28.7624939,3.10284718 30.7843073,4.75014527 30.7843073,7.7745497 L30.7843073,7.7745497 L30.7843073,7.80941315 C30.7843073,10.8251017 28.7976558,12.4723998 26.6351945,12.4723998 C25.2550871,12.4723998 24.4111997,11.8448576 23.7958652,11.1214411 L23.7958652,11.1214411 L23.7958652,15 L21.2114601,15 L21.2114601,3.26844858 L23.7958652,3.26844858 L23.7958652,4.56711215 C24.4287807,3.73038931 25.290249,3.10284718 26.6351945,3.10284718 Z M4.04362689,3.10284718 C4.74686636,3.10284718 5.31824841,3.23358513 5.77535406,3.48634515 C6.22366921,3.74782104 6.62803191,4.06159211 6.97965164,4.44509007 L6.97965164,3.26844858 L9.55526616,3.26844858 L9.55526616,10.2411389 C9.55526616,11.8448576 9.16848445,13.0214991 8.40371154,13.7884951 C7.97297737,14.2155724 7.43675729,14.5206275 6.78626078,14.7123766 C6.1181833,14.9041255 5.35341038,15 4.47436107,15 C3.72716914,15 3.01513918,14.9215573 2.3382712,14.7559559 C1.66140323,14.5903545 1.0372782,14.363742 0.457105648,14.0586869 L1.33615497,12.141197 C1.81084161,12.4026729 2.28552825,12.6031377 2.76900538,12.7425915 C3.2524825,12.8907612 3.79749308,12.9604881 4.40403712,12.9604881 C5.28308644,12.9604881 5.93358294,12.7513074 6.3643171,12.3416618 C6.78626078,11.9233004 6.99723262,11.31319 6.99723262,10.5113306 L6.99723262,10.0755375 C6.61045092,10.5374783 6.19729774,10.8948286 5.74019208,11.1475886 C5.29187693,11.4090645 4.72049487,11.5310866 4.02604591,11.5310866 C3.49861631,11.5310866 2.9887677,11.4352121 2.49650008,11.252179 C2.01302295,11.0691459 1.58228878,10.7989541 1.20429758,10.4416038 C0.826306365,10.0842534 0.536220088,9.63974435 0.316457756,9.12550844 C0.114276412,8.60255667 0,8.00987799 0,7.33875655 L0,7.3038931 C0,6.63277166 0.114276412,6.03137712 0.342829237,5.5171412 C0.571382061,4.99418943 0.870258831,4.55839629 1.23945955,4.20104591 C1.60866026,3.84369554 2.03939443,3.57350378 2.53166205,3.3817548 C3.01513918,3.19872168 3.5161973,3.10284718 4.04362689,3.10284718 Z M39.9264203,3.10284718 C42.9679309,3.10284718 44.356829,5.43869844 44.3656194,8.00987799 C44.3656194,8.21034284 44.3480384,8.44567114 44.3304574,8.68099943 L44.3304574,8.68099943 L37.9925118,8.68099943 C38.2474361,9.84020919 39.064952,10.4503196 40.2165066,10.4503196 C41.0779749,10.4503196 41.7108904,10.1801278 42.4229204,9.52643814 L42.4229204,9.52643814 L43.8997233,10.8251017 C43.0558359,11.8710053 41.8339573,12.5072632 40.1813446,12.5072632 C37.4475012,12.5072632 35.4256878,10.5984892 35.4256878,7.83556073 L35.4256878,7.83556073 L35.4256878,7.80069728 C35.4256878,5.22951773 37.2716914,3.10284718 39.9264203,3.10284718 Z M15.4097347,3.10284718 C18.231483,3.10284718 20.3236203,5.17722256 20.3236203,7.7745497 L20.3236203,7.7745497 L20.3236203,7.80941315 C20.3236203,10.3980244 18.213902,12.5072632 15.3745727,12.5072632 C14.3548754,12.5072632 13.4230832,12.2283556 12.6583103,11.757699 L12.6583103,11.757699 L14.3548754,10.0581058 C14.6625427,10.2149913 15.022953,10.3021499 15.4185252,10.3021499 C16.895328,10.3021499 17.7831678,9.17780362 17.7831678,7.8442766 L17.7831678,7.8442766 L17.7831678,7.80941315 C17.7831678,6.47588613 16.8074231,5.31667636 15.3833632,5.31667636 C15.0141625,5.31667636 14.6889142,5.38640327 14.398828,5.50842534 L14.398828,5.50842534 L12.7374247,3.82626381 C13.4934071,3.36432307 14.4076184,3.10284718 15.4097347,3.10284718 Z M34.4147811,0 L34.4147811,12.2980826 L31.8303761,12.2980826 L31.8303761,0 L34.4147811,0 Z M54,3.59965138 L50.844213,6.93782686 L54,12.2980826 L51.0463942,12.2980826 L47.8818167,6.93782686 L51.0463942,3.59965138 L54,3.59965138 Z M47.8818167,0 L47.8818167,12.2980826 L45.3062022,12.2980826 L45.3062022,0 L47.8818167,0 Z M12.5791958,4.89831495 L15.3921537,7.74840211 L12.5791958,10.5984892 L10.0387433,10.5984892 L12.8517011,7.74840211 L10.0387433,4.89831495 L12.5791958,4.89831495 Z M25.9759076,5.27309704 C24.77161,5.27309704 23.7694937,6.26670542 23.7694937,7.76583383 L23.7694937,7.76583383 L23.7694937,7.80069728 C23.7694937,9.2998257 24.77161,10.2934341 25.9759076,10.2934341 C27.1802051,10.2934341 28.1999024,9.31725743 28.1999024,7.80069728 L28.1999024,7.80069728 L28.1999024,7.76583383 C28.1999024,6.26670542 27.1802051,5.27309704 25.9759076,5.27309704 Z M4.78202832,5.23823359 C4.46557057,5.23823359 4.17548429,5.29052877 3.91176949,5.38640327 C3.64805469,5.49099362 3.41071138,5.63044742 3.21732053,5.81348055 C3.02392968,5.99651367 2.86570079,6.2231261 2.75142438,6.47588613 C2.63714797,6.73736201 2.58440502,7.01626962 2.58440502,7.31260896 L2.58440502,7.34747241 C2.58440502,7.97501454 2.79537685,8.48053459 3.20853004,8.86403256 C3.62168322,9.23009879 4.14911281,9.42184778 4.78202832,9.42184778 C5.09848608,9.42184778 5.38857236,9.3695526 5.66107765,9.27367811 C5.93358294,9.16908775 6.17092626,9.02963395 6.3643171,8.84660083 C6.55770796,8.66356771 6.71593684,8.43695527 6.83021325,8.18419525 C6.94448966,7.92271936 6.99723262,7.64381175 6.99723262,7.34747241 L6.99723262,7.31260896 C6.99723262,7.00755376 6.94448966,6.72864615 6.83021325,6.47588613 C6.71593684,6.21441024 6.55770796,5.99651367 6.3643171,5.81348055 C6.17092626,5.63044742 5.93358294,5.48227775 5.66107765,5.38640327 C5.38857236,5.28181291 5.09848608,5.23823359 4.78202832,5.23823359 Z M39.9176298,5.15979083 C38.8451896,5.15979083 38.1507407,5.9180709 37.9485593,7.07728067 L37.9485593,7.07728067 L41.8339573,7.07728067 C41.684519,5.93550262 41.007651,5.15979083 39.9176298,5.15979083 Z" id="Combined-Shape"></path>
            </g>
        </g>
    </g>
</svg>