<?xml version="1.0" encoding="UTF-8"?>
<svg width="144px" height="150px" viewBox="0 0 144 150" version="1.1" xmlns="http://www.w3.org/2000/svg" xmlns:xlink="http://www.w3.org/1999/xlink">
    <title>Group 3 Copy</title>
    <defs>
        <linearGradient x1="0%" y1="100%" x2="100%" y2="100%" id="linearGradient-1">
            <stop stop-color="#4E82E7" offset="0%"></stop>
            <stop stop-color="#6039E4" offset="48.2604554%"></stop>
            <stop stop-color="#771EE3" offset="100%"></stop>
        </linearGradient>
        <path d="M27.5021112,12.3667463 C15.8485037,20.0498546 6.5991384,30.7746793 0.755310104,43.3791384 L0.755310104,43.3791384 C-1.13126027,47.4480016 0.638029994,52.2760328 4.70689318,54.1632337 L4.70689318,54.1632337 C8.77449528,56.0479125 13.5993738,54.2817749 15.4909885,50.2110201 L15.4909885,50.2110201 C20.0642822,40.3449885 27.309797,31.9474804 36.4418822,25.9258403 L36.4418822,25.9258403 C63.5026913,8.08413061 100.031032,15.5831218 117.872742,42.6433003 L117.872742,42.6433003 C135.714451,69.7034789 128.21483,106.23245 101.155282,124.07416 L101.155282,124.07416 C74.095103,141.915869 37.5661318,134.416248 19.7244221,107.356069 L19.7244221,107.356069 C17.255865,103.611303 12.2197562,102.57785 8.47498962,105.046408 L8.47498962,105.046408 C4.73022309,107.515595 3.69677094,112.552335 6.16595863,116.296471 L6.16595863,116.296471 C20.5680823,138.140837 44.5096188,149.997478 68.9026206,150 L68.9026206,150 L68.9246895,150 C83.0909918,149.997478 97.4098844,145.997343 110.095053,137.633254 L110.095053,137.633254 C131.88267,123.268332 143.734897,99.4075042 143.798582,75.0800784 L143.798582,75.0800784 L143.798582,74.69545 C143.763272,60.5871572 139.761246,46.3357322 131.432466,33.7028988 L131.432466,33.7028988 C117.026559,11.8547492 93.0812395,-0.00189161468 68.6831933,0 L68.6831933,0 C54.5143688,0 40.1891708,4.00139559 27.5021112,12.3667463" id="path-2"></path>
    </defs>
    <g id="Page-1" stroke="none" stroke-width="1" fill="none" fill-rule="evenodd">
        <g id="Group-3-Copy">
            <mask id="mask-3" fill="white">
                <use xlink:href="#path-2"></use>
            </mask>
            <use id="Clip-2" fill="url(#linearGradient-1)" xlink:href="#path-2"></use>
        </g>
    </g>
</svg>