<?xml version="1.0" encoding="UTF-8"?>
<svg width="60px" height="60px" viewBox="0 0 60 60" version="1.1" xmlns="http://www.w3.org/2000/svg" xmlns:xlink="http://www.w3.org/1999/xlink">
    <title>inversiones</title>
    <defs>
        <linearGradient x1="-1.16261497%" y1="49.9354839%" x2="99.3226859%" y2="49.9354839%" id="linearGradient-1">
            <stop stop-color="#4E82E7" offset="0%"></stop>
            <stop stop-color="#6039E4" offset="48%"></stop>
            <stop stop-color="#771EE3" offset="100%"></stop>
        </linearGradient>
    </defs>
    <g id="Page-1" stroke="none" stroke-width="1" fill="none" fill-rule="evenodd">
        <g id="AETERNUM" transform="translate(-291.000000, -4058.000000)" fill-rule="nonzero">
            <g id="inversiones" transform="translate(291.000000, 4058.000000)">
                <rect id="Rectangle" x="0" y="0" width="60" height="60"></rect>
                <path d="M6.8025,36.39 C7.4353125,36.39 7.63306641,36.5482031 7.65531372,37.1427008 L7.6575,37.2675 L7.6575,38.7675 C7.65982626,38.8213985 7.66968692,38.87457 7.68668928,38.9254927 L7.7175,39 L7.8375,39.3675 L17.13,39.3675 C19.4405896,39.3353211 21.6214856,40.4327681 22.9725,42.3075 C23.3859504,42.8038539 23.8314606,43.2723663 24.3061023,43.7100573 L24.6675,44.0325 L24.84,44.19 C25.0728688,44.3566726 25.3512012,44.4451803 25.635208,44.4450186 L25.7775,44.4375 L36.195,44.4375 C37.4345514,44.3683109 38.6557404,44.7611222 39.6225,45.54 C39.9199297,45.7365404 40.2988036,45.7621785 40.62,45.6075 C42.6075,44.4825 44.355,43.4775 45.9675,42.525 C46.9125,41.97 47.85,41.4 48.7875,40.8375 C50.0475,40.0875 51.285,39.3375 52.5375,38.5875 C53.5882137,37.9439212 54.8532883,37.7490325 56.0489801,38.0465454 C57.244672,38.3440584 58.2709031,39.1090715 58.8975,40.17 C59.5343625,41.2479961 59.7103737,42.5370103 59.3858313,43.7462835 C59.0612889,44.9555567 58.263529,45.9832321 57.1725,46.5975 C55.0275,47.8525 52.875,49.1025 50.715,50.3475 L48.2071875,51.7959375 L48.2071875,51.7959375 L45.705,53.25 L42.3375,55.245 C40.89,56.115 39.48,56.985 37.98,57.825 C37.366875,58.17375 36.7284375,58.4929688 36.0931641,58.8016406 L35.46,59.1075 L34.3575,59.64 L20.775,59.64 L20.710546,59.6031464 L20.710546,59.6031464 L20.64,59.58 L8.805,56.205 L8.355,56.1075 L7.6575,55.95 L7.6575,58.605 C7.71293563,58.9486733 7.60704252,59.2961245 7.37525318,59.5495598 L7.2825,59.64 L0.87,59.64 C0.618121463,59.4023189 0.479785479,59.0712885 0.484255658,58.7294321 L0.495,58.5825 L0.495,37.425 C0.495,36.5581579 0.602700831,36.4048338 1.41116562,36.3910956 L1.5525,36.39 L6.8025,36.39 Z M53.3175,39.645 C52.5675,40.08 51.705,40.59 51.0675,40.995 C50.43,41.4 49.8,41.775 49.155,42.15 C47.985,42.81 46.8183333,43.4766667 45.6527778,44.1455556 L43.905,45.15 L41.61,46.47 L41.205,46.7175 L40.7925,46.965 L40.89,47.25 C41.621239,48.9409113 41.2631938,50.905721 39.9825,52.23 C39.1247597,53.1114112 37.9630237,53.6264318 36.7402884,53.6742052 L36.495,53.6775 L25.29,53.6775 L25.29,52.3275 L36.54,52.3275 C37.3544923,52.3473957 38.1503436,52.0821119 38.79,51.5775 C39.8835245,50.6866206 40.2989458,49.2044877 39.8277486,47.8750385 C39.3779695,46.6060187 38.2130456,45.7376754 36.8813218,45.6584133 L36.69,45.6525 L25.2075,45.6525 L25.0541705,45.6516275 C24.6988672,45.6292763 24.3644679,45.4662612 24.1275,45.195 C24.06,45.1264286 23.9943367,45.06 23.9296574,44.9948178 L23.5465671,44.6115087 C23.289949,44.3563776 23.0217857,44.0925 22.6875,43.7625 C22.1025,43.185 21.51,42.6075 20.9475,42.0075 C20.0233989,41.0657178 18.7561774,40.5470054 17.4439894,40.5652574 L17.1975,40.575 L7.68,40.575 L7.68,54.51 L8.025,54.645 L8.31,54.75 L11.295,55.6425 C14.04,56.43 16.8825,57.2625 19.695,58.0125 C20.5002532,58.228652 21.3263572,58.3558213 22.1584962,58.3920016 L22.575,58.4025 L33.3075,58.4025 L33.5813132,58.3976099 C34.2184919,58.3665872 34.8416184,58.1988224 35.4082436,57.905744 L35.6475,57.7725 L36.3975,57.315 C38.2875,56.175 40.2375,54.9975 42.18,53.865 C46.885,51.135 51.6,48.4075 56.325,45.6825 C57.1080776,45.2992407 57.7252086,44.6486961 58.0676699,43.852117 L58.1475,43.65 L58.125,43.65 C58.5572897,42.3386122 58.1715336,40.8957075 57.1425,39.975 C56.0740174,39.0470526 54.5291275,38.9137679 53.3175,39.645 Z M6.39,37.635 L1.7625,37.635 L1.7625,58.3425 L6.3975,58.3425 L6.39,37.635 Z M41.85,0.375 C42.1758528,0.653155771 42.3154315,1.09224722 42.21,1.5075 C42.0549378,2.8798333 41.5140283,4.18009658 40.65,5.2575 C39.4558189,6.8031905 37.6084608,7.69373063 35.6654907,7.67343699 L35.4,7.665 L30.42,7.665 L30.42,12.615 L31.065,12.24 C31.1586202,12.1924021 31.2466606,12.134547 31.3275,12.0675 C32.4865268,11.0197489 33.9797361,10.4237297 35.5351895,10.3814195 L35.8275,10.38 L41.3775,10.38 C41.6232385,10.3488923 41.8713014,10.4163008 42.0675,10.5675 C42.2166425,10.7870908 42.2757125,11.0555911 42.2325,11.3175 C42.0839621,14.3149335 39.923168,16.8307151 36.9825,17.43 C36.2443535,17.5514276 35.4999845,17.6302539 34.7530883,17.666141 L34.1925,17.685 L30.4275,17.685 L30.4275,20.4 L30.75,20.4375 C34.1847472,20.7730355 37.2353124,22.7749689 38.91,25.7925 C40.1584866,27.9748649 40.5615268,30.5399093 40.0425,33 C39.0990976,38.187568 34.4429107,41.8625545 29.1781083,41.5749332 C23.9133059,41.287312 19.6851707,37.1269664 19.3125,31.8675 C19.0266794,29.0922607 19.8700716,26.3187981 21.6525,24.1725 C23.3573469,22.1055625 25.7816178,20.7678018 28.4302838,20.4229199 L28.7625,20.385 L29.1,20.385 L29.1,17.6775 L27.285,17.6775 C26.265,17.6775 25.2075,17.715 24.1725,17.6775 C20.46,17.535 17.775,15.195 17.295,11.7375 C17.2678048,11.4882396 17.2678048,11.2367604 17.295,10.9875 C17.3086364,10.8306818 17.3718595,10.4941116 17.6762547,10.434213 L17.775,10.425 L18.4425,10.425 C20.5125,10.41 22.6575,10.395 24.75,10.5 C26.086954,10.6197513 27.339011,11.195243 28.298865,12.1253097 L28.5,12.33 L29.1,12.96 L29.1,7.71 L24.045,7.71 C22.9486292,7.75202526 21.8617238,7.49262061 20.9025,6.96 C18.7218084,5.82340592 17.3459926,3.57652852 17.325,1.1175 C17.3742897,0.916855853 17.4721633,0.731411013 17.61,0.5775 C17.64375,0.526875 17.6985938,0.48046875 17.7239063,0.431953125 L17.7375,0.3825 L24.63,0.3825 C24.7207318,0.424637913 24.8165232,0.454887849 24.915,0.4725 C26.6475253,0.754423869 28.1893774,1.73264636 29.1825,3.18 L29.2803824,3.30650529 L29.2803824,3.30650529 L29.385,3.4275 L29.82,3.9375 L30.0975,3.5175 C30.7625761,2.41014838 31.7487112,1.53125872 32.925,0.9975 C33.2195425,0.88181665 33.517999,0.776496965 33.8198182,0.681724748 L34.275,0.5475 L34.875,0.375 L41.85,0.375 Z M29.8275,21.6449795 L29.805,21.6449795 C24.749019,21.7882772 20.7247139,25.9282393 20.7247139,30.98625 C20.7247139,35.9539391 24.6065771,40.0360742 29.5351479,40.3160186 L29.805,40.3275 L30.0722622,40.3211336 C35.0434299,40.1323001 39.0042792,36.0415416 39,31.035 C39.0298976,28.5330811 38.0608211,26.122537 36.3075,24.3375 C34.5944689,22.6095643 32.2606483,21.6398402 29.8275,21.6449795 Z M30.3525,25.4025 L30.3525,25.5375 C30.2639826,26.0347232 30.5318754,26.5268984 30.9975,26.7225 C31.647594,27.051194 32.1072987,27.6586797 32.2507882,28.3661523 L32.28,28.545 L31.02,28.545 C30.8216519,27.8973262 30.1740556,27.4969107 29.5060097,27.6088843 C28.8379639,27.7208579 28.3563229,28.3105489 28.38,28.9875 C28.4529564,29.7746882 29.090713,30.3901233 29.88,30.435 C31.0841832,30.4897068 32.0899893,31.370955 32.3025,32.5575 C32.5275564,33.6668665 31.9760134,34.7884399 30.96,35.2875 C30.5630134,35.4719079 30.3274011,35.8819492 30.3595219,36.3103608 L30.375,36.4275 L30.375,36.57 L29.175,36.57 C29.1799022,35.9219702 28.7998774,35.3327845 28.2075,35.07 C27.6844548,34.7469365 27.328199,34.2160113 27.2244656,33.6154208 L27.2025,33.45 L28.455,33.45 C28.4837218,33.5277729 28.5188421,33.6030306 28.56,33.675 C28.8539447,34.2304159 29.4922456,34.5095641 30.0996086,34.3483173 C30.7069715,34.1870705 31.1227567,33.6280764 31.1025,33 C31.1250832,32.3336091 30.6444307,31.7561809 29.985,31.6575 C29.9186491,31.6483243 29.8516667,31.6452658 29.7848948,31.6483243 L29.685,31.6575 L29.565,31.6575 C28.534028,31.5686817 27.6521581,30.8808232 27.315,29.9025 C26.9316678,28.8255099 27.2681367,27.6238354 28.155,26.9025 C28.876,26.3425 29.0416667,26.1745 29.1276267,25.5448111 L29.145,25.4025 L30.3525,25.4025 Z M57.0225,28.3425 L57.0225,29.64 L55.815,29.64 L55.815,28.3425 L57.0225,28.3425 Z M3.69,28.3425 L3.69,29.64 L2.4825,29.64 L2.4825,28.3425 L3.69,28.3425 Z M58.9575,26.3625 L58.9575,27.5775 L57.7875,27.5775 L57.7875,26.3625 L58.9575,26.3625 Z M5.625,26.3625 L5.625,27.5775 L4.455,27.5775 L4.455,26.3625 L5.625,26.3625 Z M55.0425,26.3625 L55.0425,27.5775 L53.8725,27.5775 L53.8725,26.3625 L55.0425,26.3625 Z M1.71,26.3625 L1.71,27.5775 L0.54,27.5775 L0.54,26.3625 L1.71,26.3625 Z M3.69,24.42 L3.69,25.5975 L2.4825,25.5975 L2.4825,24.42 L3.69,24.42 Z M57.0225,24.42 L57.0225,25.5975 L55.815,25.5975 L55.815,24.42 L57.0225,24.42 Z M9.615,16.3425 L9.615,17.64 L8.4075,17.64 L8.4075,16.3425 L9.615,16.3425 Z M51.0975,16.3425 L51.0975,17.64 L49.89,17.64 L49.89,16.3425 L51.0975,16.3425 Z M35.25,11.655 C32.9725533,11.815576 31.0791857,13.4471123 30.5711488,15.6548398 L30.525,15.8775 L30.4725,16.3575 L34.1925,16.3575 C34.89,16.3575 35.5875,16.3425 36.285,16.29 C38.5075079,16.101199 40.3357983,14.4847224 40.8084773,12.3230319 L40.8525,12.0975 L40.935,11.655 L38.8575,11.655 C37.6725,11.61 36.45,11.595 35.25,11.655 Z M18.6525,11.655 L18.69,12.0675 C19.01134,14.1539553 20.6581511,15.7855463 22.7475,16.0875 C23.3595,16.1655 23.9907,16.1811 24.6027,16.18422 L29.04,16.185 L28.965,15.75 C28.597747,13.6886456 26.9441665,12.0986643 24.87,11.8125 C23.7902202,11.7266457 22.7070601,11.6934452 21.6243696,11.7129696 L20.8125,11.7375 L19.065,11.7375 L18.6525,11.655 Z M11.55,14.3625 L11.55,15.5775 L10.38,15.5775 L10.38,14.3625 L11.55,14.3625 Z M53.0325,14.3625 L53.0325,15.5775 L51.8625,15.5775 L51.8625,14.3625 L53.0325,14.3625 Z M49.1175,14.3625 L49.1175,15.5775 L47.9475,15.5775 L47.9475,14.3625 L49.1175,14.3625 Z M7.635,14.3625 L7.635,15.5775 L6.465,15.5775 L6.465,14.3625 L7.635,14.3625 Z M9.615,12.42 L9.615,13.5975 L8.4075,13.5975 L8.4075,12.42 L9.615,12.42 Z M51.0975,12.42 L51.0975,13.5975 L49.89,13.5975 L49.89,12.42 L51.0975,12.42 Z M35.25,1.6425 C34.5809069,1.69026502 33.9281147,1.87131286 33.33,2.175 C31.9099459,2.88107523 30.8963191,4.1967347 30.5706614,5.73956339 L30.525,5.985 L30.36,6.4725 L35.055,6.4725 C35.8433171,6.4725 36.6253992,6.33282666 37.365,6.06 C39.0852584,5.4891082 40.3900745,4.08263156 40.836654,2.33706482 L40.89,2.1075 L41.01,1.6425 L39,1.6425 C37.71,1.6425 36.495,1.5975 35.25,1.6425 Z M21.6228666,1.71367209 L20.805,1.74 L19.02,1.74 L18.5925,1.7775 L18.66,2.2125 C18.6704145,2.29329212 18.685439,2.37342284 18.705,2.4525 C19.3754322,4.70564562 21.3834162,6.28699742 23.7129124,6.42581676 L23.955,6.435 L27.525,6.435 L29.0625,6.42 L29.0025,6 C28.7070715,3.85041475 27.036392,2.14924832 24.8925,1.815 C23.8048514,1.72615209 22.7135812,1.69235057 21.6228666,1.71367209 Z M3.69,4.3425 L3.69,5.64 L2.4825,5.64 L2.4825,4.3425 L3.69,4.3425 Z M57.0225,4.3425 L57.0225,5.64 L55.815,5.64 L55.815,4.3425 L57.0225,4.3425 Z M58.9575,2.3625 L58.9575,3.5775 L57.7875,3.5775 L57.7875,2.3625 L58.9575,2.3625 Z M5.625,2.3625 L5.625,3.5775 L4.455,3.5775 L4.455,2.3625 L5.625,2.3625 Z M1.71,2.3625 L1.71,3.5775 L0.54,3.5775 L0.54,2.3625 L1.71,2.3625 Z M55.0425,2.3625 L55.0425,3.5775 L53.8725,3.5775 L53.8725,2.3625 L55.0425,2.3625 Z M57.03,0.375 L57.0225,1.5975 L55.815,1.5975 L55.8075,0.375 L57.03,0.375 Z M3.6975,0.375 L3.69,1.5975 L2.4825,1.5975 L2.475,0.375 L3.6975,0.375 Z" id="Combined-Shape" fill="url(#linearGradient-1)"></path>
            </g>
        </g>
    </g>
</svg>