<?xml version="1.0" encoding="UTF-8"?>
<svg width="80px" height="80px" viewBox="0 0 80 80" version="1.1" xmlns="http://www.w3.org/2000/svg" xmlns:xlink="http://www.w3.org/1999/xlink">
    <title>learn</title>
    <defs>
        <linearGradient x1="0%" y1="100%" x2="100%" y2="100%" id="linearGradient-1">
            <stop stop-color="#4E82E7" offset="0%"></stop>
            <stop stop-color="#6039E4" offset="48.2604554%"></stop>
            <stop stop-color="#771EE3" offset="100%"></stop>
        </linearGradient>
    </defs>
    <g id="Page-1" stroke="none" stroke-width="1" fill="none" fill-rule="evenodd">
        <g id="AETERNUM" transform="translate(-300.000000, -5098.000000)" fill-rule="nonzero">
            <g id="learn" transform="translate(300.000000, 5098.000000)">
                <rect id="Rectangle" x="0" y="0" width="80" height="80"></rect>
                <path d="M77.9648,68 C77.5359678,68.0296602 77.105095,67.9989605 76.6848,67.9088 L76.5056,67.8608 L76.5056,55.4656 C76.5056,45.6608 76.5056,35.8549333 76.5056,26.048 C76.5056,22.5088 74.2928,20.304 70.736,20.288 L68.176,20.288 L68.2544,19.9872 C69.088,16.8 68.3648,15.1328 65.4912,13.6144 C63.4773333,12.5477333 61.4645333,11.4810667 59.4528,10.4144 L55.5664,8.3504 C54.6544,7.8672 53.7418667,7.3872 52.8288,6.9104 L45.6672,3.1152 C45.3104,2.9248 44.9536,2.7344 44.5968,2.5472 L44.0864,2.28 L43.7008,2.08 C41.1744,0.7696 38.7072,0.8 36.1568,2.152 C33.84,3.3856 31.4816,4.64 29.2,5.8416 C28.256,6.3408 27.3125333,6.84053333 26.3696,7.3408 L23.0976,9.0736 C20.0533333,10.6885333 17.0069333,12.304 13.9584,13.92 C12.376,14.7568 11.5168,16.016 11.3984,17.6624 C11.384699,18.1894997 11.4297772,18.7164848 11.5328,19.2336 C11.5728,19.4928 11.616,19.7616 11.6464,20.0336 L11.6768,20.3008 L11.4112,20.3008 L10.7584,20.3008 C10.248,20.3008 9.7216,20.2896 9.2016,20.3136 C8.62133691,20.3196575 8.04328359,20.3861497 7.4768,20.512 C4.9872,21.1536 3.5008,23.2 3.4992,25.9712 C3.4992,36.0288 3.4992,46.0869333 3.4992,56.1456 L3.4992,68 L3.2592,68 C3.0992,68 2.9392,68 2.7792,68 C2.46716924,68.0121368 2.15470973,68.0073297 1.8432,67.9856 C1.1168,67.9248 0.6176,68.0896 0.2432,68.5184 L0.2432,72.48 C0.6848,74.4944 1.4736,75.9392 2.72,77.0176 C4.0576,78.1744 5.5136,78.7776 7.1712,78.848 C7.4688,78.8608 7.8112,78.8752 8.1744,78.8752 L38.544,78.8752 C49.584,78.8752 60.7648,78.8752 71.824,78.888 L71.84,78.888 C75.1824,78.888 77.5136,77.5536 78.9632,74.808 C79.2108701,74.2960438 79.4049678,73.7598623 79.5424,73.208 C79.6128,72.9616 79.6864,72.7072 79.768,72.4592 L79.768,68.5232 C79.2896,67.96 78.6752,67.9744 77.9648,68 Z M14.88,15.5328 C22.416,11.552 29.8704,7.5968 37.0784,3.7728 C39.0176,2.744 40.9776,2.7392 42.9024,3.76 C43.1584,3.8944 43.4128,4.032 43.6688,4.168 L44.3696,4.5408 L56.136,10.768 L58.9056,12.2336 L62.1056,13.928 L64.9856,15.4464 C66.2032,16.0864 66.7664,16.904 66.7600539,18.0064 C66.7536,19.1088 66.1824,19.9264 64.968,20.5584 C63.0944,21.5264 61.2016,22.5344 59.368,23.5088 L57.2512,24.64 L52.64,27.0976 L50.328,28.32 L50.2016,28.1856 L50.0032,27.9744 C49.872,27.8368 49.752,27.7088 49.6368,27.5776 L45.8096,23.2144 C44.184,21.3594667 42.5578667,19.5061333 40.9312,17.6544 C40.624,17.304 40.2992,17.1088 39.9904,17.0912 C39.7649577,17.0799262 39.5450774,17.1634691 39.384,17.3216 C38.9536,17.7088 38.9968,18.264 39.504,18.848 C40.4144,19.896 41.3472,20.9584 42.248,21.9856 C42.6544,22.4464 43.0602667,22.9082667 43.4656,23.3712 L48.6032,29.2368 L48.3344,29.3792 C47.7381333,29.6992 47.1477333,30.0128 46.5632,30.32 C45.2096,31.0416 43.9312,31.7216 42.6128,32.3904 C41.8100667,32.8062882 40.9200581,33.0256372 40.016,33.0304 C39.013809,33.0168711 38.0305057,32.7557929 37.1536,32.2704 L35.272,31.2736 C28.5904,27.7344 21.68,24.0736 14.88,20.4848 C13.7872,19.9072 13.2336,19.072 13.2336,18.0048 C13.2336,16.9376 13.7712,16.1168 14.88,15.5328 Z M21.8064,32.3696 C21.8512,36.8128 24.4224,40.5984 28.5168,42.248 C32.2598099,43.7634662 36.2660562,44.5220808 40.304,44.48 C42.9403111,44.4588952 45.5625433,44.0931274 48.104,43.392 C48.2512,43.3504 48.3952,43.32 48.6128,43.2736 L49.0656,43.176 L49.4688,43.0864 L49.3456,43.4816 C49.264,43.744 49.1968,43.9936 49.1296,44.2368 C49.0162768,44.725426 48.8555141,45.2018195 48.6496,45.6592 C48.2944,46.3712 47.8832,47.0672 47.4864,47.7392 C47.2816,48.0816 47.072,48.4384 46.872,48.7904 C46.1792,50.0128 46.1248,51.3088 46.7248,52.344 C47.3248,53.3792 48.472,53.9776 49.8736,53.9856 C51.9168,54.0032 53.12,53.3168 53.6608,51.84 C54.0206603,50.9182866 53.9368858,49.8823146 53.4336,49.0304 C53.2144,48.6416 52.9792,48.2528 52.7504,47.8752 C52.2199905,47.0377627 51.7448457,46.1665749 51.328,45.2672 C51.0752,44.6832 51.0704,44.0096 51.0672,43.3568 C51.0672,43.1584 51.0672,42.9536 51.056,42.76 C51.056,42.6144 51.1136,42.44 51.648,42.1856 C55.968,40.1712 58.1776,36.704 58.208,31.8768 C58.208,30.992 58.208,30.1168 58.208,29.2064 C58.208,28.784 58.208,28.3552 58.208,27.9264 L58.208,27.68 L69.12,27.68 L69.12,62.5328 L10.8608,62.5328 L10.8608,27.68 L21.8016,27.68 L21.8016,27.92 C21.8016,28.3914667 21.8016,28.8608 21.8016,29.328 C21.7952,30.3296 21.7936,31.36 21.8032,32.3696 L21.8064,32.3696 Z M49.1664,40.312 L49.1664,40.312 C49.1664,40.8304 49.0448,41.1888 48.424,41.3712 C45.6616883,42.2031519 42.7936527,42.6315789 39.9088,42.6432 C36.1388477,42.6387249 32.4094505,41.8650792 28.9488,40.3696 C25.6608,38.9712 23.84,36.248 23.68,32.4944 C23.632,31.4256 23.6448,30.3648 23.656,29.2416 C23.656,28.7216 23.6672,28.1904 23.6672,27.6416 L23.6672,27.2432 L25.8224,28.3824 C27.1024,29.0576 28.336,29.7104 29.5728,30.3664 L31.3872,31.3264 C32.9392,32.1456 34.5456,32.9952 36.12,33.8416 C38.7312,35.2464 41.2656,35.2496 43.8656,33.8496 C44.9632,33.2592 46.048,32.6896 47.1968,32.0896 L48.7568,31.2688 L49.0768,31.096 L49.1024,31.464 C49.1024,31.5552 49.1168,31.6336 49.1216,31.7008 C49.1328,31.8288 49.1424,31.9296 49.1424,32.0336 L49.1424,34.4976 C49.144,36.4032 49.144,38.3744 49.1552,40.32 L49.1664,40.312 Z M51.0128,30.8368 L51.0128,30.8368 C51.0128,30.2768 51.1984,29.952 51.6672,29.7168 C52.6848,29.2048 53.7072,28.6576 54.696,28.128 C55.0821333,27.9146667 55.4693333,27.7077333 55.8576,27.5072 L55.944,27.4608 L56.4976,27.6304 L56.4848,27.8192 C56.44,28.5056 56.4144,29.208 56.3888,29.8864 C56.3312,31.4368 56.2704,33.0384 55.9904,34.584 C55.5488,36.96 53.9952,38.88 51.36,40.2752 L51.008,40.464 L51.008,35.9328 C51.0144,34.2624 51.016,32.536 51.0016,30.8368 L51.0128,30.8368 Z M51.832,50 C52.0681896,50.4328072 52.0681896,50.9559928 51.832,51.3888 C51.5626277,51.829825 51.0878238,52.103982 50.5712,52.1168 C50.4112,52.1264 50.2512,52.1312 50.0912,52.1312 C49.9312,52.1312 49.7712,52.1312 49.6112,52.1168 C49.0934376,52.1050649 48.6174482,51.8299683 48.3488,51.3872 C48.1119865,50.9556888 48.1119865,50.4331112 48.3488,50.0016 C48.6576,49.392 49.0032,48.8016 49.3696,48.1776 C49.5296,47.8944 49.7072,47.6048 49.88,47.2992 L50.0896,46.9344 L50.2976,47.2992 C50.472,47.6048 50.6432,47.896 50.8096,48.1792 C51.1664,48.8 51.52,49.392 51.8208,50 L51.832,50 Z M5.3616,26.128 C5.3616,23.5968 6.6256,22.3232 9.336,22.128 C12.8,21.8688 15.696,22.5936 18.192,24.3392 C18.352,24.4496 18.512,24.5488 18.6944,24.6592 C19.0522058,24.8551472 19.3875292,25.0896053 19.6944,25.3584 L20.1472,25.7744 L10.3872,25.7744 C9.1952,25.7744 8.9712,26.0032 8.9696,27.2016 L8.9696,62.9696 C8.9696,64.1664 9.1952,64.3936 10.3888,64.3952 C11.8661333,64.3952 13.3424,64.3952 14.8176,64.3952 L69.5376,64.3952 C70.8352,64.3952 71.0304,64.1968 71.0304,62.8848 L71.0304,27.2624 C71.0304,25.96 70.8336,25.7632 69.528,25.7632 L60.32,25.7632 L60.16,25.2512 L60.3344,25.1552 C60.5472,25.0416 60.7632,24.9312 60.9744,24.8224 C61.433427,24.6004234 61.8780381,24.3497953 62.3056,24.072 C64.6688,22.4576 67.2784,21.8128 70.0624,22.152 C70.3126989,22.1782082 70.5643803,22.1888953 70.816,22.184 C71.1121844,22.1789343 71.4083632,22.1944382 71.7024,22.2304 C73.3470494,22.4612381 74.5858257,23.8439638 74.6352,25.504 C74.6464,25.7712 74.6443314,26.04 74.6432,26.304 L74.6432,67.9552 L5.3632,67.9552 L5.3632,26.128 L5.3616,26.128 Z M47.3872,69.8928 L47.3328,70.1792 C47.0992,71.3968 45.9584,72.3504 44.6128,72.4464 C43.8304,72.504 43.0336,72.5008 42.2656,72.4976 C42.0288,72.4976 41.7856,72.4976 41.5552,72.4976 L40.464,72.4976 C39.7792,72.4976 39.0832,72.4976 38.384,72.4976 C37.5424,72.4976 36.696,72.4976 35.856,72.4816 C34.24,72.4592 33.1472,71.6944 32.608,70.208 L32.4912,69.888 L47.3872,69.8928 Z M76.584,75.088 C75.5296,76.3248 73.9312,77.008 72.0864,77.008 C61.2928,77.008 50.6048,77.008 40.1008,77.008 C29.1392,77.008 18.3776,77.008 7.8896,76.9984 C6.0944,76.9984 4.608,76.4112 3.592,75.304 C2.472,74.0752 1.9712,72.2816 2.152,70.1168 L2.176,69.92 L2.3856,69.9104 L2.632,69.896 C2.816,69.8848 3.008,69.8736 3.2016,69.8736 L9.6592,69.8736 C16.1696,69.8736 22.9008,69.8736 29.52,69.8592 C30.2336,69.8592 30.568,70.0944 30.7824,70.7616 C31.4592,72.8752 33.2912,74.2816 35.4496,74.3296 C38.3888,74.4064 41.432,74.408 44.496,74.3296 C46.6944,74.2784 48.5632,72.8384 49.2544,70.664 C49.4416,70.0768 49.7344,69.864 50.3408,69.864 L50.3408,69.864 C56.9536,69.8736 63.6768,69.8752 70.1808,69.8752 L76.976,69.8752 C77.1248,69.8752 77.2688,69.888 77.408,69.9008 L77.5856,69.9152 L77.7776,69.928 L77.8064,70.1168 C78.1104,72.0416 77.6768,73.8096 76.584,75.088 Z" id="Shape" fill="url(#linearGradient-1)"></path>
            </g>
        </g>
    </g>
</svg>