<?xml version="1.0" encoding="UTF-8"?>
<svg width="60px" height="60px" viewBox="0 0 60 60" version="1.1" xmlns="http://www.w3.org/2000/svg" xmlns:xlink="http://www.w3.org/1999/xlink">
    <title>posibilidades</title>
    <defs>
        <linearGradient x1="-0.394103051%" y1="49.9570543%" x2="99.5913005%" y2="49.9570543%" id="linearGradient-1">
            <stop stop-color="#4E82E7" offset="0%"></stop>
            <stop stop-color="#6039E4" offset="48%"></stop>
            <stop stop-color="#771EE3" offset="100%"></stop>
        </linearGradient>
    </defs>
    <g id="Page-1" stroke="none" stroke-width="1" fill="none" fill-rule="evenodd">
        <g id="AETERNUM" transform="translate(-735.000000, -3948.000000)" fill-rule="nonzero">
            <g id="posibilidades" transform="translate(735.000000, 3948.000000)">
                <rect id="Rectangle" x="0" y="0" width="60" height="60"></rect>
                <path d="M30.75,8.0025 L32.115,8.205 C37.1772763,8.93778979 41.4690441,12.3049535 43.385484,17.0474086 C45.3019238,21.7898637 44.5544252,27.1934097 41.4225,31.2375 C40.8988408,31.8752089 40.3404973,32.4836281 39.75,33.06 L39.75,33.06 L38.9025,33.9225 L38.4375,34.4175 L39.0075,34.785 C40.7925,35.94 41.325,37.56 40.62,39.75 L40.62,39.75 L40.2075,41.025 L41.415,40.41 C41.655747,40.2890233 41.8800611,40.1378004 42.0825,39.96 L42.0825,39.96 L44.4975,37.8525 C46.0975,36.4525 47.705,35.06 49.32,33.675 C50.3261626,32.7763021 51.731952,32.4753967 53.0178296,32.8834896 C54.3037073,33.2915825 55.278708,34.348068 55.5825,35.6625 C55.6125,35.76 55.65,35.8575 55.725,35.955 L55.725,35.955 L55.725,37.065 C55.389208,38.23731 54.7100321,39.2821961 53.775,40.065 C50.5125,43.305 47.625,46.2075 44.9475,48.96 C44.0507095,49.9228726 42.7827614,50.4530061 41.4675,50.415 L41.4675,50.415 L15.8175,50.415 C15.6412512,50.394769 15.4627351,50.4100704 15.2925,50.46 C14.9609107,50.5381172 14.6840576,50.7651368 14.5425,51.075 C14.2875,51.825 14.25,51.825 13.5,51.825 L5.415,51.825 C5.000581,51.8948331 4.58301767,51.7196317 4.3425,51.375 L4.3425,51.375 L4.3425,33.45 C4.57657453,33.1187106 4.97557456,32.9452323 5.3775,33 L5.3775,33 L13.5497583,33.0001679 C14.2512197,33.0028547 14.2707353,33.0485294 14.6025,33.825 L14.6025,33.825 L14.88,34.5 L18.825,31.5675 L18.495,31.11 C15.6517851,27.3604204 14.8268191,22.4554349 16.2870223,17.9820665 C17.7472255,13.5086981 21.3071607,10.0350382 25.815,8.685 C26.5897423,8.47638064 27.3761053,8.31359847 28.17,8.1975 L28.17,8.1975 L29.25,8.0025 L30.75,8.0025 Z M13.065,34.35 L5.7225,34.35 L5.7225,50.3925 L13.065,50.3925 L13.065,34.35 Z M23.8850811,32.8659173 L23.5725,32.8725 L23.5725,32.8725 L20.355,32.8725 C19.7562108,32.9079745 19.1770831,33.0992935 18.675,33.4275 C17.955,33.9225 17.25,34.4475 16.5675,34.965 C16.1025,35.31 15.645,35.6625 15.1725,36 C14.7223397,36.2984577 14.4607175,36.8103271 14.4825,37.35 L14.4825,37.35 L14.4825,49.0725 L41.715,49.0725 C42.4762545,49.0836766 43.2075945,48.7764594 43.7325,48.225 C45.9225,46.005 48.1175,43.7875 50.3175,41.5725 L50.3175,41.5725 L53.61,38.25 C54.192976,37.6671424 54.4406941,36.8284703 54.2679649,36.0224004 C54.0952356,35.2163305 53.5256173,34.5528019 52.755,34.26 C51.8759449,33.9057609 50.8714618,34.0897215 50.175,34.7325 L50.175,34.7325 L47.58,36.9825 L42.495,41.415 C42.1949145,41.6951853 41.7952343,41.8437151 41.385,41.8275 L41.385,41.8275 L28.7775,41.8275 C28.5877949,41.8424714 28.3972051,41.8424714 28.2075,41.8275 C27.9426257,41.8304841 27.7088,41.6551149 27.6375,41.4 C27.585,41.22 27.5175,40.8975 27.735,40.755 C27.972666,40.5951215 28.2511397,40.5066346 28.5375,40.5 L28.5375,40.5 L37.0875,40.5 C37.747162,40.4951979 38.3770749,40.224849 38.835,39.75 C39.2823411,39.2963068 39.5329345,38.6846431 39.5325,38.0475 C39.5340334,37.4224445 39.2754848,36.8249202 38.8188173,36.398128 C38.3621497,35.9713359 37.748524,35.7537441 37.125,35.7975 L37.125,35.7975 L32.385,35.7975 C32.1285064,35.7950667 31.8745125,35.7468079 31.635,35.655 C30.1575,35.025 28.485,34.3275 26.8875,33.5775 C25.860438,33.0644028 24.7194743,32.8217544 23.5725,32.8725 Z M41.01,16.1925 C37.4705451,9.92337773 29.5191223,7.71054511 23.25,11.25 C19.9866898,13.2050337 17.7484971,16.4964935 17.13,20.25 C16.487559,23.9964802 17.5242261,27.8359878 19.965,30.75 C20.3232084,31.2617203 20.924615,31.5467472 21.5475,31.5 L21.5475,31.5 L21.75,31.5 C22.6843976,31.4525346 23.6206024,31.4525346 24.555,31.5 C25.263836,31.5360549 25.9636603,31.6750092 26.6325,31.9125 C28.0875,32.4825 29.535,33.1425 30.945,33.7875 C31.6697363,34.1704456 32.4730954,34.3809103 33.2925,34.4025 L33.2925,34.4025 L33.2925,34.6575 L33.8925,34.5075 L34.5225,34.3875 C35.0560733,34.3191869 35.5766662,34.1726122 36.0675,33.9525 C42.3366223,30.4130451 44.5494549,22.4616223 41.01,16.1925 Z M30.015,14.3175 L30.1312005,14.3265908 C30.5696893,14.3914793 30.6975,14.7876923 30.6975,15.12 L30.6975,15.12 L30.6975,16.7925 L32.3175,16.7925 C33.5751076,16.6955276 34.7643974,17.376396 35.3175,18.51 C35.932326,19.604505 35.8006566,20.9660857 34.9875,21.9225 L34.9875,21.9225 L34.8375,22.17 L34.6275,22.5 L34.8825,22.785 C35.8826372,23.8592577 36.0011763,25.4844901 35.1675,26.6925 C34.4325,27.84 33.285,28.26 31.3275,28.1025 L31.3275,28.1025 L30.72,28.05 L30.72,29.4075 C30.72,30.6 30.27,30.6 30.03,30.6 C29.8722751,30.6203108 29.7135127,30.5710397 29.595,30.465 C29.3791147,30.1458859 29.2834405,29.7605315 29.325,29.3775 L29.325,29.3775 L29.325,28.125 L25.5,28.125 C24.45,28.125 24.3225,27.9975 24.3225,27 L24.3225,27 L24.3225,17.8575 C24.3225,16.95 24.465,16.815 25.38,16.815 L25.38,16.815 L29.3175,16.815 L29.3175,15.135 C29.3325,14.76 29.4675,14.3175 30.015,14.3175 L30.015,14.3175 Z M32.325,23.145 L26.5125,23.145 L25.7625,23.1825 L25.7625,26.73 L32.34,26.73 C32.8418387,26.7806642 33.3418002,26.6175511 33.7172065,26.2806846 C34.0926129,25.9438181 34.3087197,25.4643756 34.3125,24.96 C34.3268861,24.4936119 34.1508928,24.0414443 33.825,23.7075 C33.4198567,23.3277306 32.8799563,23.125268 32.325,23.145 L32.325,23.145 Z M32.46375,18.159397 L32.25,18.165 L26.67,18.165 C26.5526168,18.1575898 26.4348832,18.1575898 26.3175,18.165 L26.3175,18.165 L25.7025,18.2475 L25.7025,21.75 L32.3775,21.75 C33.3069152,21.7361849 34.0743272,21.0197083 34.1518402,20.093428 C34.2293532,19.1671478 33.5916928,18.3330919 32.6775,18.165 C32.5350979,18.1575293 32.3924021,18.1575293 32.25,18.165 Z" id="Combined-Shape" fill="url(#linearGradient-1)"></path>
            </g>
        </g>
    </g>
</svg>