<?xml version="1.0" encoding="UTF-8"?>
<svg width="80px" height="80px" viewBox="0 0 80 80" version="1.1" xmlns="http://www.w3.org/2000/svg" xmlns:xlink="http://www.w3.org/1999/xlink">
    <title>protect</title>
    <defs>
        <linearGradient x1="0%" y1="100%" x2="100%" y2="100%" id="linearGradient-1">
            <stop stop-color="#4E82E7" offset="0%"></stop>
            <stop stop-color="#6039E4" offset="48.2604554%"></stop>
            <stop stop-color="#771EE3" offset="100%"></stop>
        </linearGradient>
    </defs>
    <g id="Page-1" stroke="none" stroke-width="1" fill="none" fill-rule="evenodd">
        <g id="AETERNUM" transform="translate(-1060.000000, -5098.000000)" fill-rule="nonzero">
            <g id="protect" transform="translate(1060.000000, 5098.000000)">
                <rect id="Rectangle" x="0" y="0" width="80" height="80"></rect>
                <path d="M56.2304,0.32 C58.2256,0.32 59.5296,1.1424 60.456,2.9776 C63.0528,8.1296 67.08,11.8752 72.4256,14.1152 C74.7856,15.104 75.7968,16.64 75.6992,19.08 C75.6368,20.7152 75.6192,22.3856 75.6016,23.9856 C75.576,26.4336 75.5488,28.9632 75.3632,31.4352 C74.8032,38.9328 72.5232,46.3392 68.584,53.4464 C65.5561384,58.919611 61.7192999,63.9043186 57.2032,68.232 C52.8608,72.3824 47.76,76.0448 42.0416,79.112 C40.6592,79.8544 39.3312,79.8624 37.9808,79.1376 C32.2704,76.0736 27.1776,72.4256 22.8448,68.2944 C18.3305591,63.988966 14.4925944,59.026313 11.4608,53.5744 C6.76879821,45.1829948 4.30125644,35.7308778 4.29254449,26.1168 L4.29254449,26.1168 L4.29254449,22.8 C4.3024,21.4224 4.304,19.9968 4.29254449,18.5952 C4.2752,16.4992 5.1664,15.1456 7.0992,14.3456 C12.7744,11.984 17.0064,8.0688 19.68,2.704 C20.48,1.1072 21.744,0.3296 23.552,0.3408 L23.552,0.3408 L44.6256,0.3408 C48.4048,0.3472 52.32,0.3536 56.16,0.32 L56.16,0.32 Z M56.0432,2.312 L56.0096,2.312 C52.0848,2.3312 48.0944,2.3312 44.2352,2.3312 L35.9408,2.3312 C31.9488,2.3392 27.8384,2.3408 23.7888,2.3312 L23.7888,2.3312 L23.7728,2.3312 C22.9984,2.3312 22.0432,2.4912 21.4848,3.6112 C18.5952,9.44 13.9824,13.6912 7.7792,16.264 C6.784,16.6768 6.3264,17.3776 6.33893894,18.4672 C6.3504,19.8928 6.3504,21.3456 6.3504,22.7488 C6.33893894,24.0512 6.3376,25.3968 6.3504,26.7216 C6.4368,35.8144 8.7472,44.5008 13.2144,52.5424 C18.9728,62.9072 27.5808,71.2288 38.8,77.272 C39.1550153,77.4753152 39.5557408,77.5854046 39.9648,77.592 C40.480236,77.5716855 40.9821778,77.4214332 41.424,77.1552 C50.0224,72.4928 57.144,66.4032 62.584,59.0528 C68.7344,50.744 72.3232,41.6928 73.2464,32.152 C73.5488,29.0336 73.5696,25.8432 73.5904,22.7584 C73.5984,21.4976 73.608,20.2176 73.6352,18.9376 C73.6752,17.0528 73.4304,16.8208 71.7104,16.064 C65.8208,13.4784 61.44,9.3968 58.672,3.912 C58.104,2.792 57.3232,2.312 56.0432,2.312 L56.0432,2.312 Z M36.4752,15.1776 C39.6919024,14.0835291 43.234709,14.5507224 46.0578269,16.4412703 C48.8809447,18.3318183 50.6619826,21.4298261 50.8752,24.8208 C50.944,25.9936 50.9296,27.192 50.9296,28.352 L50.9296,28.352 L50.9296,31.1568 L52.7616,31.1568 C54.9648,31.1728 56.4016,32.6112 56.416,34.8208 C56.4256,36.9744 56.4256,39.1632 56.4256,41.2816 L56.4256,50.4464 C56.4192,52.9792 55.0432,54.376 52.5504,54.376 L52.5504,54.376 L27.448,54.376 C24.9136,54.3744 23.5712,53.024 23.5712,50.464 L23.5712,50.464 L23.5712,34.9968 C23.5728,32.5232 24.9424,31.1568 27.4304,31.1568 L27.4304,31.1568 L29.048,31.1568 L29.048,29.216 C29.04,27.9248 29.0368,26.704 29.048,25.4608 C29.0995173,20.8071598 32.0736569,16.6893668 36.4752,15.1776 Z M52.4832,33.104 L27.4752,33.104 C26.0336,33.104 25.52,33.608 25.52,35.024 L25.52,35.024 L25.52,50.48 C25.5216,51.9104 26.0288,52.4176 27.4576,52.4176 L27.4576,52.4176 L52.4656,52.4176 C53.9536,52.4176 54.456,51.9232 54.456,50.4576 C54.4581333,45.3312 54.4581333,40.2048 54.456,35.0784 C54.456,33.6032 53.9584,33.104 52.4832,33.104 L52.4832,33.104 Z M40.4016,16.576 C36.1744,16.3152 32.2208,19.2288 31.3968,23.2064 C31.04,24.9312 30.9968,26.7472 30.9536,28.5072 C30.9344,29.2992 30.9152,30.1216 30.8672,30.9216 L30.8672,30.9216 L30.8576,31.0912 L48.8608,31.0912 L48.8608,30.9312 C48.8608,30.2224 48.8816,29.5072 48.8992,28.8144 C48.9424,27.3024 48.9856,25.7408 48.8176,24.232 C48.3472,20 44.8816,16.8528 40.4016,16.576 Z" id="Combined-Shape" fill="url(#linearGradient-1)"></path>
            </g>
        </g>
    </g>
</svg>