<?xml version="1.0" encoding="UTF-8"?>
<svg width="25px" height="25px" viewBox="0 0 25 25" version="1.1" xmlns="http://www.w3.org/2000/svg" xmlns:xlink="http://www.w3.org/1999/xlink">
    <!-- Generator: Sketch 54.1 (76490) - https://sketchapp.com -->
    <title>Fill 1</title>
    <desc>Created with Sketch.</desc>
    <g id="Page-1" stroke="none" stroke-width="1" fill="none" fill-rule="evenodd">
        <g id="Desktop-HD" transform="translate(-1398.000000, -285.000000)" fill="#FFFFFF">
            <g id="Group-12" transform="translate(1380.000000, 275.000000)">
                <path d="M36.9249896,24.9833023 C36.8490116,24.8586809 36.6483248,24.7840128 36.3486046,24.634764 C36.0475745,24.4857773 34.5677497,23.7628508 34.2923075,23.6639047 C34.01704,23.5646093 33.814956,23.5145686 33.6155792,23.8128915 C33.4149797,24.1114763 32.8381581,24.7840128 32.6620987,24.9833023 C32.4871746,25.1829411 32.3121631,25.2072191 32.011133,25.0579704 C31.7097535,24.9089836 30.7399421,24.5926705 29.591364,23.5770976 C28.697618,22.7847429 28.0937237,21.8083817 27.917315,21.5097095 C27.7427402,21.2114739 27.9000234,21.0499988 28.0490102,20.901012 C28.1847227,20.7666095 28.3503023,20.5524737 28.5006864,20.3787723 C28.6514198,20.2037608 28.7013732,20.0787901 28.8017166,19.8795006 C28.90206,19.6802111 28.8521066,19.506597 28.7760412,19.3572609 C28.7013732,19.2083614 28.0993129,17.739191 27.8482361,17.1409733 C27.5989059,16.5444148 27.3479165,16.5666842 27.1715077,16.5666842 C26.9964963,16.5666842 26.6717994,16.6187336 26.6717994,16.6187336 C26.6717994,16.6187336 26.0686911,16.6934016 25.7934236,16.9919865 C25.5180688,17.2903094 24.740997,18.0132359 24.740997,19.4809217 C24.740997,20.9496554 25.818051,22.3697457 25.9684351,22.5677252 C26.1190811,22.767364 28.0490102,25.8799303 31.1076932,27.0749685 C34.1662888,28.269832 34.1662888,27.8711657 34.7180464,27.8207757 C35.2687561,27.772307 36.4975914,27.0992465 36.7485809,26.4020827 C36.9996577,25.7049188 36.9996577,25.1069631 36.9249896,24.9833023 M30.7278031,11.9395355 C25.0367873,11.9395355 20.4090272,16.5319265 20.4090272,22.1784907 C20.4090272,24.417659 21.1385036,26.4930816 22.3743254,28.1816276 L21.0857556,31.9833233 L25.0503236,30.7235727 C26.6792225,31.7924176 28.630897,32.4163106 30.7278031,32.4163106 C36.4163735,32.4163106 41.0455309,27.8235703 41.0455309,22.1784907 C41.0455309,16.5319265 36.4163735,11.9395355 30.7278031,11.9395355 M43,22.1784907 C43,28.9031568 37.5055665,34.3559334 30.7278031,34.3559334 C28.5753545,34.3559334 26.5531165,33.8062718 24.7951423,32.8406523 L18,35 L20.2148903,28.4666762 C19.0972274,26.6312394 18.4544708,24.4788781 18.4544708,22.1784907 C18.4544708,15.4524273 23.9489917,10 30.7278031,10 C37.5055665,10 43,15.4524273 43,22.1784907" id="Fill-1"></path>
            </g>
        </g>
    </g>
</svg>